%TF.GenerationSoftware,KiCad,Pcbnew,9.0.1*%
%TF.CreationDate,2026-02-02T15:19:22-04:00*%
%TF.ProjectId,power regulation,706f7765-7220-4726-9567-756c6174696f,1*%
%TF.SameCoordinates,Original*%
%TF.FileFunction,Copper,L4,Bot*%
%TF.FilePolarity,Positive*%
%FSLAX46Y46*%
G04 Gerber Fmt 4.6, Leading zero omitted, Abs format (unit mm)*
G04 Created by KiCad (PCBNEW 9.0.1) date 2026-02-02 15:19:22*
%MOMM*%
%LPD*%
G01*
G04 APERTURE LIST*
%TA.AperFunction,ComponentPad*%
%ADD10R,1.700000X1.700000*%
%TD*%
%TA.AperFunction,ComponentPad*%
%ADD11C,1.700000*%
%TD*%
%TA.AperFunction,ComponentPad*%
%ADD12R,1.508000X1.508000*%
%TD*%
%TA.AperFunction,ComponentPad*%
%ADD13C,1.508000*%
%TD*%
%TA.AperFunction,ComponentPad*%
%ADD14O,1.550000X2.350000*%
%TD*%
%TA.AperFunction,ComponentPad*%
%ADD15O,1.050000X2.700000*%
%TD*%
%TA.AperFunction,ComponentPad*%
%ADD16C,1.574800*%
%TD*%
%TA.AperFunction,ViaPad*%
%ADD17C,0.600000*%
%TD*%
%TA.AperFunction,ViaPad*%
%ADD18C,0.500000*%
%TD*%
%TA.AperFunction,Conductor*%
%ADD19C,0.400000*%
%TD*%
%TA.AperFunction,Conductor*%
%ADD20C,1.000000*%
%TD*%
%TA.AperFunction,Conductor*%
%ADD21C,0.300000*%
%TD*%
%TA.AperFunction,Conductor*%
%ADD22C,1.016000*%
%TD*%
%TA.AperFunction,Conductor*%
%ADD23C,0.500000*%
%TD*%
%TA.AperFunction,Conductor*%
%ADD24C,0.200000*%
%TD*%
G04 APERTURE END LIST*
D10*
%TO.P,STM_CN10,1*%
%TO.N,WAKE*%
X163862500Y-68500000D03*
D11*
%TO.P,STM_CN10,2*%
%TO.N,SD_CS*%
X166402500Y-68500000D03*
%TO.P,STM_CN10,3*%
%TO.N,N/C*%
X163862500Y-71040000D03*
%TO.P,STM_CN10,4*%
%TO.N,B4*%
X166402500Y-71040000D03*
%TO.P,STM_CN10,5*%
%TO.N,N/C*%
X163862500Y-73580000D03*
%TO.P,STM_CN10,6*%
%TO.N,RTD_CS*%
X166402500Y-73580000D03*
%TO.P,STM_CN10,7*%
%TO.N,N/C*%
X163862500Y-76120000D03*
%TO.P,STM_CN10,8*%
X166402500Y-76120000D03*
%TO.P,STM_CN10,9*%
%TO.N,GND*%
X163862500Y-78660000D03*
%TO.P,STM_CN10,10*%
%TO.N,N/C*%
X166402500Y-78660000D03*
%TO.P,STM_CN10,11*%
%TO.N,DISPL_SCK*%
X163862500Y-81200000D03*
%TO.P,STM_CN10,12*%
%TO.N,N/C*%
X166402500Y-81200000D03*
%TO.P,STM_CN10,13*%
%TO.N,TOUCH_MISO*%
X163862500Y-83740000D03*
%TO.P,STM_CN10,14*%
%TO.N,N/C*%
X166402500Y-83740000D03*
%TO.P,STM_CN10,15*%
%TO.N,DISPL_MOSI*%
X163862500Y-86280000D03*
%TO.P,STM_CN10,16*%
%TO.N,B5*%
X166402500Y-86280000D03*
%TO.P,STM_CN10,17*%
%TO.N,N/C*%
X163862500Y-88820000D03*
%TO.P,STM_CN10,18*%
X166402500Y-88820000D03*
%TO.P,STM_CN10,19*%
%TO.N,EXCIT2*%
X163862500Y-91360000D03*
%TO.P,STM_CN10,20*%
%TO.N,GND*%
X166402500Y-91360000D03*
%TO.P,STM_CN10,21*%
%TO.N,TX*%
X163862500Y-93900000D03*
%TO.P,STM_CN10,22*%
%TO.N,EXCIT1*%
X166402500Y-93900000D03*
%TO.P,STM_CN10,23*%
%TO.N,B6*%
X163862500Y-96440000D03*
%TO.P,STM_CN10,24*%
%TO.N,N/C*%
X166402500Y-96440000D03*
%TO.P,STM_CN10,25*%
X163862500Y-98980000D03*
%TO.P,STM_CN10,26*%
%TO.N,MAX_SDI*%
X166402500Y-98980000D03*
%TO.P,STM_CN10,27*%
%TO.N,N/C*%
X163862500Y-101520000D03*
%TO.P,STM_CN10,28*%
%TO.N,MAX_SDO*%
X166402500Y-101520000D03*
%TO.P,STM_CN10,29*%
%TO.N,N/C*%
X163862500Y-104060000D03*
%TO.P,STM_CN10,30*%
%TO.N,MAX_SCK*%
X166402500Y-104060000D03*
%TO.P,STM_CN10,31*%
%TO.N,N/C*%
X163862500Y-106600000D03*
%TO.P,STM_CN10,32*%
X166402500Y-106600000D03*
%TO.P,STM_CN10,33*%
%TO.N,RX*%
X163862500Y-109140000D03*
%TO.P,STM_CN10,34*%
%TO.N,B3*%
X166402500Y-109140000D03*
%TO.P,STM_CN10,35*%
%TO.N,N/C*%
X163862500Y-111680000D03*
%TO.P,STM_CN10,36*%
X166402500Y-111680000D03*
%TO.P,STM_CN10,37*%
X163862500Y-114220000D03*
%TO.P,STM_CN10,38*%
X166402500Y-114220000D03*
%TD*%
D10*
%TO.P,J1,1,Pin_1*%
%TO.N,/8V*%
X168412500Y-55000000D03*
D11*
%TO.P,J1,2,Pin_2*%
%TO.N,GND*%
X170952500Y-55000000D03*
%TD*%
D10*
%TO.P,+ Ref_Res -,1*%
%TO.N,HeaterPre*%
X202725000Y-46500000D03*
D11*
%TO.P,+ Ref_Res -,2*%
%TO.N,Heater+*%
X205265000Y-46500000D03*
%TD*%
D12*
%TO.P,PB-5,1*%
%TO.N,GND*%
X205662500Y-86750000D03*
D13*
%TO.P,PB-5,2*%
%TO.N,N/C*%
X212162500Y-86750000D03*
%TO.P,PB-5,3*%
%TO.N,B5*%
X205662500Y-91250000D03*
%TO.P,PB-5,4*%
%TO.N,N/C*%
X212162500Y-91250000D03*
%TD*%
D10*
%TO.P,RTD,1*%
%TO.N,RTD-*%
X223332500Y-68500000D03*
D11*
%TO.P,RTD,2*%
%TO.N,RTDSens*%
X225872500Y-68500000D03*
%TO.P,RTD,3*%
%TO.N,RTD+*%
X228412500Y-68500000D03*
%TD*%
D12*
%TO.P,PB-4,1*%
%TO.N,GND*%
X205662500Y-64500000D03*
D13*
%TO.P,PB-4,2*%
%TO.N,N/C*%
X212162500Y-64500000D03*
%TO.P,PB-4,3*%
%TO.N,B4*%
X205662500Y-69000000D03*
%TO.P,PB-4,4*%
%TO.N,N/C*%
X212162500Y-69000000D03*
%TD*%
D10*
%TO.P,MAX31856,1*%
%TO.N,/3.3V*%
X197660000Y-121000000D03*
D11*
%TO.P,MAX31856,2*%
%TO.N,N/C*%
X195120000Y-121000000D03*
%TO.P,MAX31856,3*%
%TO.N,GND*%
X192580000Y-121000000D03*
%TO.P,MAX31856,4*%
%TO.N,MAX_SCK*%
X190040000Y-121000000D03*
%TO.P,MAX31856,5*%
%TO.N,MAX_SDO*%
X187500000Y-121000000D03*
%TO.P,MAX31856,6*%
%TO.N,MAX_SDI*%
X184960000Y-121000000D03*
%TO.P,MAX31856,7*%
%TO.N,Therm_CS*%
X182420000Y-121000000D03*
%TO.P,MAX31856,8*%
%TO.N,N/C*%
X179880000Y-121000000D03*
%TO.P,MAX31856,9*%
X177340000Y-121000000D03*
%TD*%
D12*
%TO.P,PB-6,1*%
%TO.N,GND*%
X205662500Y-108750000D03*
D13*
%TO.P,PB-6,2*%
%TO.N,N/C*%
X212162500Y-108750000D03*
%TO.P,PB-6,3*%
%TO.N,B6*%
X205662500Y-113250000D03*
%TO.P,PB-6,4*%
%TO.N,N/C*%
X212162500Y-113250000D03*
%TD*%
D14*
%TO.P,SD_Reader,G1*%
%TO.N,GND*%
X157000000Y-126650000D03*
%TO.P,SD_Reader,G2*%
X173450000Y-126650000D03*
D15*
%TO.P,SD_Reader,G3*%
X157300000Y-135550000D03*
%TO.P,SD_Reader,G4*%
X173700000Y-135550000D03*
%TD*%
D12*
%TO.P,PB-3,1*%
%TO.N,N/C*%
X72837500Y-108750000D03*
D13*
%TO.P,PB-3,2*%
%TO.N,GND*%
X79337500Y-108750000D03*
%TO.P,PB-3,3*%
%TO.N,N/C*%
X72837500Y-113250000D03*
%TO.P,PB-3,4*%
%TO.N,B3*%
X79337500Y-113250000D03*
%TD*%
D10*
%TO.P,J3,1,Pin_1*%
%TO.N,/3.3V*%
X85385000Y-60275000D03*
D11*
%TO.P,J3,2,Pin_2*%
%TO.N,GND*%
X85385000Y-57735000D03*
%TD*%
D10*
%TO.P,TFT_DISPLAY_Pinout,1*%
%TO.N,/3.3V*%
X97000000Y-72960000D03*
D11*
%TO.P,TFT_DISPLAY_Pinout,2*%
%TO.N,GND*%
X97000000Y-75500000D03*
%TO.P,TFT_DISPLAY_Pinout,3*%
%TO.N,DISPL_CS*%
X97000000Y-78040000D03*
%TO.P,TFT_DISPLAY_Pinout,4*%
%TO.N,DISPL_RST*%
X97000000Y-80580000D03*
%TO.P,TFT_DISPLAY_Pinout,5*%
%TO.N,DISPL_DC*%
X97000000Y-83120000D03*
%TO.P,TFT_DISPLAY_Pinout,6*%
%TO.N,DISPL_MOSI*%
X97000000Y-85660000D03*
%TO.P,TFT_DISPLAY_Pinout,7*%
%TO.N,DISPL_SCK*%
X97000000Y-88200000D03*
%TO.P,TFT_DISPLAY_Pinout,8*%
%TO.N,DISPL_LED*%
X97000000Y-90740000D03*
%TO.P,TFT_DISPLAY_Pinout,9*%
%TO.N,N/C*%
X97000000Y-93280000D03*
%TO.P,TFT_DISPLAY_Pinout,10*%
%TO.N,DISPL_SCK*%
X97000000Y-95820000D03*
%TO.P,TFT_DISPLAY_Pinout,11*%
%TO.N,N/C*%
X97000000Y-98360000D03*
%TO.P,TFT_DISPLAY_Pinout,12*%
X97000000Y-100900000D03*
%TO.P,TFT_DISPLAY_Pinout,13*%
%TO.N,TOUCH_MISO*%
X97000000Y-103440000D03*
%TO.P,TFT_DISPLAY_Pinout,14*%
%TO.N,N/C*%
X97000000Y-105980000D03*
%TD*%
D10*
%TO.P,MAX31865,1*%
%TO.N,/3.3V*%
X231200000Y-121000000D03*
D11*
%TO.P,MAX31865,2*%
%TO.N,GND*%
X228660000Y-121000000D03*
%TO.P,MAX31865,3*%
%TO.N,N/C*%
X226120000Y-121000000D03*
%TO.P,MAX31865,4*%
%TO.N,MAX_SCK*%
X223580000Y-121000000D03*
%TO.P,MAX31865,5*%
%TO.N,MAX_SDO*%
X221040000Y-121000000D03*
%TO.P,MAX31865,6*%
%TO.N,MAX_SDI*%
X218500000Y-121000000D03*
%TO.P,MAX31865,7*%
%TO.N,RTD_CS*%
X215960000Y-121000000D03*
%TO.P,MAX31865,8*%
%TO.N,N/C*%
X213420000Y-121000000D03*
%TD*%
D10*
%TO.P,J2,1,Pin_1*%
%TO.N,/5V*%
X97912500Y-127040000D03*
D11*
%TO.P,J2,2,Pin_2*%
%TO.N,GND*%
X97912500Y-124500000D03*
%TD*%
D12*
%TO.P,PB-1,1*%
%TO.N,N/C*%
X72837500Y-64500000D03*
D13*
%TO.P,PB-1,2*%
%TO.N,GND*%
X79337500Y-64500000D03*
%TO.P,PB-1,3*%
%TO.N,N/C*%
X72837500Y-69000000D03*
%TO.P,PB-1,4*%
%TO.N,B1*%
X79337500Y-69000000D03*
%TD*%
D16*
%TO.P,Connector,1*%
%TO.N,Heater+*%
X212572902Y-51564301D03*
%TO.P,Connector,2*%
%TO.N,GND*%
X215572901Y-51564301D03*
%TO.P,Connector,3*%
%TO.N,Thermocouple-*%
X218572900Y-51564301D03*
%TO.P,Connector,4*%
%TO.N,N/C*%
X221572899Y-51564301D03*
%TO.P,Connector,5*%
%TO.N,Thermocouple+*%
X224572898Y-51564301D03*
%TO.P,Connector,6*%
%TO.N,RTD-*%
X212572902Y-54564300D03*
%TO.P,Connector,7*%
%TO.N,RTD+*%
X215572901Y-54564300D03*
%TO.P,Connector,8*%
%TO.N,RTDSens*%
X218572900Y-54564300D03*
%TO.P,Connector,9*%
%TO.N,GND*%
X221572899Y-54564300D03*
%TO.P,Connector,10*%
%TO.N,N/C*%
X224572898Y-54564300D03*
%TD*%
D10*
%TO.P,GPS_Pinout,1*%
%TO.N,/3.3V*%
X152580000Y-135000000D03*
D11*
%TO.P,GPS_Pinout,2*%
%TO.N,GND*%
X150040000Y-135000000D03*
%TO.P,GPS_Pinout,3*%
%TO.N,RX*%
X147500000Y-135000000D03*
%TO.P,GPS_Pinout,4*%
%TO.N,TX*%
X144960000Y-135000000D03*
%TO.P,GPS_Pinout,5*%
%TO.N,WAKE*%
X142420000Y-135000000D03*
%TD*%
D10*
%TO.P,Thermocouple,1*%
%TO.N,Thermocouple+*%
X186087500Y-70000000D03*
D11*
%TO.P,Thermocouple,2*%
%TO.N,Thermocouple-*%
X188627500Y-70000000D03*
%TD*%
D12*
%TO.P,PB-2,1*%
%TO.N,N/C*%
X72837500Y-86750000D03*
D13*
%TO.P,PB-2,2*%
%TO.N,GND*%
X79337500Y-86750000D03*
%TO.P,PB-2,3*%
%TO.N,N/C*%
X72837500Y-91250000D03*
%TO.P,PB-2,4*%
%TO.N,B2*%
X79337500Y-91250000D03*
%TD*%
D10*
%TO.P,J1,1,Pin_1*%
%TO.N,/Pin*%
X98412500Y-51540000D03*
D11*
%TO.P,J1,2,Pin_2*%
%TO.N,GND*%
X98412500Y-49000000D03*
%TD*%
D10*
%TO.P,STM_CN7,1*%
%TO.N,N/C*%
X102862500Y-68500000D03*
D11*
%TO.P,STM_CN7,2*%
X105402500Y-68500000D03*
%TO.P,STM_CN7,3*%
X102862500Y-71040000D03*
%TO.P,STM_CN7,4*%
%TO.N,B1*%
X105402500Y-71040000D03*
%TO.P,STM_CN7,5*%
%TO.N,N/C*%
X102862500Y-73580000D03*
%TO.P,STM_CN7,6*%
%TO.N,/5V*%
X105402500Y-73580000D03*
%TO.P,STM_CN7,7*%
%TO.N,N/C*%
X102862500Y-76120000D03*
%TO.P,STM_CN7,8*%
X105402500Y-76120000D03*
%TO.P,STM_CN7,9*%
X102862500Y-78660000D03*
%TO.P,STM_CN7,10*%
X105402500Y-78660000D03*
%TO.P,STM_CN7,11*%
X102862500Y-81200000D03*
%TO.P,STM_CN7,12*%
X105402500Y-81200000D03*
%TO.P,STM_CN7,13*%
X102862500Y-83740000D03*
%TO.P,STM_CN7,14*%
X105402500Y-83740000D03*
%TO.P,STM_CN7,15*%
X102862500Y-86280000D03*
%TO.P,STM_CN7,16*%
X105402500Y-86280000D03*
%TO.P,STM_CN7,17*%
X102862500Y-88820000D03*
%TO.P,STM_CN7,18*%
X105402500Y-88820000D03*
%TO.P,STM_CN7,19*%
X102862500Y-91360000D03*
%TO.P,STM_CN7,20*%
X105402500Y-91360000D03*
%TO.P,STM_CN7,21*%
X102862500Y-93900000D03*
%TO.P,STM_CN7,22*%
%TO.N,GND*%
X105402500Y-93900000D03*
%TO.P,STM_CN7,23*%
%TO.N,B2*%
X102862500Y-96440000D03*
%TO.P,STM_CN7,24*%
%TO.N,N/C*%
X105402500Y-96440000D03*
%TO.P,STM_CN7,25*%
X102862500Y-98980000D03*
%TO.P,STM_CN7,26*%
X105402500Y-98980000D03*
%TO.P,STM_CN7,27*%
X102862500Y-101520000D03*
%TO.P,STM_CN7,28*%
X105402500Y-101520000D03*
%TO.P,STM_CN7,29*%
X102862500Y-104060000D03*
%TO.P,STM_CN7,30*%
X105402500Y-104060000D03*
%TO.P,STM_CN7,31*%
X102862500Y-106600000D03*
%TO.P,STM_CN7,32*%
%TO.N,Therm_CS*%
X105402500Y-106600000D03*
%TO.P,STM_CN7,33*%
%TO.N,N/C*%
X102862500Y-109140000D03*
%TO.P,STM_CN7,34*%
X105402500Y-109140000D03*
%TO.P,STM_CN7,35*%
%TO.N,DISPL_RST*%
X102862500Y-111680000D03*
%TO.P,STM_CN7,36*%
%TO.N,DISPL_DC*%
X105402500Y-111680000D03*
%TO.P,STM_CN7,37*%
%TO.N,DISPL_CS*%
X102862500Y-114220000D03*
%TO.P,STM_CN7,38*%
%TO.N,DISPL_LED*%
X105402500Y-114220000D03*
%TD*%
D17*
%TO.N,GND*%
X120959500Y-135557500D03*
X123959500Y-108057500D03*
X132061226Y-85459968D03*
X127500000Y-97000000D03*
X126412500Y-49500000D03*
X132167190Y-117446624D03*
X127500000Y-88500000D03*
X132000000Y-77000000D03*
X129662500Y-55250000D03*
X155662500Y-56355000D03*
X137162500Y-56250000D03*
X102912500Y-49000000D03*
X141615500Y-49750000D03*
X117000000Y-100750000D03*
X130747633Y-85246027D03*
X148162500Y-48750000D03*
X139500000Y-97000000D03*
X149162500Y-48750000D03*
X126412500Y-46500000D03*
X132957606Y-117442802D03*
X116959500Y-129557500D03*
X104912500Y-120250000D03*
X128063000Y-73605000D03*
X145912500Y-84000000D03*
X132615500Y-67250000D03*
X127459500Y-123557500D03*
X223200000Y-89227050D03*
X187012500Y-82230000D03*
X116959500Y-125557500D03*
X127500000Y-98000000D03*
X130162500Y-70855000D03*
X126750000Y-79000000D03*
X133000000Y-77000000D03*
X96635000Y-57735000D03*
X139797000Y-88500000D03*
X148162500Y-49750000D03*
X145709500Y-116562500D03*
X127459500Y-129057500D03*
X135162500Y-55250000D03*
X135000000Y-93000000D03*
X154912500Y-68000000D03*
X127459500Y-122557500D03*
X142750000Y-78500000D03*
X130952355Y-86704946D03*
X127459500Y-120557500D03*
X189512500Y-82230000D03*
X134959500Y-125057500D03*
X130918209Y-116840815D03*
X136162500Y-54250000D03*
X137912500Y-76000000D03*
X127500000Y-92500000D03*
X139959500Y-120557500D03*
X129736680Y-56005963D03*
X127459500Y-132057500D03*
X116959500Y-118557500D03*
X138662500Y-49250000D03*
X145615500Y-48750000D03*
X144959500Y-111557500D03*
X124000000Y-76750000D03*
X131500000Y-86000000D03*
X131038303Y-117451962D03*
X143750000Y-78500000D03*
X136162500Y-55250000D03*
X92135000Y-57735000D03*
X117000000Y-98250000D03*
X226500000Y-89500000D03*
X130709499Y-55697800D03*
X138662500Y-48250000D03*
X132062500Y-84815462D03*
X132217897Y-118028415D03*
X118959500Y-135557500D03*
X134000000Y-77000000D03*
X135662500Y-50250000D03*
X170952500Y-62500000D03*
X129959500Y-111057500D03*
X143959500Y-111057500D03*
X116959500Y-127557500D03*
X132747517Y-85419134D03*
X133500000Y-95500000D03*
X137662500Y-49250000D03*
X136063000Y-73605000D03*
X127459500Y-121557500D03*
X127500000Y-90500000D03*
X144162500Y-71855000D03*
X116959500Y-135557500D03*
X132959500Y-109057500D03*
D18*
X175912500Y-59000000D03*
D17*
X136162500Y-53250000D03*
X127459500Y-128057500D03*
X151162500Y-48750000D03*
X134063000Y-73605000D03*
X142959500Y-111057500D03*
X138500000Y-95750000D03*
X127500000Y-95000000D03*
X151162500Y-49750000D03*
X147412500Y-71855000D03*
X133459500Y-127557500D03*
X144750000Y-85750000D03*
X131500000Y-97500000D03*
X128162500Y-55750000D03*
X152162500Y-48750000D03*
X132823706Y-118039090D03*
X141615500Y-48750000D03*
X132912500Y-106000000D03*
X221000000Y-94000000D03*
X132081242Y-86064443D03*
X103662500Y-121500000D03*
X132012000Y-56000000D03*
X131615500Y-67250000D03*
X133459500Y-121557500D03*
X116959500Y-116057500D03*
X122662500Y-58855000D03*
X118959500Y-113557500D03*
X132797800Y-86027145D03*
X137162500Y-53250000D03*
X135162500Y-53250000D03*
X143459500Y-118057500D03*
X127162500Y-69855000D03*
X137662500Y-50250000D03*
X127459500Y-127057500D03*
X124662500Y-56750000D03*
X131951020Y-118778337D03*
X131849059Y-86660912D03*
X127459500Y-119557500D03*
X190512500Y-98730000D03*
X129459500Y-129557500D03*
X132794350Y-118719624D03*
X132012000Y-55250000D03*
X123250000Y-103000000D03*
X141459500Y-120557500D03*
X144750000Y-79250000D03*
X105912500Y-49000000D03*
X139912500Y-77000000D03*
X117000000Y-93250000D03*
X170952500Y-59500000D03*
X131598744Y-117766876D03*
X145912500Y-82000000D03*
X131615500Y-68250000D03*
X127500000Y-89500000D03*
X134459500Y-121557500D03*
X117000000Y-85250000D03*
X130959500Y-118057500D03*
X144615500Y-49750000D03*
X130820251Y-86020408D03*
X130063000Y-73605000D03*
X141297000Y-88500000D03*
X133500000Y-89500000D03*
X132079121Y-116870171D03*
X132063000Y-73605000D03*
X136162500Y-56250000D03*
X121459500Y-110557500D03*
X127459500Y-124557500D03*
X122662500Y-60855000D03*
X127500000Y-101000000D03*
X128162500Y-54750000D03*
X132727631Y-116918209D03*
X127459500Y-125557500D03*
X139500000Y-95750000D03*
X128000000Y-77500000D03*
X140412500Y-108750000D03*
X127500000Y-100000000D03*
X134662500Y-45750000D03*
X124662500Y-54750000D03*
X117000000Y-103000000D03*
X145709500Y-114562500D03*
X144615500Y-48750000D03*
X122959500Y-135557500D03*
X131459500Y-129557500D03*
X133959500Y-109057500D03*
X122662500Y-62855000D03*
X134750000Y-89500000D03*
X94385000Y-57735000D03*
X132615500Y-68250000D03*
X144959500Y-118057500D03*
X137959500Y-107057500D03*
X143250000Y-85750000D03*
X126063000Y-73605000D03*
X128459500Y-109057500D03*
X125959500Y-135557500D03*
X117000000Y-88000000D03*
X118750000Y-103000000D03*
X142615500Y-49750000D03*
X170952500Y-61000000D03*
X137662500Y-48250000D03*
X127500000Y-87500000D03*
X152162500Y-49750000D03*
X127500000Y-99000000D03*
X133000000Y-97500000D03*
X132959500Y-129557500D03*
X141297000Y-87500000D03*
X117000000Y-95750000D03*
X116959500Y-113557500D03*
X138459500Y-127557500D03*
D18*
X232412500Y-101000000D03*
D17*
X154412500Y-71000000D03*
X135162500Y-56250000D03*
X117000000Y-90750000D03*
X131404710Y-85423940D03*
X116959500Y-131557500D03*
X135162500Y-54250000D03*
X138662500Y-50250000D03*
X129750000Y-79000000D03*
X134959500Y-124057500D03*
X139500000Y-94750000D03*
X126459500Y-111057500D03*
X102412500Y-122750000D03*
X132586825Y-86694597D03*
X121750000Y-103000000D03*
X131239221Y-84842142D03*
X137162500Y-54250000D03*
X116959500Y-133557500D03*
X137162500Y-55250000D03*
X141459500Y-118557500D03*
X127500000Y-91500000D03*
X127459500Y-131057500D03*
X142615500Y-48750000D03*
D18*
X162250000Y-125300000D03*
D17*
X139459500Y-127557500D03*
X122662500Y-66855000D03*
X141459500Y-119557500D03*
X131959500Y-109057500D03*
X130990266Y-118714287D03*
X127500000Y-96000000D03*
X135662500Y-47250000D03*
X141297000Y-86500000D03*
D18*
X175912500Y-52000000D03*
D17*
X154912500Y-64355000D03*
X121250000Y-79250000D03*
D18*
X229912500Y-101000000D03*
D17*
X145615500Y-49750000D03*
X127500000Y-93500000D03*
X127459500Y-133057500D03*
X149162500Y-49750000D03*
X104412500Y-49000000D03*
X127459500Y-130057500D03*
X129500000Y-97500000D03*
X122662500Y-64855000D03*
X182912500Y-87000000D03*
X124662500Y-69855000D03*
X132773786Y-84815462D03*
X131556044Y-118327316D03*
X122662500Y-68855000D03*
X139459500Y-126557500D03*
X135000000Y-92000000D03*
X139459500Y-128557500D03*
X183100000Y-102730000D03*
X120250000Y-103000000D03*
X129412500Y-106000000D03*
X190512500Y-92230000D03*
X151162500Y-71855000D03*
%TO.N,RTDSens*%
X225500000Y-88000000D03*
%TO.N,Heater+*%
X205500000Y-50500000D03*
D18*
%TO.N,MAX_SCK*%
X190000000Y-104500000D03*
X187000000Y-101500000D03*
X181500000Y-117000000D03*
%TO.N,MAX_SDO*%
X219000000Y-125500000D03*
X189000000Y-102500000D03*
D17*
X220051000Y-93500000D03*
D18*
X187412500Y-100000000D03*
D17*
%TO.N,MAX_SDI*%
X182500000Y-119000000D03*
D18*
%TO.N,MOSFETGait1*%
X176912500Y-62566800D03*
X163412500Y-62500000D03*
%TO.N,Therm_CS*%
X149287500Y-105375000D03*
D17*
%TO.N,RTD_CS*%
X221000000Y-92500000D03*
%TO.N,/Pin*%
X129959500Y-114557500D03*
X102912500Y-51500000D03*
X128959500Y-126057500D03*
X129662500Y-47750000D03*
X129000000Y-91000000D03*
X128959500Y-127557500D03*
X131000000Y-81250000D03*
X128959500Y-124057500D03*
X104412500Y-51500000D03*
X130912500Y-113250000D03*
X105872500Y-51500000D03*
X129662500Y-48750000D03*
X129662500Y-52250000D03*
X131000000Y-82250000D03*
X130959500Y-114250000D03*
X130000000Y-81250000D03*
X129000000Y-95500000D03*
X130000000Y-82250000D03*
X130459500Y-121057500D03*
X129500000Y-89000000D03*
X129662500Y-46250000D03*
X129000000Y-90000000D03*
X129959500Y-113557500D03*
X129662500Y-51250000D03*
X129459500Y-121057500D03*
X128959500Y-123057500D03*
X129000000Y-92000000D03*
X129662500Y-50250000D03*
X128959500Y-125057500D03*
X128959500Y-122057500D03*
X129000000Y-93000000D03*
X130500000Y-89000000D03*
X129000000Y-94000000D03*
D18*
%TO.N,/5V*%
X113662500Y-106250000D03*
X113662500Y-105500000D03*
X113662500Y-107000000D03*
%TO.N,/3.3V*%
X79337500Y-73500000D03*
X164450000Y-125300000D03*
X119162500Y-85750000D03*
X232412500Y-97462500D03*
X118912500Y-89000000D03*
X202162500Y-111500000D03*
X119162500Y-87500000D03*
X119162500Y-86750000D03*
X118912500Y-93500000D03*
X79337500Y-118000000D03*
X79337500Y-96250000D03*
X205412500Y-96000000D03*
X118912500Y-92000000D03*
X229912500Y-97462500D03*
X119162500Y-84500000D03*
X202162500Y-71250000D03*
X183000000Y-98962500D03*
X182912500Y-90537500D03*
X118912500Y-90500000D03*
D17*
%TO.N,/8V*%
X168452500Y-62460000D03*
X168452500Y-61000000D03*
X168452500Y-59500000D03*
D18*
%TO.N,DISPL_MOSI*%
X165550000Y-125300000D03*
D17*
X85750000Y-94000000D03*
D18*
X150500000Y-100000000D03*
X150500000Y-108000000D03*
%TO.N,DISPL_SCK*%
X163350000Y-125300000D03*
X151412500Y-120000000D03*
D17*
X151412500Y-89000000D03*
%TO.N,TOUCH_MISO*%
X152912500Y-96000000D03*
%TO.N,WAKE*%
X154512500Y-113500000D03*
X156000000Y-77500000D03*
D18*
%TO.N,B5*%
X170962500Y-90938750D03*
%TO.N,B6*%
X173025130Y-103974870D03*
D17*
%TO.N,RX*%
X155500000Y-116500000D03*
D18*
%TO.N,B2*%
X95500000Y-94500000D03*
D17*
%TO.N,TX*%
X155000000Y-114500000D03*
D18*
%TO.N,SD_CS*%
X170500000Y-109500000D03*
X169500000Y-75500000D03*
D17*
%TO.N,HeaterPre*%
X203500000Y-51000000D03*
%TD*%
D19*
%TO.N,RTDSens*%
X225682500Y-68270000D02*
X218572900Y-61160400D01*
X228412500Y-86382500D02*
X228412500Y-71230000D01*
X228412500Y-71230000D02*
X225682500Y-68500000D01*
X226000000Y-87500000D02*
X227295000Y-87500000D01*
X227295000Y-87500000D02*
X228412500Y-86382500D01*
X218572900Y-61160400D02*
X218572900Y-54564300D01*
X225500000Y-88000000D02*
X226000000Y-87500000D01*
X225682500Y-68500000D02*
X225682500Y-68270000D01*
%TO.N,Heater+*%
X205500000Y-50500000D02*
X205265000Y-50265000D01*
X205265000Y-50265000D02*
X205265000Y-46500000D01*
D20*
%TO.N,Thermocouple+*%
X210000000Y-51000000D02*
X211500000Y-49500000D01*
X187500000Y-60500000D02*
X206000000Y-60500000D01*
X211500000Y-49500000D02*
X213761265Y-49500000D01*
X184500000Y-67912500D02*
X184500000Y-63500000D01*
X224476801Y-51564301D02*
X224572898Y-51564301D01*
X213780564Y-49519299D02*
X215665236Y-49519299D01*
X215684535Y-49500000D02*
X221461265Y-49500000D01*
X186087500Y-69500000D02*
X184500000Y-67912500D01*
X221480564Y-49519299D02*
X222431799Y-49519299D01*
X206000000Y-60500000D02*
X210000000Y-56500000D01*
X221461265Y-49500000D02*
X221480564Y-49519299D01*
X215665236Y-49519299D02*
X215684535Y-49500000D01*
X210000000Y-56500000D02*
X210000000Y-51000000D01*
X184500000Y-63500000D02*
X187500000Y-60500000D01*
X213761265Y-49500000D02*
X213780564Y-49519299D01*
X222431799Y-49519299D02*
X224476801Y-51564301D01*
D19*
%TO.N,MAX_SCK*%
X181500000Y-117000000D02*
X186040000Y-117000000D01*
X186040000Y-117000000D02*
X190040000Y-121000000D01*
X190000000Y-104500000D02*
X187000000Y-101500000D01*
%TO.N,MAX_SDO*%
X175500000Y-118000000D02*
X184500000Y-118000000D01*
X168949000Y-104066500D02*
X168949000Y-111449000D01*
D21*
X220051000Y-93500000D02*
X220051000Y-120011000D01*
D19*
X187412500Y-100912500D02*
X189000000Y-102500000D01*
X166402500Y-101520000D02*
X168949000Y-104066500D01*
X184500000Y-118000000D02*
X187500000Y-121000000D01*
X221000000Y-122500000D02*
X221040000Y-122460000D01*
D21*
X220051000Y-120011000D02*
X221040000Y-121000000D01*
D19*
X168949000Y-111449000D02*
X175500000Y-118000000D01*
X221000000Y-123500000D02*
X221000000Y-122500000D01*
X219000000Y-125500000D02*
X221000000Y-123500000D01*
X221040000Y-122460000D02*
X221040000Y-121000000D01*
X187412500Y-100000000D02*
X187412500Y-100912500D01*
%TO.N,MAX_SDI*%
X182500000Y-119000000D02*
X182540000Y-119040000D01*
X184960000Y-121000000D02*
X188960000Y-125000000D01*
X188960000Y-125000000D02*
X214500000Y-125000000D01*
X183000000Y-119040000D02*
X184960000Y-121000000D01*
X214500000Y-125000000D02*
X218500000Y-121000000D01*
X182540000Y-119040000D02*
X183000000Y-119040000D01*
D20*
%TO.N,MOSFETGait1*%
X164912500Y-64000000D02*
X163412500Y-62500000D01*
X176912500Y-62566800D02*
X175479300Y-64000000D01*
X175479300Y-64000000D02*
X164912500Y-64000000D01*
D19*
%TO.N,Therm_CS*%
X179420000Y-124000000D02*
X167912500Y-124000000D01*
X182420000Y-121000000D02*
X179420000Y-124000000D01*
X167912500Y-124000000D02*
X149287500Y-105375000D01*
%TO.N,RTD_CS*%
X218912500Y-92500000D02*
X218912500Y-118047500D01*
X218412500Y-92000000D02*
X218912500Y-92500000D01*
X218412500Y-92000000D02*
X218412500Y-87079346D01*
X218912500Y-118047500D02*
X215960000Y-121000000D01*
X204913154Y-73580000D02*
X166402500Y-73580000D01*
X218412500Y-87079346D02*
X204913154Y-73580000D01*
X218912500Y-92500000D02*
X221000000Y-92500000D01*
D22*
%TO.N,/5V*%
X113662500Y-105500000D02*
X113662500Y-81840000D01*
X113662500Y-106250000D02*
X113662500Y-105500000D01*
X113662500Y-107000000D02*
X113662500Y-106250000D01*
X113662500Y-81840000D02*
X105402500Y-73580000D01*
D23*
%TO.N,DISPL_CS*%
X94949000Y-116949000D02*
X100133500Y-116949000D01*
X86500000Y-108500000D02*
X94949000Y-116949000D01*
X86500000Y-88540000D02*
X86500000Y-108500000D01*
X100133500Y-116949000D02*
X102862500Y-114220000D01*
X97000000Y-78040000D02*
X86500000Y-88540000D01*
D24*
%TO.N,DISPL_DC*%
X95340000Y-84660000D02*
X90000000Y-90000000D01*
X90000000Y-90000000D02*
X90000000Y-106000000D01*
X90000000Y-106000000D02*
X94500000Y-110500000D01*
X94500000Y-110500000D02*
X104222500Y-110500000D01*
X97000000Y-83120000D02*
X95460000Y-84660000D01*
X95460000Y-84660000D02*
X95340000Y-84660000D01*
X104222500Y-110500000D02*
X105402500Y-111680000D01*
%TO.N,DISPL_MOSI*%
X164062170Y-121243971D02*
X163903070Y-121403070D01*
X84760000Y-106483531D02*
X84000000Y-106483531D01*
X162630271Y-120130270D02*
X162630270Y-120130270D01*
X158783592Y-117697806D02*
X158698739Y-117612953D01*
X85000000Y-95500000D02*
X84000000Y-96500000D01*
X84760000Y-100483531D02*
X84000000Y-100483531D01*
X159547272Y-118122074D02*
X160084672Y-117584671D01*
X84000000Y-105283531D02*
X83240000Y-105283531D01*
X164327336Y-121827336D02*
X164486435Y-121668236D01*
X162941404Y-121516206D02*
X163478804Y-120978803D01*
X85000000Y-107323531D02*
X85000000Y-107443531D01*
X160084671Y-117584671D02*
X160243770Y-117425571D01*
X146642500Y-103500000D02*
X150571250Y-99571250D01*
X162630270Y-120130270D02*
X162789369Y-119971170D01*
X158698739Y-117273541D02*
X159066433Y-116905844D01*
X84000000Y-108283531D02*
X84240000Y-108283531D01*
X125128950Y-103500000D02*
X146642500Y-103500000D01*
X160668038Y-117849839D02*
X160508938Y-118008938D01*
X163637902Y-120501505D02*
X163531835Y-120395438D01*
X85000000Y-94750000D02*
X85000000Y-95500000D01*
X85000000Y-108523531D02*
X85000000Y-108643531D01*
X85000000Y-102523531D02*
X85000000Y-102643531D01*
X160084672Y-117584671D02*
X160084671Y-117584671D01*
X83240000Y-107083531D02*
X84000000Y-107083531D01*
X161781737Y-119281737D02*
X161940836Y-119122637D01*
X84760000Y-99283531D02*
X84000000Y-99283531D01*
X83240000Y-98683531D02*
X84000000Y-98683531D01*
X84000000Y-99283531D02*
X83240000Y-99283531D01*
X84000000Y-96500000D02*
X84000000Y-96643531D01*
X83000000Y-97123531D02*
X83000000Y-97243531D01*
X84760000Y-98083531D02*
X84000000Y-98083531D01*
X83000000Y-107923531D02*
X83000000Y-108043531D01*
X160243770Y-117107373D02*
X160137703Y-117001306D01*
X162365104Y-119546905D02*
X162206004Y-119706004D01*
X163478804Y-120978803D02*
X163478803Y-120978803D01*
X164751603Y-122251603D02*
X164214200Y-122789003D01*
X92000000Y-117500000D02*
X106412500Y-117500000D01*
X159632125Y-118546339D02*
X159547272Y-118461486D01*
X162789369Y-119652972D02*
X162683302Y-119546905D01*
X161092303Y-117955906D02*
X160986236Y-117849839D01*
X83240000Y-99883531D02*
X84000000Y-99883531D01*
X83000000Y-106723531D02*
X83000000Y-106843531D01*
X121628950Y-107000000D02*
X125128950Y-103500000D01*
X164751604Y-122251603D02*
X164751603Y-122251603D01*
X161940836Y-118804439D02*
X161834769Y-118698372D01*
X83240000Y-103483531D02*
X84000000Y-103483531D01*
X161357471Y-118857471D02*
X160820068Y-119394871D01*
X85000000Y-104923531D02*
X85000000Y-105043531D01*
X163789937Y-122364739D02*
X164327337Y-121827336D01*
X160933204Y-118433204D02*
X161092303Y-118274104D01*
X84000000Y-102283531D02*
X84760000Y-102283531D01*
X158981582Y-116481582D02*
X158642336Y-116142336D01*
X84000000Y-99883531D02*
X84760000Y-99883531D01*
X116912500Y-107000000D02*
X121628950Y-107000000D01*
X84000000Y-109123531D02*
X84000000Y-109243531D01*
X85000000Y-103723531D02*
X85000000Y-103843531D01*
X84000000Y-107683531D02*
X83240000Y-107683531D01*
X84000000Y-109500000D02*
X92000000Y-117500000D01*
X84240000Y-108283531D02*
X84760000Y-108283531D01*
X163054537Y-120554537D02*
X162517134Y-121091937D01*
X162177724Y-121091938D02*
X162092871Y-121007085D01*
X84000000Y-98083531D02*
X83240000Y-98083531D01*
X85000000Y-97723531D02*
X85000000Y-97843531D01*
X83240000Y-104683531D02*
X84000000Y-104683531D01*
X150571250Y-99928750D02*
X150571250Y-99571250D01*
X84000000Y-107083531D02*
X84760000Y-107083531D01*
X85000000Y-98923531D02*
X85000000Y-99043531D01*
X165550000Y-125300000D02*
X165550000Y-123050000D01*
X160933205Y-118433204D02*
X160933204Y-118433204D01*
X83000000Y-99523531D02*
X83000000Y-99643531D01*
X84760000Y-101683531D02*
X84000000Y-101683531D01*
X83000000Y-98323531D02*
X83000000Y-98443531D01*
X160508938Y-118008938D02*
X159971535Y-118546338D01*
X83000000Y-101923531D02*
X83000000Y-102043531D01*
X84000000Y-106483531D02*
X83240000Y-106483531D01*
X162206004Y-119706004D02*
X161668601Y-120243404D01*
X85000000Y-101323531D02*
X85000000Y-101443531D01*
X163213637Y-120395438D02*
X163054537Y-120554537D01*
X84000000Y-101683531D02*
X83240000Y-101683531D01*
X84000000Y-109243531D02*
X84000000Y-109500000D01*
X159660405Y-117160405D02*
X159490698Y-117330109D01*
X159819505Y-117001306D02*
X159660405Y-117160405D01*
X160480658Y-119394872D02*
X160395805Y-119310019D01*
X84000000Y-102883531D02*
X83240000Y-102883531D01*
X83000000Y-105523531D02*
X83000000Y-105643531D01*
X161329191Y-120243405D02*
X161244338Y-120158552D01*
X163478803Y-120978803D02*
X163637902Y-120819703D01*
X85000000Y-106123531D02*
X85000000Y-106243531D01*
X158642336Y-116142336D02*
X150500000Y-108000000D01*
X164486435Y-121350038D02*
X164380368Y-121243971D01*
X150500000Y-100000000D02*
X150571250Y-99928750D01*
X83000000Y-103123531D02*
X83000000Y-103243531D01*
X161244338Y-119819140D02*
X161781738Y-119281737D01*
X159066434Y-116566434D02*
X158981582Y-116481582D01*
X106412500Y-117500000D02*
X116912500Y-107000000D01*
X84760000Y-107683531D02*
X84000000Y-107683531D01*
X84000000Y-103483531D02*
X84760000Y-103483531D01*
X84760000Y-108883531D02*
X84240000Y-108883531D01*
X84000000Y-105883531D02*
X84760000Y-105883531D01*
X164910704Y-122092504D02*
X164751604Y-122251603D01*
X84000000Y-100483531D02*
X83240000Y-100483531D01*
X84760000Y-104083531D02*
X84000000Y-104083531D01*
X83240000Y-102283531D02*
X84000000Y-102283531D01*
X165550000Y-123050000D02*
X165334969Y-122834969D01*
X85000000Y-100123531D02*
X85000000Y-100243531D01*
X84000000Y-101083531D02*
X84760000Y-101083531D01*
X84000000Y-97483531D02*
X84760000Y-97483531D01*
X83240000Y-108283531D02*
X84000000Y-108283531D01*
X163874790Y-122789004D02*
X163789937Y-122704151D01*
X83000000Y-100723531D02*
X83000000Y-100843531D01*
X84000000Y-104083531D02*
X83240000Y-104083531D01*
X84000000Y-98683531D02*
X84760000Y-98683531D01*
X83240000Y-101083531D02*
X84000000Y-101083531D01*
X83000000Y-104323531D02*
X83000000Y-104443531D01*
X83240000Y-105883531D02*
X84000000Y-105883531D01*
X160395805Y-118970607D02*
X160933205Y-118433204D01*
X83760000Y-97483531D02*
X84000000Y-97483531D01*
X84760000Y-105283531D02*
X84000000Y-105283531D01*
X163026257Y-121940471D02*
X162941404Y-121855618D01*
X85750000Y-94000000D02*
X85000000Y-94750000D01*
X163903070Y-121403070D02*
X163365667Y-121940470D01*
X165334969Y-122198571D02*
X165228902Y-122092504D01*
X164327337Y-121827336D02*
X164327336Y-121827336D01*
X162092871Y-120667673D02*
X162630271Y-120130270D01*
X83240000Y-97483531D02*
X83760000Y-97483531D01*
X161781738Y-119281737D02*
X161781737Y-119281737D01*
X150571250Y-99571250D02*
X163862500Y-86280000D01*
X84760000Y-102883531D02*
X84000000Y-102883531D01*
X84000000Y-104683531D02*
X84760000Y-104683531D01*
X159490698Y-117330109D02*
X159123002Y-117697805D01*
X83760000Y-96883531D02*
X83240000Y-96883531D01*
X161516571Y-118698372D02*
X161357471Y-118857471D01*
X85000000Y-97843531D02*
G75*
G02*
X84760000Y-98083500I-240000J31D01*
G01*
X83240000Y-105283531D02*
G75*
G03*
X83000031Y-105523531I0J-239969D01*
G01*
X159547272Y-118461486D02*
G75*
G02*
X159547292Y-118122094I169728J169686D01*
G01*
X165228902Y-122092504D02*
G75*
G03*
X164910704Y-122092504I-159099J-159099D01*
G01*
X83000000Y-106843531D02*
G75*
G03*
X83240000Y-107083500I240000J31D01*
G01*
X161834769Y-118698372D02*
G75*
G03*
X161516571Y-118698372I-159099J-159099D01*
G01*
X164486435Y-121668236D02*
G75*
G03*
X164486472Y-121350001I-159135J159136D01*
G01*
X83240000Y-101683531D02*
G75*
G03*
X83000031Y-101923531I0J-239969D01*
G01*
X162683302Y-119546905D02*
G75*
G03*
X162365104Y-119546905I-159099J-159099D01*
G01*
X84760000Y-104683531D02*
G75*
G02*
X84999969Y-104923531I0J-239969D01*
G01*
X160243770Y-117425571D02*
G75*
G03*
X160243742Y-117107401I-159070J159071D01*
G01*
X83000000Y-100843531D02*
G75*
G03*
X83240000Y-101083500I240000J31D01*
G01*
X85000000Y-108643531D02*
G75*
G02*
X84760000Y-108883500I-240000J31D01*
G01*
X83000000Y-104443531D02*
G75*
G03*
X83240000Y-104683500I240000J31D01*
G01*
X83240000Y-99283531D02*
G75*
G03*
X83000031Y-99523531I0J-239969D01*
G01*
X164380368Y-121243971D02*
G75*
G03*
X164062170Y-121243971I-159099J-159099D01*
G01*
X158698739Y-117612953D02*
G75*
G02*
X158698692Y-117273494I169661J169753D01*
G01*
X85000000Y-106243531D02*
G75*
G02*
X84760000Y-106483500I-240000J31D01*
G01*
X84760000Y-102283531D02*
G75*
G02*
X84999969Y-102523531I0J-239969D01*
G01*
X161668601Y-120243404D02*
G75*
G02*
X161329196Y-120243401I-169701J169704D01*
G01*
X85000000Y-102643531D02*
G75*
G02*
X84760000Y-102883500I-240000J31D01*
G01*
X165334969Y-122516770D02*
G75*
G03*
X165334940Y-122198601I-159069J159070D01*
G01*
X163531835Y-120395438D02*
G75*
G03*
X163213637Y-120395438I-159099J-159099D01*
G01*
X162941404Y-121855618D02*
G75*
G02*
X162941392Y-121516194I169696J169718D01*
G01*
X163365667Y-121940470D02*
G75*
G02*
X163026296Y-121940433I-169667J169670D01*
G01*
X85000000Y-99043531D02*
G75*
G02*
X84760000Y-99283500I-240000J31D01*
G01*
X160395805Y-119310019D02*
G75*
G02*
X160395792Y-118970594I169695J169719D01*
G01*
X85000000Y-100243531D02*
G75*
G02*
X84760000Y-100483500I-240000J31D01*
G01*
X83240000Y-98083531D02*
G75*
G03*
X83000031Y-98323531I0J-239969D01*
G01*
X85000000Y-101443531D02*
G75*
G02*
X84760000Y-101683500I-240000J31D01*
G01*
X85000000Y-107443531D02*
G75*
G02*
X84760000Y-107683500I-240000J31D01*
G01*
X163637902Y-120819703D02*
G75*
G03*
X163637906Y-120501501I-159102J159103D01*
G01*
X84760000Y-98683531D02*
G75*
G02*
X84999969Y-98923531I0J-239969D01*
G01*
X159123002Y-117697805D02*
G75*
G02*
X158783596Y-117697803I-169702J169705D01*
G01*
X83000000Y-105643531D02*
G75*
G03*
X83240000Y-105883500I240000J31D01*
G01*
X83240000Y-107683531D02*
G75*
G03*
X83000031Y-107923531I0J-239969D01*
G01*
X162092871Y-121007085D02*
G75*
G02*
X162092892Y-120667694I169729J169685D01*
G01*
X84760000Y-99883531D02*
G75*
G02*
X84999969Y-100123531I0J-239969D01*
G01*
X161940836Y-119122637D02*
G75*
G03*
X161940874Y-118804401I-159136J159137D01*
G01*
X160820068Y-119394871D02*
G75*
G02*
X160480696Y-119394835I-169668J169671D01*
G01*
X165334969Y-122834969D02*
G75*
G02*
X165334999Y-122516800I159131J159069D01*
G01*
X83000000Y-108043531D02*
G75*
G03*
X83240000Y-108283500I240000J31D01*
G01*
X163789937Y-122704151D02*
G75*
G02*
X163789892Y-122364694I169663J169751D01*
G01*
X84760000Y-105883531D02*
G75*
G02*
X84999969Y-106123531I0J-239969D01*
G01*
X83240000Y-96883531D02*
G75*
G03*
X83000031Y-97123531I0J-239969D01*
G01*
X85000000Y-105043531D02*
G75*
G02*
X84760000Y-105283500I-240000J31D01*
G01*
X85000000Y-103843531D02*
G75*
G02*
X84760000Y-104083500I-240000J31D01*
G01*
X83000000Y-98443531D02*
G75*
G03*
X83240000Y-98683500I240000J31D01*
G01*
X164214200Y-122789003D02*
G75*
G02*
X163874796Y-122788999I-169700J169703D01*
G01*
X84000000Y-96643531D02*
G75*
G02*
X83760000Y-96883500I-240000J31D01*
G01*
X83240000Y-106483531D02*
G75*
G03*
X83000031Y-106723531I0J-239969D01*
G01*
X160137703Y-117001306D02*
G75*
G03*
X159819505Y-117001306I-159099J-159099D01*
G01*
X160986236Y-117849839D02*
G75*
G03*
X160668038Y-117849839I-159099J-159099D01*
G01*
X161092303Y-118274104D02*
G75*
G03*
X161092308Y-117955901I-159103J159104D01*
G01*
X83240000Y-104083531D02*
G75*
G03*
X83000031Y-104323531I0J-239969D01*
G01*
X83240000Y-102883531D02*
G75*
G03*
X83000031Y-103123531I0J-239969D01*
G01*
X84760000Y-108283531D02*
G75*
G02*
X84999969Y-108523531I0J-239969D01*
G01*
X83240000Y-100483531D02*
G75*
G03*
X83000031Y-100723531I0J-239969D01*
G01*
X84760000Y-103483531D02*
G75*
G02*
X84999969Y-103723531I0J-239969D01*
G01*
X84760000Y-107083531D02*
G75*
G02*
X84999969Y-107323531I0J-239969D01*
G01*
X159971535Y-118546338D02*
G75*
G02*
X159632096Y-118546369I-169735J169738D01*
G01*
X84240000Y-108883531D02*
G75*
G03*
X84000031Y-109123531I0J-239969D01*
G01*
X162789369Y-119971170D02*
G75*
G03*
X162789340Y-119653001I-159069J159070D01*
G01*
X83000000Y-99643531D02*
G75*
G03*
X83240000Y-99883500I240000J31D01*
G01*
X84760000Y-101083531D02*
G75*
G02*
X84999969Y-101323531I0J-239969D01*
G01*
X162517134Y-121091937D02*
G75*
G02*
X162177696Y-121091967I-169734J169737D01*
G01*
X84760000Y-97483531D02*
G75*
G02*
X84999969Y-97723531I0J-239969D01*
G01*
X83000000Y-97243531D02*
G75*
G03*
X83240000Y-97483500I240000J31D01*
G01*
X161244338Y-120158552D02*
G75*
G02*
X161244292Y-119819094I169662J169752D01*
G01*
X83000000Y-102043531D02*
G75*
G03*
X83240000Y-102283500I240000J31D01*
G01*
X159066433Y-116905844D02*
G75*
G03*
X159066473Y-116566396I-169733J169744D01*
G01*
X83000000Y-103243531D02*
G75*
G03*
X83240000Y-103483500I240000J31D01*
G01*
%TO.N,DISPL_SCK*%
X151412500Y-120000000D02*
X158050000Y-120000000D01*
X158712500Y-81200000D02*
X163862500Y-81200000D01*
X151412500Y-89000000D02*
X151412500Y-88500000D01*
X151412500Y-88500000D02*
X158712500Y-81200000D01*
X158050000Y-120000000D02*
X163350000Y-125300000D01*
%TO.N,DISPL_LED*%
X94220000Y-92280000D02*
X91087500Y-95412500D01*
X99662500Y-110000000D02*
X101673500Y-107989000D01*
X107162500Y-112460000D02*
X105402500Y-114220000D01*
X101673500Y-107989000D02*
X106151500Y-107989000D01*
X107162500Y-109000000D02*
X107162500Y-112460000D01*
X106151500Y-107989000D02*
X107162500Y-109000000D01*
X91087500Y-95412500D02*
X91087500Y-105087500D01*
X97000000Y-90740000D02*
X95460000Y-92280000D01*
X96000000Y-110000000D02*
X99662500Y-110000000D01*
X91087500Y-105087500D02*
X96000000Y-110000000D01*
X95460000Y-92280000D02*
X94220000Y-92280000D01*
D23*
%TO.N,DISPL_RST*%
X97000000Y-80580000D02*
X88500000Y-89080000D01*
X102682500Y-111500000D02*
X102862500Y-111680000D01*
X88500000Y-106500000D02*
X93500000Y-111500000D01*
X93500000Y-111500000D02*
X102682500Y-111500000D01*
X88500000Y-89080000D02*
X88500000Y-106500000D01*
D24*
%TO.N,TOUCH_MISO*%
X152912500Y-96000000D02*
X152912500Y-94690000D01*
X152912500Y-94690000D02*
X163862500Y-83740000D01*
%TO.N,WAKE*%
X142420000Y-135000000D02*
X142420000Y-123553057D01*
X162000000Y-68500000D02*
X163862500Y-68500000D01*
X156000000Y-74500000D02*
X162000000Y-68500000D01*
X152473057Y-113500000D02*
X154512500Y-113500000D01*
X142420000Y-123553057D02*
X152473057Y-113500000D01*
X156000000Y-77500000D02*
X156000000Y-74500000D01*
%TO.N,B4*%
X168362500Y-73000000D02*
X204412500Y-73000000D01*
X166402500Y-71040000D02*
X168362500Y-73000000D01*
X205662500Y-71750000D02*
X205662500Y-69000000D01*
X204412500Y-73000000D02*
X205662500Y-71750000D01*
%TO.N,B5*%
X170962500Y-90938750D02*
X171061250Y-90938750D01*
X193412500Y-95250000D02*
X197412500Y-91250000D01*
X197412500Y-91250000D02*
X205662500Y-91250000D01*
X171061250Y-90938750D02*
X175372500Y-95250000D01*
X175372500Y-95250000D02*
X193412500Y-95250000D01*
%TO.N,B6*%
X179162500Y-110112240D02*
X179162500Y-110250000D01*
X180912500Y-112000000D02*
X192000000Y-112000000D01*
X192000000Y-112000000D02*
X193250000Y-113250000D01*
X179162500Y-110250000D02*
X180912500Y-112000000D01*
X173025130Y-103974870D02*
X179162500Y-110112240D01*
X193250000Y-113250000D02*
X205662500Y-113250000D01*
%TO.N,RX*%
X147500000Y-127000000D02*
X147500000Y-123133268D01*
X147500000Y-130917438D02*
X146740000Y-130917438D01*
X146740000Y-131517438D02*
X147500000Y-131517438D01*
X147500000Y-129717438D02*
X146740000Y-129717438D01*
X147500000Y-128517438D02*
X147260000Y-128517438D01*
X147500000Y-135000000D02*
X147500000Y-132957438D01*
X148500000Y-132477438D02*
X148500000Y-132357438D01*
X147500000Y-131517438D02*
X148260000Y-131517438D01*
X146740000Y-130317438D02*
X147500000Y-130317438D01*
X146500000Y-130677438D02*
X146500000Y-130557438D01*
X147500000Y-132117438D02*
X146740000Y-132117438D01*
X146740000Y-127917438D02*
X147260000Y-127917438D01*
X147500000Y-130317438D02*
X148260000Y-130317438D01*
X148500000Y-130077438D02*
X148500000Y-129957438D01*
X148260000Y-132117438D02*
X147740000Y-132117438D01*
X147260000Y-128517438D02*
X146740000Y-128517438D01*
X146740000Y-129117438D02*
X147500000Y-129117438D01*
X146500000Y-129477438D02*
X146500000Y-129357438D01*
X147500000Y-129117438D02*
X148260000Y-129117438D01*
X147740000Y-132117438D02*
X147500000Y-132117438D01*
X148260000Y-129717438D02*
X147500000Y-129717438D01*
X147500000Y-123133268D02*
X154133268Y-116500000D01*
X148500000Y-131277438D02*
X148500000Y-131157438D01*
X148500000Y-128877438D02*
X148500000Y-128757438D01*
X154133268Y-116500000D02*
X155500000Y-116500000D01*
X146500000Y-128277438D02*
X146500000Y-128157438D01*
X147740000Y-132717438D02*
X148260000Y-132717438D01*
X147500000Y-127557438D02*
X147500000Y-127000000D01*
X146500000Y-131877438D02*
X146500000Y-131757438D01*
X148260000Y-130917438D02*
X147500000Y-130917438D01*
X148260000Y-128517438D02*
X147500000Y-128517438D01*
X147500000Y-127677438D02*
X147500000Y-127557438D01*
X146740000Y-128517438D02*
G75*
G02*
X146499962Y-128277438I0J240038D01*
G01*
X148500000Y-131157438D02*
G75*
G03*
X148260000Y-130917400I-240000J38D01*
G01*
X148260000Y-131517438D02*
G75*
G03*
X148500038Y-131277438I0J240038D01*
G01*
X148500000Y-129957438D02*
G75*
G03*
X148260000Y-129717400I-240000J38D01*
G01*
X148500000Y-132357438D02*
G75*
G03*
X148260000Y-132117400I-240000J38D01*
G01*
X147500000Y-132957438D02*
G75*
G02*
X147740000Y-132717400I240000J38D01*
G01*
X146500000Y-129357438D02*
G75*
G02*
X146740000Y-129117400I240000J38D01*
G01*
X147260000Y-127917438D02*
G75*
G03*
X147500038Y-127677438I0J240038D01*
G01*
X148260000Y-129117438D02*
G75*
G03*
X148500038Y-128877438I0J240038D01*
G01*
X146500000Y-131757438D02*
G75*
G02*
X146740000Y-131517400I240000J38D01*
G01*
X146740000Y-130917438D02*
G75*
G02*
X146499962Y-130677438I0J240038D01*
G01*
X146740000Y-132117438D02*
G75*
G02*
X146499962Y-131877438I0J240038D01*
G01*
X146500000Y-130557438D02*
G75*
G02*
X146740000Y-130317400I240000J38D01*
G01*
X148260000Y-132717438D02*
G75*
G03*
X148500038Y-132477438I0J240038D01*
G01*
X148500000Y-128757438D02*
G75*
G03*
X148260000Y-128517400I-240000J38D01*
G01*
X146740000Y-129717438D02*
G75*
G02*
X146499962Y-129477438I0J240038D01*
G01*
X148260000Y-130317438D02*
G75*
G03*
X148500038Y-130077438I0J240038D01*
G01*
X146500000Y-128157438D02*
G75*
G02*
X146740000Y-127917400I240000J38D01*
G01*
%TO.N,B3*%
X165251500Y-107989000D02*
X166402500Y-109140000D01*
X163401500Y-107989000D02*
X165251500Y-107989000D01*
X159912500Y-104500000D02*
X163401500Y-107989000D01*
X84837500Y-118750000D02*
X79337500Y-113250000D01*
X120912500Y-109000000D02*
X125412500Y-104500000D01*
X118912500Y-109000000D02*
X120912500Y-109000000D01*
X125412500Y-104500000D02*
X159912500Y-104500000D01*
X109162500Y-118750000D02*
X118912500Y-109000000D01*
X109162500Y-118750000D02*
X84837500Y-118750000D01*
%TO.N,B2*%
X99000000Y-94500000D02*
X100709000Y-96209000D01*
X95500000Y-94500000D02*
X99000000Y-94500000D01*
X100709000Y-96209000D02*
X102631500Y-96209000D01*
%TO.N,TX*%
X144960000Y-124540000D02*
X155000000Y-114500000D01*
X144960000Y-135000000D02*
X144960000Y-124540000D01*
%TO.N,SD_CS*%
X170500000Y-109500000D02*
X170000000Y-109000000D01*
X170000000Y-109000000D02*
X170000000Y-76000000D01*
X170000000Y-76000000D02*
X169500000Y-75500000D01*
D19*
%TO.N,HeaterPre*%
X203500000Y-50000000D02*
X202725000Y-49225000D01*
X202725000Y-49225000D02*
X202725000Y-46500000D01*
X203500000Y-51000000D02*
X203500000Y-50000000D01*
%TD*%
M02*
