%TF.GenerationSoftware,KiCad,Pcbnew,9.0.1*%
%TF.CreationDate,2026-01-28T18:49:11-04:00*%
%TF.ProjectId,power regulation,706f7765-7220-4726-9567-756c6174696f,1*%
%TF.SameCoordinates,Original*%
%TF.FileFunction,Paste,Top*%
%TF.FilePolarity,Positive*%
%FSLAX46Y46*%
G04 Gerber Fmt 4.6, Leading zero omitted, Abs format (unit mm)*
G04 Created by KiCad (PCBNEW 9.0.1) date 2026-01-28 18:49:11*
%MOMM*%
%LPD*%
G01*
G04 APERTURE LIST*
G04 Aperture macros list*
%AMRoundRect*
0 Rectangle with rounded corners*
0 $1 Rounding radius*
0 $2 $3 $4 $5 $6 $7 $8 $9 X,Y pos of 4 corners*
0 Add a 4 corners polygon primitive as box body*
4,1,4,$2,$3,$4,$5,$6,$7,$8,$9,$2,$3,0*
0 Add four circle primitives for the rounded corners*
1,1,$1+$1,$2,$3*
1,1,$1+$1,$4,$5*
1,1,$1+$1,$6,$7*
1,1,$1+$1,$8,$9*
0 Add four rect primitives between the rounded corners*
20,1,$1+$1,$2,$3,$4,$5,0*
20,1,$1+$1,$4,$5,$6,$7,0*
20,1,$1+$1,$6,$7,$8,$9,0*
20,1,$1+$1,$8,$9,$2,$3,0*%
G04 Aperture macros list end*
%ADD10C,0.010000*%
%ADD11R,1.803400X1.117600*%
%ADD12RoundRect,0.250000X0.450000X-0.350000X0.450000X0.350000X-0.450000X0.350000X-0.450000X-0.350000X0*%
%ADD13RoundRect,0.250000X-0.475000X0.337500X-0.475000X-0.337500X0.475000X-0.337500X0.475000X0.337500X0*%
%ADD14R,0.584200X1.473200*%
%ADD15RoundRect,0.250000X-0.750000X-2.510000X0.750000X-2.510000X0.750000X2.510000X-0.750000X2.510000X0*%
%ADD16R,1.168400X2.692400*%
%ADD17RoundRect,0.150000X0.450000X0.760000X-0.450000X0.760000X-0.450000X-0.760000X0.450000X-0.760000X0*%
%ADD18R,1.770000X1.050000*%
%ADD19R,1.050000X1.770000*%
%ADD20RoundRect,0.249999X1.425001X-0.450001X1.425001X0.450001X-1.425001X0.450001X-1.425001X-0.450001X0*%
%ADD21R,2.300000X1.250000*%
%ADD22RoundRect,0.250000X2.510000X-0.750000X2.510000X0.750000X-2.510000X0.750000X-2.510000X-0.750000X0*%
%ADD23RoundRect,0.250000X-0.350000X-0.450000X0.350000X-0.450000X0.350000X0.450000X-0.350000X0.450000X0*%
%ADD24R,0.508000X1.320800*%
%ADD25R,1.117600X1.803400*%
%ADD26RoundRect,0.150000X-0.760000X0.450000X-0.760000X-0.450000X0.760000X-0.450000X0.760000X0.450000X0*%
%ADD27RoundRect,0.145000X-0.435000X-0.740000X0.435000X-0.740000X0.435000X0.740000X-0.435000X0.740000X0*%
%ADD28R,1.770000X1.140000*%
%ADD29R,1.650000X0.700000*%
%ADD30RoundRect,0.040000X0.380000X0.120000X-0.380000X0.120000X-0.380000X-0.120000X0.380000X-0.120000X0*%
%ADD31RoundRect,0.040000X0.120000X0.380000X-0.120000X0.380000X-0.120000X-0.380000X0.120000X-0.380000X0*%
%ADD32RoundRect,0.250000X0.475000X-0.337500X0.475000X0.337500X-0.475000X0.337500X-0.475000X-0.337500X0*%
%ADD33RoundRect,0.145000X0.435000X0.740000X-0.435000X0.740000X-0.435000X-0.740000X0.435000X-0.740000X0*%
%ADD34RoundRect,0.249999X-0.450001X-1.425001X0.450001X-1.425001X0.450001X1.425001X-0.450001X1.425001X0*%
%ADD35R,0.700000X1.200000*%
%ADD36RoundRect,0.250000X0.337500X0.475000X-0.337500X0.475000X-0.337500X-0.475000X0.337500X-0.475000X0*%
%ADD37R,1.770000X1.130000*%
%ADD38RoundRect,0.250000X-0.450000X0.350000X-0.450000X-0.350000X0.450000X-0.350000X0.450000X0.350000X0*%
%ADD39R,0.250000X0.700000*%
%ADD40R,0.700000X0.250000*%
%ADD41R,1.125000X1.125000*%
%ADD42R,0.375000X0.375000*%
%ADD43R,0.254000X0.812800*%
%ADD44R,2.483491X1.558110*%
%ADD45RoundRect,0.150000X0.760000X-0.450000X0.760000X0.450000X-0.760000X0.450000X-0.760000X-0.450000X0*%
%ADD46RoundRect,0.051250X-0.153750X0.698750X-0.153750X-0.698750X0.153750X-0.698750X0.153750X0.698750X0*%
%ADD47RoundRect,0.150000X-0.450000X-0.760000X0.450000X-0.760000X0.450000X0.760000X-0.450000X0.760000X0*%
%ADD48R,2.590800X7.289800*%
G04 APERTURE END LIST*
D10*
%TO.C,MAX31865*%
X225530000Y-93530000D02*
X223470000Y-93530000D01*
X223470000Y-91470000D01*
X225530000Y-91470000D01*
X225530000Y-93530000D01*
G36*
X225530000Y-93530000D02*
G01*
X223470000Y-93530000D01*
X223470000Y-91470000D01*
X225530000Y-91470000D01*
X225530000Y-93530000D01*
G37*
%TO.C,U2*%
X133037500Y-84808000D02*
X133037500Y-85650000D01*
X131912500Y-85650000D01*
X131912500Y-84525000D01*
X132754500Y-84525000D01*
X133037500Y-84808000D01*
G36*
X133037500Y-84808000D02*
G01*
X133037500Y-85650000D01*
X131912500Y-85650000D01*
X131912500Y-84525000D01*
X132754500Y-84525000D01*
X133037500Y-84808000D01*
G37*
%TO.C,U1*%
X133084500Y-116865500D02*
X133084500Y-117707500D01*
X131959500Y-117707500D01*
X131959500Y-116582500D01*
X132801500Y-116582500D01*
X133084500Y-116865500D01*
G36*
X133084500Y-116865500D02*
G01*
X133084500Y-117707500D01*
X131959500Y-117707500D01*
X131959500Y-116582500D01*
X132801500Y-116582500D01*
X133084500Y-116865500D01*
G37*
%TD*%
D11*
%TO.C,C26*%
X139912500Y-80001400D03*
X139912500Y-82998600D03*
%TD*%
D12*
%TO.C,RB2*%
X79337500Y-96250000D03*
X79337500Y-94250000D03*
%TD*%
D13*
%TO.C,C40*%
X229912500Y-97462500D03*
X229912500Y-99537500D03*
%TD*%
D14*
%TO.C,M1*%
X177862501Y-53933200D03*
X175962499Y-53933200D03*
X176912500Y-56066800D03*
%TD*%
D15*
%TO.C,C3*%
X120290000Y-98000000D03*
X125500000Y-98000000D03*
%TD*%
D16*
%TO.C,L1*%
X124932700Y-117557500D03*
X121986300Y-117557500D03*
%TD*%
D17*
%TO.C,C13*%
X133419500Y-123057500D03*
X130499500Y-123057500D03*
%TD*%
D18*
%TO.C,R23*%
X142912500Y-82970000D03*
X142912500Y-80000000D03*
%TD*%
D19*
%TO.C,R32*%
X129647500Y-62750000D03*
X126677500Y-62750000D03*
%TD*%
D20*
%TO.C,Rref*%
X206500000Y-59550000D03*
X206500000Y-53450000D03*
%TD*%
D21*
%TO.C,R11*%
X136959500Y-122057500D03*
X136959500Y-125507500D03*
%TD*%
D22*
%TO.C,C31*%
X143162500Y-57355000D03*
X143162500Y-52145000D03*
%TD*%
D11*
%TO.C,C16*%
X139959500Y-112558900D03*
X139959500Y-115556100D03*
%TD*%
D23*
%TO.C,R_sink3*%
X189412500Y-48000000D03*
X191412500Y-48000000D03*
%TD*%
D24*
%TO.C,D2*%
X181412500Y-56806200D03*
X181412500Y-59193800D03*
%TD*%
D12*
%TO.C,R_sink2*%
X159912500Y-75500000D03*
X159912500Y-73500000D03*
%TD*%
D13*
%TO.C,C35*%
X182912500Y-88462500D03*
X182912500Y-90537500D03*
%TD*%
D25*
%TO.C,C32*%
X129661100Y-66250000D03*
X126663900Y-66250000D03*
%TD*%
D26*
%TO.C,C17*%
X132959500Y-110597500D03*
X132959500Y-113517500D03*
%TD*%
D27*
%TO.C,C29*%
X125047000Y-82000000D03*
X127953000Y-82000000D03*
%TD*%
D28*
%TO.C,R31*%
X126162500Y-51810000D03*
X126162500Y-54690000D03*
%TD*%
D29*
%TO.C,Relays*%
X185987500Y-50690000D03*
X185987500Y-53230000D03*
X185987500Y-55770000D03*
X185987500Y-58310000D03*
X194837500Y-58310000D03*
X194837500Y-55770000D03*
X194837500Y-53230000D03*
X194837500Y-50690000D03*
%TD*%
D30*
%TO.C,MAX31865*%
X226935000Y-93800000D03*
X226935000Y-93150000D03*
X226935000Y-92500000D03*
X226935000Y-91850000D03*
X226935000Y-91200000D03*
D31*
X225800000Y-90065000D03*
X225150000Y-90065000D03*
X224500000Y-90065000D03*
X223850000Y-90065000D03*
X223200000Y-90065000D03*
D30*
X222065000Y-91200000D03*
X222065000Y-91850000D03*
X222065000Y-92500000D03*
X222065000Y-93150000D03*
X222065000Y-93800000D03*
D31*
X223200000Y-94935000D03*
X223850000Y-94935000D03*
X224500000Y-94935000D03*
X225150000Y-94935000D03*
X225800000Y-94935000D03*
%TD*%
D32*
%TO.C,C39*%
X232412500Y-99537500D03*
X232412500Y-97462500D03*
%TD*%
D33*
%TO.C,C33*%
X135615500Y-59750000D03*
X132709500Y-59750000D03*
%TD*%
D34*
%TO.C,Rh2*%
X197000000Y-58500000D03*
X203100000Y-58500000D03*
%TD*%
D18*
%TO.C,R13*%
X142959500Y-115541100D03*
X142959500Y-112571100D03*
%TD*%
D33*
%TO.C,C25*%
X139750000Y-87000000D03*
X136844000Y-87000000D03*
%TD*%
D35*
%TO.C,SD_Reader*%
X167750000Y-125300000D03*
X166650000Y-125300000D03*
X165550000Y-125300000D03*
X164450000Y-125300000D03*
X163350000Y-125300000D03*
X162250000Y-125300000D03*
X161150000Y-125300000D03*
X160050000Y-125300000D03*
X158950000Y-125300000D03*
%TD*%
D13*
%TO.C,C30*%
X183000000Y-98962500D03*
X183000000Y-101037500D03*
%TD*%
%TO.C,C36*%
X187012500Y-83692500D03*
X187012500Y-85767500D03*
%TD*%
D34*
%TO.C,Rh1*%
X197000000Y-53500000D03*
X203100000Y-53500000D03*
%TD*%
D36*
%TO.C,C37*%
X189050000Y-89230000D03*
X186975000Y-89230000D03*
%TD*%
D12*
%TO.C,RB1*%
X79337500Y-73500000D03*
X79337500Y-71500000D03*
%TD*%
D16*
%TO.C,L2*%
X125000000Y-85500000D03*
X122053600Y-85500000D03*
%TD*%
D37*
%TO.C,R33*%
X126162500Y-59670000D03*
X126162500Y-56830000D03*
%TD*%
D38*
%TO.C,Rref*%
X232412500Y-91000000D03*
X232412500Y-93000000D03*
%TD*%
D39*
%TO.C,U2*%
X133062500Y-83850000D03*
X132562500Y-83850000D03*
X132062500Y-83850000D03*
X131562500Y-83850000D03*
X131062500Y-83850000D03*
X130562500Y-83850000D03*
D40*
X129912500Y-84500000D03*
X129912500Y-85000000D03*
X129912500Y-85500000D03*
X129912500Y-86000000D03*
X129912500Y-86500000D03*
X129912500Y-87000000D03*
D39*
X130562500Y-87650000D03*
X131062500Y-87650000D03*
X131562500Y-87650000D03*
X132062500Y-87650000D03*
X132562500Y-87650000D03*
X133062500Y-87650000D03*
D40*
X133712500Y-87000000D03*
X133712500Y-86500000D03*
X133712500Y-86000000D03*
X133712500Y-85500000D03*
X133712500Y-85000000D03*
X133712500Y-84500000D03*
D41*
X132475000Y-86412500D03*
X131150000Y-85087500D03*
X131150000Y-86412500D03*
D42*
X133625000Y-83937500D03*
X133625000Y-87562500D03*
X130000000Y-83937500D03*
X130000000Y-87562500D03*
%TD*%
D43*
%TO.C,U3*%
X131709500Y-54250000D03*
X131209498Y-54250000D03*
X130709499Y-54250000D03*
X130209500Y-54250000D03*
X129709498Y-54250000D03*
X129709498Y-57145600D03*
X130209500Y-57145600D03*
X130709499Y-57145600D03*
X131209498Y-57145600D03*
X131709500Y-57145600D03*
D44*
X130706647Y-55677906D03*
%TD*%
D45*
%TO.C,C34*%
X132162500Y-65710000D03*
X132162500Y-62790000D03*
%TD*%
D15*
%TO.C,C28*%
X120395000Y-91000000D03*
X125605000Y-91000000D03*
%TD*%
D17*
%TO.C,C23*%
X133460000Y-91000000D03*
X130540000Y-91000000D03*
%TD*%
D18*
%TO.C,R12*%
X136959500Y-112571100D03*
X136959500Y-115541100D03*
%TD*%
D26*
%TO.C,C27*%
X133000000Y-78500000D03*
X133000000Y-81420000D03*
%TD*%
D27*
%TO.C,C7*%
X131209500Y-47750000D03*
X134115500Y-47750000D03*
%TD*%
D12*
%TO.C,RB3*%
X79337500Y-118000000D03*
X79337500Y-116000000D03*
%TD*%
%TO.C,RB4*%
X202162500Y-71250000D03*
X202162500Y-69250000D03*
%TD*%
D27*
%TO.C,C19*%
X125006500Y-114057500D03*
X127912500Y-114057500D03*
%TD*%
D46*
%TO.C,MAX31856*%
X189362500Y-92615000D03*
X188712500Y-92615000D03*
X188062500Y-92615000D03*
X187412500Y-92615000D03*
X186762500Y-92615000D03*
X186112500Y-92615000D03*
X185462500Y-92615000D03*
X185462500Y-98385000D03*
X186112500Y-98385000D03*
X186762500Y-98385000D03*
X187412500Y-98385000D03*
X188062500Y-98385000D03*
X188712500Y-98385000D03*
X189362500Y-98385000D03*
%TD*%
D21*
%TO.C,R21*%
X137000000Y-90000000D03*
X137000000Y-93450000D03*
%TD*%
D33*
%TO.C,C15*%
X139912500Y-119057500D03*
X137006500Y-119057500D03*
%TD*%
D12*
%TO.C,RB5*%
X205412500Y-96000000D03*
X205412500Y-94000000D03*
%TD*%
D22*
%TO.C,C4*%
X150162500Y-57355000D03*
X150162500Y-52145000D03*
%TD*%
D47*
%TO.C,C1*%
X131249500Y-50750000D03*
X134169500Y-50750000D03*
%TD*%
D27*
%TO.C,C6*%
X130547000Y-94000000D03*
X133453000Y-94000000D03*
%TD*%
D15*
%TO.C,C2*%
X120354500Y-130057500D03*
X125564500Y-130057500D03*
%TD*%
D14*
%TO.C,M2*%
X177862501Y-60433200D03*
X175962499Y-60433200D03*
X176912500Y-62566800D03*
%TD*%
D38*
%TO.C,RB6*%
X202162500Y-111500000D03*
X202162500Y-113500000D03*
%TD*%
D18*
%TO.C,R22*%
X136912500Y-80015000D03*
X136912500Y-82985000D03*
%TD*%
D12*
%TO.C,R_sink1*%
X171912500Y-82000000D03*
X171912500Y-80000000D03*
%TD*%
D36*
%TO.C,C41*%
X225450000Y-86000000D03*
X223375000Y-86000000D03*
%TD*%
D48*
%TO.C,L3*%
X137313000Y-65250000D03*
X142012000Y-65250000D03*
%TD*%
D24*
%TO.C,D1*%
X181412500Y-50306200D03*
X181412500Y-52693800D03*
%TD*%
D15*
%TO.C,C18*%
X120354500Y-123057500D03*
X125564500Y-123057500D03*
%TD*%
D32*
%TO.C,C38*%
X189512500Y-85767500D03*
X189512500Y-83692500D03*
%TD*%
D27*
%TO.C,C5*%
X130506500Y-126057500D03*
X133412500Y-126057500D03*
%TD*%
D39*
%TO.C,U1*%
X133109500Y-115907500D03*
X132609500Y-115907500D03*
X132109500Y-115907500D03*
X131609500Y-115907500D03*
X131109500Y-115907500D03*
X130609500Y-115907500D03*
D40*
X129959500Y-116557500D03*
X129959500Y-117057500D03*
X129959500Y-117557500D03*
X129959500Y-118057500D03*
X129959500Y-118557500D03*
X129959500Y-119057500D03*
D39*
X130609500Y-119707500D03*
X131109500Y-119707500D03*
X131609500Y-119707500D03*
X132109500Y-119707500D03*
X132609500Y-119707500D03*
X133109500Y-119707500D03*
D40*
X133759500Y-119057500D03*
X133759500Y-118557500D03*
X133759500Y-118057500D03*
X133759500Y-117557500D03*
X133759500Y-117057500D03*
X133759500Y-116557500D03*
D41*
X132522000Y-118470000D03*
X131197000Y-117145000D03*
X131197000Y-118470000D03*
D42*
X133672000Y-115995000D03*
X133672000Y-119620000D03*
X130047000Y-115995000D03*
X130047000Y-119620000D03*
%TD*%
M02*
