M48
; DRILL file {KiCad 9.0.7} date 2026-02-03T01:53:09-0400
; FORMAT={-:-/ absolute / metric / decimal}
; #@! TF.CreationDate,2026-02-03T01:53:09-04:00
; #@! TF.GenerationSoftware,Kicad,Pcbnew,9.0.7
; #@! TF.FileFunction,Plated,1,4,PTH
FMAT,2
METRIC
; #@! TA.AperFunction,Plated,PTH,ViaDrill
T1C0.300
; #@! TA.AperFunction,Plated,PTH,ComponentDrill
T2C0.450
; #@! TA.AperFunction,Plated,PTH,ComponentDrill
T3C0.550
; #@! TA.AperFunction,Plated,PTH,ComponentDrill
T4C1.000
; #@! TA.AperFunction,Plated,PTH,ComponentDrill
T5C1.067
%
G90
G05
T1
X79.337Y-73.5
X79.337Y-96.25
X79.337Y-118.0
X85.125Y-94.625
X92.135Y-57.735
X94.385Y-57.735
X94.5Y-95.5
X96.635Y-57.735
X102.412Y-122.75
X102.912Y-49.0
X102.912Y-51.5
X103.662Y-121.5
X104.412Y-49.0
X104.412Y-51.5
X104.912Y-120.25
X105.873Y-51.5
X105.912Y-49.0
X113.662Y-105.5
X113.662Y-106.25
X113.662Y-107.0
X116.959Y-113.557
X116.959Y-116.057
X116.959Y-118.557
X116.959Y-125.557
X116.959Y-127.557
X116.959Y-129.558
X116.959Y-131.558
X116.959Y-133.558
X116.959Y-135.558
X117.0Y-85.25
X117.0Y-88.0
X117.0Y-90.75
X117.0Y-93.25
X117.0Y-95.75
X117.0Y-98.25
X117.0Y-100.75
X117.0Y-103.0
X118.75Y-103.0
X118.912Y-89.0
X118.912Y-90.5
X118.912Y-92.0
X118.912Y-93.5
X118.959Y-113.557
X118.959Y-135.558
X119.162Y-84.5
X119.162Y-85.75
X119.162Y-86.75
X119.162Y-87.5
X120.25Y-103.0
X120.959Y-135.558
X121.25Y-79.25
X121.459Y-110.557
X121.75Y-103.0
X122.662Y-58.855
X122.662Y-60.855
X122.662Y-62.855
X122.662Y-64.855
X122.662Y-66.855
X122.662Y-68.855
X122.959Y-135.558
X123.25Y-103.0
X123.959Y-108.057
X124.0Y-76.75
X124.662Y-54.75
X124.662Y-56.75
X124.662Y-69.855
X125.959Y-135.558
X126.063Y-73.605
X126.412Y-46.5
X126.412Y-49.5
X126.459Y-111.057
X126.75Y-79.0
X127.162Y-69.855
X127.459Y-119.557
X127.459Y-120.557
X127.459Y-121.557
X127.459Y-122.557
X127.459Y-123.557
X127.459Y-124.557
X127.459Y-125.557
X127.459Y-127.057
X127.459Y-128.058
X127.459Y-129.058
X127.459Y-130.058
X127.459Y-131.058
X127.459Y-132.058
X127.459Y-133.058
X127.5Y-87.5
X127.5Y-88.5
X127.5Y-89.5
X127.5Y-90.5
X127.5Y-91.5
X127.5Y-92.5
X127.5Y-93.5
X127.5Y-95.0
X127.5Y-96.0
X127.5Y-97.0
X127.5Y-98.0
X127.5Y-99.0
X127.5Y-100.0
X127.5Y-101.0
X128.0Y-77.5
X128.063Y-73.605
X128.162Y-54.75
X128.162Y-55.75
X128.459Y-109.057
X128.959Y-122.057
X128.959Y-123.057
X128.959Y-124.057
X128.959Y-125.057
X128.959Y-126.057
X128.959Y-127.557
X129.0Y-90.0
X129.0Y-91.0
X129.0Y-92.0
X129.0Y-93.0
X129.0Y-94.0
X129.0Y-95.5
X129.412Y-106.0
X129.459Y-121.057
X129.459Y-129.558
X129.5Y-89.0
X129.5Y-97.5
X129.662Y-46.25
X129.662Y-47.75
X129.662Y-48.75
X129.662Y-50.25
X129.662Y-51.25
X129.662Y-52.25
X129.662Y-55.25
X129.737Y-56.006
X129.75Y-79.0
X129.959Y-111.057
X129.959Y-113.557
X129.959Y-114.557
X130.0Y-81.25
X130.0Y-82.25
X130.063Y-73.605
X130.162Y-70.855
X130.459Y-121.057
X130.5Y-89.0
X130.709Y-55.698
X130.748Y-85.246
X130.82Y-86.02
X130.912Y-113.25
X130.918Y-116.841
X130.952Y-86.705
X130.959Y-114.25
X130.959Y-118.057
X130.99Y-118.714
X131.0Y-81.25
X131.0Y-82.25
X131.038Y-117.452
X131.239Y-84.842
X131.405Y-85.424
X131.459Y-129.558
X131.5Y-86.0
X131.5Y-97.5
X131.556Y-118.327
X131.599Y-117.767
X131.615Y-67.25
X131.615Y-68.25
X131.849Y-86.661
X131.951Y-118.778
X131.959Y-109.057
X132.0Y-77.0
X132.012Y-55.25
X132.012Y-56.0
X132.061Y-85.46
X132.062Y-84.815
X132.063Y-73.605
X132.079Y-116.87
X132.081Y-86.064
X132.167Y-117.447
X132.218Y-118.028
X132.587Y-86.695
X132.615Y-67.25
X132.615Y-68.25
X132.728Y-116.918
X132.748Y-85.419
X132.774Y-84.815
X132.794Y-118.72
X132.798Y-86.027
X132.824Y-118.039
X132.912Y-106.0
X132.958Y-117.443
X132.959Y-109.057
X132.959Y-129.558
X133.0Y-77.0
X133.0Y-97.5
X133.459Y-121.557
X133.459Y-127.557
X133.5Y-89.5
X133.5Y-95.5
X133.959Y-109.057
X134.0Y-77.0
X134.063Y-73.605
X134.459Y-121.557
X134.662Y-45.75
X134.75Y-89.5
X134.959Y-124.057
X134.959Y-125.057
X135.0Y-92.0
X135.0Y-93.0
X135.162Y-53.25
X135.162Y-54.25
X135.162Y-55.25
X135.162Y-56.25
X135.662Y-47.25
X135.662Y-50.25
X136.063Y-73.605
X136.162Y-53.25
X136.162Y-54.25
X136.162Y-55.25
X136.162Y-56.25
X137.162Y-53.25
X137.162Y-54.25
X137.162Y-55.25
X137.162Y-56.25
X137.662Y-48.25
X137.662Y-49.25
X137.662Y-50.25
X137.912Y-76.0
X137.959Y-107.057
X138.459Y-127.557
X138.5Y-95.75
X138.662Y-48.25
X138.662Y-49.25
X138.662Y-50.25
X139.459Y-126.557
X139.459Y-127.557
X139.459Y-128.558
X139.5Y-94.75
X139.5Y-95.75
X139.5Y-97.0
X139.797Y-88.5
X139.912Y-77.0
X139.959Y-120.557
X140.412Y-108.75
X141.297Y-86.5
X141.297Y-87.5
X141.297Y-88.5
X141.459Y-118.557
X141.459Y-119.557
X141.459Y-120.557
X141.615Y-48.75
X141.615Y-49.75
X142.615Y-48.75
X142.615Y-49.75
X142.75Y-78.5
X142.959Y-111.057
X143.25Y-85.75
X143.459Y-118.057
X143.75Y-78.5
X143.959Y-111.057
X144.162Y-71.855
X144.615Y-48.75
X144.615Y-49.75
X144.75Y-79.25
X144.75Y-85.75
X144.959Y-111.557
X144.959Y-118.057
X145.615Y-48.75
X145.615Y-49.75
X145.709Y-114.562
X145.709Y-116.562
X145.912Y-82.0
X145.912Y-84.0
X147.412Y-71.855
X148.162Y-48.75
X148.162Y-49.75
X149.162Y-48.75
X149.162Y-49.75
X149.706Y-105.794
X150.5Y-108.0
X150.571Y-99.571
X151.162Y-48.75
X151.162Y-49.75
X151.162Y-71.855
X151.412Y-89.0
X151.412Y-120.0
X152.162Y-48.75
X152.162Y-49.75
X152.912Y-96.0
X154.412Y-71.0
X154.512Y-113.5
X154.912Y-64.355
X154.912Y-68.0
X155.0Y-115.5
X155.5Y-117.0
X155.662Y-56.355
X156.0Y-77.5
X162.25Y-125.3
X163.35Y-125.3
X163.412Y-62.5
X164.45Y-125.3
X165.55Y-125.3
X168.452Y-59.5
X168.452Y-61.0
X168.452Y-62.46
X169.5Y-75.5
X170.5Y-109.5
X170.952Y-59.5
X170.952Y-61.0
X170.952Y-62.5
X170.963Y-90.939
X173.025Y-103.975
X175.912Y-52.0
X175.912Y-59.0
X176.912Y-62.567
X177.34Y-117.0
X181.5Y-112.0
X181.5Y-117.0
X182.5Y-119.0
X182.912Y-87.0
X182.912Y-90.537
X183.0Y-98.962
X183.1Y-102.73
X187.0Y-102.5
X187.012Y-82.23
X187.412Y-100.0
X189.0Y-102.5
X189.512Y-82.23
X190.0Y-104.5
X190.512Y-92.23
X190.512Y-98.73
X202.162Y-71.25
X202.162Y-111.5
X203.5Y-51.0
X205.412Y-96.0
X205.5Y-50.5
X218.0Y-111.5
X219.0Y-125.5
X220.051Y-96.5
X221.0Y-92.5
X221.0Y-94.0
X223.2Y-89.227
X225.5Y-88.0
X226.5Y-89.5
X229.912Y-97.462
X229.912Y-101.0
X232.412Y-97.462
X232.412Y-101.0
T4
X72.837Y-64.5
X72.837Y-69.0
X72.837Y-86.75
X72.837Y-91.25
X72.837Y-108.75
X72.837Y-113.25
X79.337Y-64.5
X79.337Y-69.0
X79.337Y-86.75
X79.337Y-91.25
X79.337Y-108.75
X79.337Y-113.25
X85.385Y-57.735
X85.385Y-60.275
X97.0Y-72.96
X97.0Y-75.5
X97.0Y-78.04
X97.0Y-80.58
X97.0Y-83.12
X97.0Y-85.66
X97.0Y-88.2
X97.0Y-90.74
X97.0Y-93.28
X97.0Y-95.82
X97.0Y-98.36
X97.0Y-100.9
X97.0Y-103.44
X97.0Y-105.98
X97.912Y-124.5
X97.912Y-127.04
X98.412Y-49.0
X98.412Y-51.54
X102.862Y-68.5
X102.862Y-71.04
X102.862Y-73.58
X102.862Y-76.12
X102.862Y-78.66
X102.862Y-81.2
X102.862Y-83.74
X102.862Y-86.28
X102.862Y-88.82
X102.862Y-91.36
X102.862Y-93.9
X102.862Y-96.44
X102.862Y-98.98
X102.862Y-101.52
X102.862Y-104.06
X102.862Y-106.6
X102.862Y-109.14
X102.862Y-111.68
X102.862Y-114.22
X105.402Y-68.5
X105.402Y-71.04
X105.402Y-73.58
X105.402Y-76.12
X105.402Y-78.66
X105.402Y-81.2
X105.402Y-83.74
X105.402Y-86.28
X105.402Y-88.82
X105.402Y-91.36
X105.402Y-93.9
X105.402Y-96.44
X105.402Y-98.98
X105.402Y-101.52
X105.402Y-104.06
X105.402Y-106.6
X105.402Y-109.14
X105.402Y-111.68
X105.402Y-114.22
X142.42Y-135.0
X144.96Y-135.0
X147.5Y-135.0
X150.04Y-135.0
X152.58Y-135.0
X163.862Y-68.5
X163.862Y-71.04
X163.862Y-73.58
X163.862Y-76.12
X163.862Y-78.66
X163.862Y-81.2
X163.862Y-83.74
X163.862Y-86.28
X163.862Y-88.82
X163.862Y-91.36
X163.862Y-93.9
X163.862Y-96.44
X163.862Y-98.98
X163.862Y-101.52
X163.862Y-104.06
X163.862Y-106.6
X163.862Y-109.14
X163.862Y-111.68
X163.862Y-114.22
X166.403Y-68.5
X166.403Y-71.04
X166.403Y-73.58
X166.403Y-76.12
X166.403Y-78.66
X166.403Y-81.2
X166.403Y-83.74
X166.403Y-86.28
X166.403Y-88.82
X166.403Y-91.36
X166.403Y-93.9
X166.403Y-96.44
X166.403Y-98.98
X166.403Y-101.52
X166.403Y-104.06
X166.403Y-106.6
X166.403Y-109.14
X166.403Y-111.68
X166.403Y-114.22
X168.412Y-55.0
X170.952Y-55.0
X177.34Y-121.0
X179.88Y-121.0
X182.42Y-121.0
X184.96Y-121.0
X186.088Y-70.0
X187.5Y-121.0
X188.627Y-70.0
X190.04Y-121.0
X192.58Y-121.0
X195.12Y-121.0
X197.66Y-121.0
X202.725Y-46.5
X205.265Y-46.5
X205.662Y-64.5
X205.662Y-69.0
X205.662Y-86.75
X205.662Y-91.25
X205.662Y-108.75
X205.662Y-113.25
X212.162Y-64.5
X212.162Y-69.0
X212.162Y-86.75
X212.162Y-91.25
X212.162Y-108.75
X212.162Y-113.25
X213.42Y-121.0
X215.96Y-121.0
X218.5Y-121.0
X221.04Y-121.0
X223.332Y-68.5
X223.58Y-121.0
X225.873Y-68.5
X226.12Y-121.0
X228.412Y-68.5
X228.66Y-121.0
X231.2Y-121.0
T5
X212.573Y-51.564
X212.573Y-54.564
X215.573Y-51.564
X215.573Y-54.564
X218.573Y-51.564
X218.573Y-54.564
X221.573Y-51.564
X221.573Y-54.564
X224.573Y-51.564
X224.573Y-54.564
T2
G00X157.3Y-134.725
M15
G01X157.3Y-136.375
M16
G05
G00X173.7Y-134.725
M15
G01X173.7Y-136.375
M16
G05
T3
G00X157.0Y-126.25
M15
G01X157.0Y-127.05
M16
G05
G00X173.45Y-126.25
M15
G01X173.45Y-127.05
M16
G05
M30
