%TF.GenerationSoftware,KiCad,Pcbnew,9.0.7*%
%TF.CreationDate,2026-02-04T14:53:37-04:00*%
%TF.ProjectId,TLS_Handheld_PCB,544c535f-4861-46e6-9468-656c645f5043,1*%
%TF.SameCoordinates,Original*%
%TF.FileFunction,Legend,Bot*%
%TF.FilePolarity,Positive*%
%FSLAX46Y46*%
G04 Gerber Fmt 4.6, Leading zero omitted, Abs format (unit mm)*
G04 Created by KiCad (PCBNEW 9.0.7) date 2026-02-04 14:53:37*
%MOMM*%
%LPD*%
G01*
G04 APERTURE LIST*
%ADD10C,0.100000*%
%ADD11C,0.250000*%
%ADD12C,0.150000*%
%ADD13C,0.300000*%
%ADD14C,0.200000*%
%ADD15C,0.508000*%
G04 APERTURE END LIST*
D10*
X209500000Y-95000000D02*
X235000000Y-95000000D01*
X235000000Y-123000000D01*
X209500000Y-123000000D01*
X209500000Y-95000000D01*
X175000000Y-101000000D02*
X200000000Y-101000000D01*
X200000000Y-123000000D01*
X175000000Y-123000000D01*
X175000000Y-101000000D01*
D11*
X171373997Y-71306247D02*
X171145425Y-71380533D01*
X171145425Y-71380533D02*
X171069235Y-71454819D01*
X171069235Y-71454819D02*
X170993044Y-71603390D01*
X170993044Y-71603390D02*
X170993044Y-71826247D01*
X170993044Y-71826247D02*
X171069235Y-71974819D01*
X171069235Y-71974819D02*
X171145425Y-72049105D01*
X171145425Y-72049105D02*
X171297806Y-72123390D01*
X171297806Y-72123390D02*
X171907330Y-72123390D01*
X171907330Y-72123390D02*
X171907330Y-70563390D01*
X171907330Y-70563390D02*
X171373997Y-70563390D01*
X171373997Y-70563390D02*
X171221616Y-70637676D01*
X171221616Y-70637676D02*
X171145425Y-70711962D01*
X171145425Y-70711962D02*
X171069235Y-70860533D01*
X171069235Y-70860533D02*
X171069235Y-71009105D01*
X171069235Y-71009105D02*
X171145425Y-71157676D01*
X171145425Y-71157676D02*
X171221616Y-71231962D01*
X171221616Y-71231962D02*
X171373997Y-71306247D01*
X171373997Y-71306247D02*
X171907330Y-71306247D01*
X169621616Y-71083390D02*
X169621616Y-72123390D01*
X170002568Y-70489105D02*
X170383521Y-71603390D01*
X170383521Y-71603390D02*
X169393044Y-71603390D01*
X176631140Y-74634903D02*
X177164474Y-73892046D01*
X177545426Y-74634903D02*
X177545426Y-73074903D01*
X177545426Y-73074903D02*
X176935902Y-73074903D01*
X176935902Y-73074903D02*
X176783521Y-73149189D01*
X176783521Y-73149189D02*
X176707331Y-73223475D01*
X176707331Y-73223475D02*
X176631140Y-73372046D01*
X176631140Y-73372046D02*
X176631140Y-73594903D01*
X176631140Y-73594903D02*
X176707331Y-73743475D01*
X176707331Y-73743475D02*
X176783521Y-73817760D01*
X176783521Y-73817760D02*
X176935902Y-73892046D01*
X176935902Y-73892046D02*
X177545426Y-73892046D01*
X176173998Y-73074903D02*
X175259712Y-73074903D01*
X175716855Y-74634903D02*
X175716855Y-73074903D01*
X174726378Y-74634903D02*
X174726378Y-73074903D01*
X174726378Y-73074903D02*
X174345426Y-73074903D01*
X174345426Y-73074903D02*
X174116854Y-73149189D01*
X174116854Y-73149189D02*
X173964473Y-73297760D01*
X173964473Y-73297760D02*
X173888283Y-73446332D01*
X173888283Y-73446332D02*
X173812092Y-73743475D01*
X173812092Y-73743475D02*
X173812092Y-73966332D01*
X173812092Y-73966332D02*
X173888283Y-74263475D01*
X173888283Y-74263475D02*
X173964473Y-74412046D01*
X173964473Y-74412046D02*
X174116854Y-74560618D01*
X174116854Y-74560618D02*
X174345426Y-74634903D01*
X174345426Y-74634903D02*
X174726378Y-74634903D01*
X173507331Y-74783475D02*
X172288283Y-74783475D01*
X170993044Y-74486332D02*
X171069235Y-74560618D01*
X171069235Y-74560618D02*
X171297806Y-74634903D01*
X171297806Y-74634903D02*
X171450187Y-74634903D01*
X171450187Y-74634903D02*
X171678759Y-74560618D01*
X171678759Y-74560618D02*
X171831140Y-74412046D01*
X171831140Y-74412046D02*
X171907330Y-74263475D01*
X171907330Y-74263475D02*
X171983521Y-73966332D01*
X171983521Y-73966332D02*
X171983521Y-73743475D01*
X171983521Y-73743475D02*
X171907330Y-73446332D01*
X171907330Y-73446332D02*
X171831140Y-73297760D01*
X171831140Y-73297760D02*
X171678759Y-73149189D01*
X171678759Y-73149189D02*
X171450187Y-73074903D01*
X171450187Y-73074903D02*
X171297806Y-73074903D01*
X171297806Y-73074903D02*
X171069235Y-73149189D01*
X171069235Y-73149189D02*
X170993044Y-73223475D01*
X170383521Y-74560618D02*
X170154949Y-74634903D01*
X170154949Y-74634903D02*
X169773997Y-74634903D01*
X169773997Y-74634903D02*
X169621616Y-74560618D01*
X169621616Y-74560618D02*
X169545425Y-74486332D01*
X169545425Y-74486332D02*
X169469235Y-74337760D01*
X169469235Y-74337760D02*
X169469235Y-74189189D01*
X169469235Y-74189189D02*
X169545425Y-74040618D01*
X169545425Y-74040618D02*
X169621616Y-73966332D01*
X169621616Y-73966332D02*
X169773997Y-73892046D01*
X169773997Y-73892046D02*
X170078759Y-73817760D01*
X170078759Y-73817760D02*
X170231140Y-73743475D01*
X170231140Y-73743475D02*
X170307330Y-73669189D01*
X170307330Y-73669189D02*
X170383521Y-73520618D01*
X170383521Y-73520618D02*
X170383521Y-73372046D01*
X170383521Y-73372046D02*
X170307330Y-73223475D01*
X170307330Y-73223475D02*
X170231140Y-73149189D01*
X170231140Y-73149189D02*
X170078759Y-73074903D01*
X170078759Y-73074903D02*
X169697806Y-73074903D01*
X169697806Y-73074903D02*
X169469235Y-73149189D01*
X171373997Y-86375325D02*
X171145425Y-86449611D01*
X171145425Y-86449611D02*
X171069235Y-86523897D01*
X171069235Y-86523897D02*
X170993044Y-86672468D01*
X170993044Y-86672468D02*
X170993044Y-86895325D01*
X170993044Y-86895325D02*
X171069235Y-87043897D01*
X171069235Y-87043897D02*
X171145425Y-87118183D01*
X171145425Y-87118183D02*
X171297806Y-87192468D01*
X171297806Y-87192468D02*
X171907330Y-87192468D01*
X171907330Y-87192468D02*
X171907330Y-85632468D01*
X171907330Y-85632468D02*
X171373997Y-85632468D01*
X171373997Y-85632468D02*
X171221616Y-85706754D01*
X171221616Y-85706754D02*
X171145425Y-85781040D01*
X171145425Y-85781040D02*
X171069235Y-85929611D01*
X171069235Y-85929611D02*
X171069235Y-86078183D01*
X171069235Y-86078183D02*
X171145425Y-86226754D01*
X171145425Y-86226754D02*
X171221616Y-86301040D01*
X171221616Y-86301040D02*
X171373997Y-86375325D01*
X171373997Y-86375325D02*
X171907330Y-86375325D01*
X169545425Y-85632468D02*
X170307330Y-85632468D01*
X170307330Y-85632468D02*
X170383521Y-86375325D01*
X170383521Y-86375325D02*
X170307330Y-86301040D01*
X170307330Y-86301040D02*
X170154949Y-86226754D01*
X170154949Y-86226754D02*
X169773997Y-86226754D01*
X169773997Y-86226754D02*
X169621616Y-86301040D01*
X169621616Y-86301040D02*
X169545425Y-86375325D01*
X169545425Y-86375325D02*
X169469235Y-86523897D01*
X169469235Y-86523897D02*
X169469235Y-86895325D01*
X169469235Y-86895325D02*
X169545425Y-87043897D01*
X169545425Y-87043897D02*
X169621616Y-87118183D01*
X169621616Y-87118183D02*
X169773997Y-87192468D01*
X169773997Y-87192468D02*
X170154949Y-87192468D01*
X170154949Y-87192468D02*
X170307330Y-87118183D01*
X170307330Y-87118183D02*
X170383521Y-87043897D01*
X172821615Y-90729780D02*
X172973996Y-90655494D01*
X172973996Y-90655494D02*
X173202567Y-90655494D01*
X173202567Y-90655494D02*
X173431139Y-90729780D01*
X173431139Y-90729780D02*
X173583520Y-90878351D01*
X173583520Y-90878351D02*
X173659710Y-91026923D01*
X173659710Y-91026923D02*
X173735901Y-91324066D01*
X173735901Y-91324066D02*
X173735901Y-91546923D01*
X173735901Y-91546923D02*
X173659710Y-91844066D01*
X173659710Y-91844066D02*
X173583520Y-91992637D01*
X173583520Y-91992637D02*
X173431139Y-92141209D01*
X173431139Y-92141209D02*
X173202567Y-92215494D01*
X173202567Y-92215494D02*
X173050186Y-92215494D01*
X173050186Y-92215494D02*
X172821615Y-92141209D01*
X172821615Y-92141209D02*
X172745424Y-92066923D01*
X172745424Y-92066923D02*
X172745424Y-91546923D01*
X172745424Y-91546923D02*
X173050186Y-91546923D01*
X172059710Y-92215494D02*
X172059710Y-90655494D01*
X172059710Y-90655494D02*
X171145424Y-92215494D01*
X171145424Y-92215494D02*
X171145424Y-90655494D01*
X170383520Y-92215494D02*
X170383520Y-90655494D01*
X170383520Y-90655494D02*
X170002568Y-90655494D01*
X170002568Y-90655494D02*
X169773996Y-90729780D01*
X169773996Y-90729780D02*
X169621615Y-90878351D01*
X169621615Y-90878351D02*
X169545425Y-91026923D01*
X169545425Y-91026923D02*
X169469234Y-91324066D01*
X169469234Y-91324066D02*
X169469234Y-91546923D01*
X169469234Y-91546923D02*
X169545425Y-91844066D01*
X169545425Y-91844066D02*
X169621615Y-91992637D01*
X169621615Y-91992637D02*
X169773996Y-92141209D01*
X169773996Y-92141209D02*
X170002568Y-92215494D01*
X170002568Y-92215494D02*
X170383520Y-92215494D01*
X176859712Y-93909864D02*
X176326379Y-93909864D01*
X176097807Y-94727007D02*
X176859712Y-94727007D01*
X176859712Y-94727007D02*
X176859712Y-93167007D01*
X176859712Y-93167007D02*
X176097807Y-93167007D01*
X175564474Y-93167007D02*
X174497807Y-94727007D01*
X174497807Y-93167007D02*
X175564474Y-94727007D01*
X172973997Y-94578436D02*
X173050188Y-94652722D01*
X173050188Y-94652722D02*
X173278759Y-94727007D01*
X173278759Y-94727007D02*
X173431140Y-94727007D01*
X173431140Y-94727007D02*
X173659712Y-94652722D01*
X173659712Y-94652722D02*
X173812093Y-94504150D01*
X173812093Y-94504150D02*
X173888283Y-94355579D01*
X173888283Y-94355579D02*
X173964474Y-94058436D01*
X173964474Y-94058436D02*
X173964474Y-93835579D01*
X173964474Y-93835579D02*
X173888283Y-93538436D01*
X173888283Y-93538436D02*
X173812093Y-93389864D01*
X173812093Y-93389864D02*
X173659712Y-93241293D01*
X173659712Y-93241293D02*
X173431140Y-93167007D01*
X173431140Y-93167007D02*
X173278759Y-93167007D01*
X173278759Y-93167007D02*
X173050188Y-93241293D01*
X173050188Y-93241293D02*
X172973997Y-93315579D01*
X172288283Y-94727007D02*
X172288283Y-93167007D01*
X171754950Y-93167007D02*
X170840664Y-93167007D01*
X171297807Y-94727007D02*
X171297807Y-93167007D01*
X169469235Y-94727007D02*
X170383521Y-94727007D01*
X169926378Y-94727007D02*
X169926378Y-93167007D01*
X169926378Y-93167007D02*
X170078759Y-93389864D01*
X170078759Y-93389864D02*
X170231140Y-93538436D01*
X170231140Y-93538436D02*
X170383521Y-93612722D01*
X176097806Y-99750033D02*
X176097806Y-98190033D01*
X176097806Y-98190033D02*
X175564473Y-99304319D01*
X175564473Y-99304319D02*
X175031139Y-98190033D01*
X175031139Y-98190033D02*
X175031139Y-99750033D01*
X173964473Y-98190033D02*
X173659711Y-98190033D01*
X173659711Y-98190033D02*
X173507330Y-98264319D01*
X173507330Y-98264319D02*
X173354949Y-98412890D01*
X173354949Y-98412890D02*
X173278759Y-98710033D01*
X173278759Y-98710033D02*
X173278759Y-99230033D01*
X173278759Y-99230033D02*
X173354949Y-99527176D01*
X173354949Y-99527176D02*
X173507330Y-99675748D01*
X173507330Y-99675748D02*
X173659711Y-99750033D01*
X173659711Y-99750033D02*
X173964473Y-99750033D01*
X173964473Y-99750033D02*
X174116854Y-99675748D01*
X174116854Y-99675748D02*
X174269235Y-99527176D01*
X174269235Y-99527176D02*
X174345426Y-99230033D01*
X174345426Y-99230033D02*
X174345426Y-98710033D01*
X174345426Y-98710033D02*
X174269235Y-98412890D01*
X174269235Y-98412890D02*
X174116854Y-98264319D01*
X174116854Y-98264319D02*
X173964473Y-98190033D01*
X172669236Y-99675748D02*
X172440664Y-99750033D01*
X172440664Y-99750033D02*
X172059712Y-99750033D01*
X172059712Y-99750033D02*
X171907331Y-99675748D01*
X171907331Y-99675748D02*
X171831140Y-99601462D01*
X171831140Y-99601462D02*
X171754950Y-99452890D01*
X171754950Y-99452890D02*
X171754950Y-99304319D01*
X171754950Y-99304319D02*
X171831140Y-99155748D01*
X171831140Y-99155748D02*
X171907331Y-99081462D01*
X171907331Y-99081462D02*
X172059712Y-99007176D01*
X172059712Y-99007176D02*
X172364474Y-98932890D01*
X172364474Y-98932890D02*
X172516855Y-98858605D01*
X172516855Y-98858605D02*
X172593045Y-98784319D01*
X172593045Y-98784319D02*
X172669236Y-98635748D01*
X172669236Y-98635748D02*
X172669236Y-98487176D01*
X172669236Y-98487176D02*
X172593045Y-98338605D01*
X172593045Y-98338605D02*
X172516855Y-98264319D01*
X172516855Y-98264319D02*
X172364474Y-98190033D01*
X172364474Y-98190033D02*
X171983521Y-98190033D01*
X171983521Y-98190033D02*
X171754950Y-98264319D01*
X171069235Y-99750033D02*
X171069235Y-98190033D01*
X170383521Y-98338605D02*
X170307330Y-98264319D01*
X170307330Y-98264319D02*
X170154949Y-98190033D01*
X170154949Y-98190033D02*
X169773997Y-98190033D01*
X169773997Y-98190033D02*
X169621616Y-98264319D01*
X169621616Y-98264319D02*
X169545425Y-98338605D01*
X169545425Y-98338605D02*
X169469235Y-98487176D01*
X169469235Y-98487176D02*
X169469235Y-98635748D01*
X169469235Y-98635748D02*
X169545425Y-98858605D01*
X169545425Y-98858605D02*
X170459711Y-99750033D01*
X170459711Y-99750033D02*
X169469235Y-99750033D01*
X176097806Y-102261546D02*
X176097806Y-100701546D01*
X176097806Y-100701546D02*
X175564473Y-101815832D01*
X175564473Y-101815832D02*
X175031139Y-100701546D01*
X175031139Y-100701546D02*
X175031139Y-102261546D01*
X174269235Y-102261546D02*
X174269235Y-100701546D01*
X173583521Y-102187261D02*
X173354949Y-102261546D01*
X173354949Y-102261546D02*
X172973997Y-102261546D01*
X172973997Y-102261546D02*
X172821616Y-102187261D01*
X172821616Y-102187261D02*
X172745425Y-102112975D01*
X172745425Y-102112975D02*
X172669235Y-101964403D01*
X172669235Y-101964403D02*
X172669235Y-101815832D01*
X172669235Y-101815832D02*
X172745425Y-101667261D01*
X172745425Y-101667261D02*
X172821616Y-101592975D01*
X172821616Y-101592975D02*
X172973997Y-101518689D01*
X172973997Y-101518689D02*
X173278759Y-101444403D01*
X173278759Y-101444403D02*
X173431140Y-101370118D01*
X173431140Y-101370118D02*
X173507330Y-101295832D01*
X173507330Y-101295832D02*
X173583521Y-101147261D01*
X173583521Y-101147261D02*
X173583521Y-100998689D01*
X173583521Y-100998689D02*
X173507330Y-100850118D01*
X173507330Y-100850118D02*
X173431140Y-100775832D01*
X173431140Y-100775832D02*
X173278759Y-100701546D01*
X173278759Y-100701546D02*
X172897806Y-100701546D01*
X172897806Y-100701546D02*
X172669235Y-100775832D01*
X171678758Y-100701546D02*
X171373996Y-100701546D01*
X171373996Y-100701546D02*
X171221615Y-100775832D01*
X171221615Y-100775832D02*
X171069234Y-100924403D01*
X171069234Y-100924403D02*
X170993044Y-101221546D01*
X170993044Y-101221546D02*
X170993044Y-101741546D01*
X170993044Y-101741546D02*
X171069234Y-102038689D01*
X171069234Y-102038689D02*
X171221615Y-102187261D01*
X171221615Y-102187261D02*
X171373996Y-102261546D01*
X171373996Y-102261546D02*
X171678758Y-102261546D01*
X171678758Y-102261546D02*
X171831139Y-102187261D01*
X171831139Y-102187261D02*
X171983520Y-102038689D01*
X171983520Y-102038689D02*
X172059711Y-101741546D01*
X172059711Y-101741546D02*
X172059711Y-101221546D01*
X172059711Y-101221546D02*
X171983520Y-100924403D01*
X171983520Y-100924403D02*
X171831139Y-100775832D01*
X171831139Y-100775832D02*
X171678758Y-100701546D01*
X170383521Y-100850118D02*
X170307330Y-100775832D01*
X170307330Y-100775832D02*
X170154949Y-100701546D01*
X170154949Y-100701546D02*
X169773997Y-100701546D01*
X169773997Y-100701546D02*
X169621616Y-100775832D01*
X169621616Y-100775832D02*
X169545425Y-100850118D01*
X169545425Y-100850118D02*
X169469235Y-100998689D01*
X169469235Y-100998689D02*
X169469235Y-101147261D01*
X169469235Y-101147261D02*
X169545425Y-101370118D01*
X169545425Y-101370118D02*
X170459711Y-102261546D01*
X170459711Y-102261546D02*
X169469235Y-102261546D01*
X175107331Y-104698774D02*
X174878759Y-104773059D01*
X174878759Y-104773059D02*
X174497807Y-104773059D01*
X174497807Y-104773059D02*
X174345426Y-104698774D01*
X174345426Y-104698774D02*
X174269235Y-104624488D01*
X174269235Y-104624488D02*
X174193045Y-104475916D01*
X174193045Y-104475916D02*
X174193045Y-104327345D01*
X174193045Y-104327345D02*
X174269235Y-104178774D01*
X174269235Y-104178774D02*
X174345426Y-104104488D01*
X174345426Y-104104488D02*
X174497807Y-104030202D01*
X174497807Y-104030202D02*
X174802569Y-103955916D01*
X174802569Y-103955916D02*
X174954950Y-103881631D01*
X174954950Y-103881631D02*
X175031140Y-103807345D01*
X175031140Y-103807345D02*
X175107331Y-103658774D01*
X175107331Y-103658774D02*
X175107331Y-103510202D01*
X175107331Y-103510202D02*
X175031140Y-103361631D01*
X175031140Y-103361631D02*
X174954950Y-103287345D01*
X174954950Y-103287345D02*
X174802569Y-103213059D01*
X174802569Y-103213059D02*
X174421616Y-103213059D01*
X174421616Y-103213059D02*
X174193045Y-103287345D01*
X172593044Y-104624488D02*
X172669235Y-104698774D01*
X172669235Y-104698774D02*
X172897806Y-104773059D01*
X172897806Y-104773059D02*
X173050187Y-104773059D01*
X173050187Y-104773059D02*
X173278759Y-104698774D01*
X173278759Y-104698774D02*
X173431140Y-104550202D01*
X173431140Y-104550202D02*
X173507330Y-104401631D01*
X173507330Y-104401631D02*
X173583521Y-104104488D01*
X173583521Y-104104488D02*
X173583521Y-103881631D01*
X173583521Y-103881631D02*
X173507330Y-103584488D01*
X173507330Y-103584488D02*
X173431140Y-103435916D01*
X173431140Y-103435916D02*
X173278759Y-103287345D01*
X173278759Y-103287345D02*
X173050187Y-103213059D01*
X173050187Y-103213059D02*
X172897806Y-103213059D01*
X172897806Y-103213059D02*
X172669235Y-103287345D01*
X172669235Y-103287345D02*
X172593044Y-103361631D01*
X171907330Y-104773059D02*
X171907330Y-103213059D01*
X170993044Y-104773059D02*
X171678759Y-103881631D01*
X170993044Y-103213059D02*
X171907330Y-104104488D01*
X170383521Y-103361631D02*
X170307330Y-103287345D01*
X170307330Y-103287345D02*
X170154949Y-103213059D01*
X170154949Y-103213059D02*
X169773997Y-103213059D01*
X169773997Y-103213059D02*
X169621616Y-103287345D01*
X169621616Y-103287345D02*
X169545425Y-103361631D01*
X169545425Y-103361631D02*
X169469235Y-103510202D01*
X169469235Y-103510202D02*
X169469235Y-103658774D01*
X169469235Y-103658774D02*
X169545425Y-103881631D01*
X169545425Y-103881631D02*
X170459711Y-104773059D01*
X170459711Y-104773059D02*
X169469235Y-104773059D01*
X171373997Y-108978942D02*
X171145425Y-109053228D01*
X171145425Y-109053228D02*
X171069235Y-109127514D01*
X171069235Y-109127514D02*
X170993044Y-109276085D01*
X170993044Y-109276085D02*
X170993044Y-109498942D01*
X170993044Y-109498942D02*
X171069235Y-109647514D01*
X171069235Y-109647514D02*
X171145425Y-109721800D01*
X171145425Y-109721800D02*
X171297806Y-109796085D01*
X171297806Y-109796085D02*
X171907330Y-109796085D01*
X171907330Y-109796085D02*
X171907330Y-108236085D01*
X171907330Y-108236085D02*
X171373997Y-108236085D01*
X171373997Y-108236085D02*
X171221616Y-108310371D01*
X171221616Y-108310371D02*
X171145425Y-108384657D01*
X171145425Y-108384657D02*
X171069235Y-108533228D01*
X171069235Y-108533228D02*
X171069235Y-108681800D01*
X171069235Y-108681800D02*
X171145425Y-108830371D01*
X171145425Y-108830371D02*
X171221616Y-108904657D01*
X171221616Y-108904657D02*
X171373997Y-108978942D01*
X171373997Y-108978942D02*
X171907330Y-108978942D01*
X170459711Y-108236085D02*
X169469235Y-108236085D01*
X169469235Y-108236085D02*
X170002568Y-108830371D01*
X170002568Y-108830371D02*
X169773997Y-108830371D01*
X169773997Y-108830371D02*
X169621616Y-108904657D01*
X169621616Y-108904657D02*
X169545425Y-108978942D01*
X169545425Y-108978942D02*
X169469235Y-109127514D01*
X169469235Y-109127514D02*
X169469235Y-109498942D01*
X169469235Y-109498942D02*
X169545425Y-109647514D01*
X169545425Y-109647514D02*
X169621616Y-109721800D01*
X169621616Y-109721800D02*
X169773997Y-109796085D01*
X169773997Y-109796085D02*
X170231140Y-109796085D01*
X170231140Y-109796085D02*
X170383521Y-109721800D01*
X170383521Y-109721800D02*
X170459711Y-109647514D01*
X152214285Y-54480333D02*
X150690476Y-54480333D01*
X149738095Y-53908904D02*
X148214286Y-54480333D01*
X148214286Y-54480333D02*
X149738095Y-55051761D01*
X145833333Y-55147000D02*
X145547619Y-55242238D01*
X145547619Y-55242238D02*
X145071428Y-55242238D01*
X145071428Y-55242238D02*
X144880952Y-55147000D01*
X144880952Y-55147000D02*
X144785714Y-55051761D01*
X144785714Y-55051761D02*
X144690476Y-54861285D01*
X144690476Y-54861285D02*
X144690476Y-54670809D01*
X144690476Y-54670809D02*
X144785714Y-54480333D01*
X144785714Y-54480333D02*
X144880952Y-54385095D01*
X144880952Y-54385095D02*
X145071428Y-54289857D01*
X145071428Y-54289857D02*
X145452381Y-54194619D01*
X145452381Y-54194619D02*
X145642857Y-54099380D01*
X145642857Y-54099380D02*
X145738095Y-54004142D01*
X145738095Y-54004142D02*
X145833333Y-53813666D01*
X145833333Y-53813666D02*
X145833333Y-53623190D01*
X145833333Y-53623190D02*
X145738095Y-53432714D01*
X145738095Y-53432714D02*
X145642857Y-53337476D01*
X145642857Y-53337476D02*
X145452381Y-53242238D01*
X145452381Y-53242238D02*
X144976190Y-53242238D01*
X144976190Y-53242238D02*
X144690476Y-53337476D01*
X144119047Y-53242238D02*
X142976190Y-53242238D01*
X143547619Y-55242238D02*
X143547619Y-53242238D01*
X142309523Y-55242238D02*
X142309523Y-53242238D01*
X142309523Y-53242238D02*
X141642856Y-54670809D01*
X141642856Y-54670809D02*
X140976190Y-53242238D01*
X140976190Y-53242238D02*
X140976190Y-55242238D01*
X140500000Y-55432714D02*
X138976190Y-55432714D01*
X138499999Y-55242238D02*
X138499999Y-53242238D01*
X138499999Y-53242238D02*
X137738094Y-53242238D01*
X137738094Y-53242238D02*
X137547618Y-53337476D01*
X137547618Y-53337476D02*
X137452380Y-53432714D01*
X137452380Y-53432714D02*
X137357142Y-53623190D01*
X137357142Y-53623190D02*
X137357142Y-53908904D01*
X137357142Y-53908904D02*
X137452380Y-54099380D01*
X137452380Y-54099380D02*
X137547618Y-54194619D01*
X137547618Y-54194619D02*
X137738094Y-54289857D01*
X137738094Y-54289857D02*
X138499999Y-54289857D01*
X136499999Y-55242238D02*
X136499999Y-53908904D01*
X136499999Y-54289857D02*
X136404761Y-54099380D01*
X136404761Y-54099380D02*
X136309523Y-54004142D01*
X136309523Y-54004142D02*
X136119047Y-53908904D01*
X136119047Y-53908904D02*
X135928570Y-53908904D01*
X134976190Y-55242238D02*
X135166666Y-55147000D01*
X135166666Y-55147000D02*
X135261904Y-55051761D01*
X135261904Y-55051761D02*
X135357142Y-54861285D01*
X135357142Y-54861285D02*
X135357142Y-54289857D01*
X135357142Y-54289857D02*
X135261904Y-54099380D01*
X135261904Y-54099380D02*
X135166666Y-54004142D01*
X135166666Y-54004142D02*
X134976190Y-53908904D01*
X134976190Y-53908904D02*
X134690475Y-53908904D01*
X134690475Y-53908904D02*
X134499999Y-54004142D01*
X134499999Y-54004142D02*
X134404761Y-54099380D01*
X134404761Y-54099380D02*
X134309523Y-54289857D01*
X134309523Y-54289857D02*
X134309523Y-54861285D01*
X134309523Y-54861285D02*
X134404761Y-55051761D01*
X134404761Y-55051761D02*
X134499999Y-55147000D01*
X134499999Y-55147000D02*
X134690475Y-55242238D01*
X134690475Y-55242238D02*
X134976190Y-55242238D01*
X132595237Y-53908904D02*
X132595237Y-55527952D01*
X132595237Y-55527952D02*
X132690475Y-55718428D01*
X132690475Y-55718428D02*
X132785713Y-55813666D01*
X132785713Y-55813666D02*
X132976190Y-55908904D01*
X132976190Y-55908904D02*
X133261904Y-55908904D01*
X133261904Y-55908904D02*
X133452380Y-55813666D01*
X132595237Y-55147000D02*
X132785713Y-55242238D01*
X132785713Y-55242238D02*
X133166666Y-55242238D01*
X133166666Y-55242238D02*
X133357142Y-55147000D01*
X133357142Y-55147000D02*
X133452380Y-55051761D01*
X133452380Y-55051761D02*
X133547618Y-54861285D01*
X133547618Y-54861285D02*
X133547618Y-54289857D01*
X133547618Y-54289857D02*
X133452380Y-54099380D01*
X133452380Y-54099380D02*
X133357142Y-54004142D01*
X133357142Y-54004142D02*
X133166666Y-53908904D01*
X133166666Y-53908904D02*
X132785713Y-53908904D01*
X132785713Y-53908904D02*
X132595237Y-54004142D01*
X131642856Y-55242238D02*
X131642856Y-53908904D01*
X131642856Y-54289857D02*
X131547618Y-54099380D01*
X131547618Y-54099380D02*
X131452380Y-54004142D01*
X131452380Y-54004142D02*
X131261904Y-53908904D01*
X131261904Y-53908904D02*
X131071427Y-53908904D01*
X129547618Y-55242238D02*
X129547618Y-54194619D01*
X129547618Y-54194619D02*
X129642856Y-54004142D01*
X129642856Y-54004142D02*
X129833332Y-53908904D01*
X129833332Y-53908904D02*
X130214285Y-53908904D01*
X130214285Y-53908904D02*
X130404761Y-54004142D01*
X129547618Y-55147000D02*
X129738094Y-55242238D01*
X129738094Y-55242238D02*
X130214285Y-55242238D01*
X130214285Y-55242238D02*
X130404761Y-55147000D01*
X130404761Y-55147000D02*
X130499999Y-54956523D01*
X130499999Y-54956523D02*
X130499999Y-54766047D01*
X130499999Y-54766047D02*
X130404761Y-54575571D01*
X130404761Y-54575571D02*
X130214285Y-54480333D01*
X130214285Y-54480333D02*
X129738094Y-54480333D01*
X129738094Y-54480333D02*
X129547618Y-54385095D01*
X128595237Y-55242238D02*
X128595237Y-53908904D01*
X128595237Y-54099380D02*
X128499999Y-54004142D01*
X128499999Y-54004142D02*
X128309523Y-53908904D01*
X128309523Y-53908904D02*
X128023808Y-53908904D01*
X128023808Y-53908904D02*
X127833332Y-54004142D01*
X127833332Y-54004142D02*
X127738094Y-54194619D01*
X127738094Y-54194619D02*
X127738094Y-55242238D01*
X127738094Y-54194619D02*
X127642856Y-54004142D01*
X127642856Y-54004142D02*
X127452380Y-53908904D01*
X127452380Y-53908904D02*
X127166666Y-53908904D01*
X127166666Y-53908904D02*
X126976189Y-54004142D01*
X126976189Y-54004142D02*
X126880951Y-54194619D01*
X126880951Y-54194619D02*
X126880951Y-55242238D01*
X125928570Y-55242238D02*
X125928570Y-53908904D01*
X125928570Y-54099380D02*
X125833332Y-54004142D01*
X125833332Y-54004142D02*
X125642856Y-53908904D01*
X125642856Y-53908904D02*
X125357141Y-53908904D01*
X125357141Y-53908904D02*
X125166665Y-54004142D01*
X125166665Y-54004142D02*
X125071427Y-54194619D01*
X125071427Y-54194619D02*
X125071427Y-55242238D01*
X125071427Y-54194619D02*
X124976189Y-54004142D01*
X124976189Y-54004142D02*
X124785713Y-53908904D01*
X124785713Y-53908904D02*
X124499999Y-53908904D01*
X124499999Y-53908904D02*
X124309522Y-54004142D01*
X124309522Y-54004142D02*
X124214284Y-54194619D01*
X124214284Y-54194619D02*
X124214284Y-55242238D01*
X122499998Y-55147000D02*
X122690474Y-55242238D01*
X122690474Y-55242238D02*
X123071427Y-55242238D01*
X123071427Y-55242238D02*
X123261903Y-55147000D01*
X123261903Y-55147000D02*
X123357141Y-54956523D01*
X123357141Y-54956523D02*
X123357141Y-54194619D01*
X123357141Y-54194619D02*
X123261903Y-54004142D01*
X123261903Y-54004142D02*
X123071427Y-53908904D01*
X123071427Y-53908904D02*
X122690474Y-53908904D01*
X122690474Y-53908904D02*
X122499998Y-54004142D01*
X122499998Y-54004142D02*
X122404760Y-54194619D01*
X122404760Y-54194619D02*
X122404760Y-54385095D01*
X122404760Y-54385095D02*
X123357141Y-54575571D01*
X121547617Y-55242238D02*
X121547617Y-53908904D01*
X121547617Y-54289857D02*
X121452379Y-54099380D01*
X121452379Y-54099380D02*
X121357141Y-54004142D01*
X121357141Y-54004142D02*
X121166665Y-53908904D01*
X121166665Y-53908904D02*
X120976188Y-53908904D01*
X117261903Y-53908904D02*
X118785712Y-54480333D01*
X118785712Y-54480333D02*
X117261903Y-55051761D01*
X116309522Y-54480333D02*
X114785713Y-54480333D01*
X109786497Y-71003076D02*
X109557925Y-71077838D01*
X109557925Y-71077838D02*
X109481735Y-71152600D01*
X109481735Y-71152600D02*
X109405544Y-71302124D01*
X109405544Y-71302124D02*
X109405544Y-71526410D01*
X109405544Y-71526410D02*
X109481735Y-71675934D01*
X109481735Y-71675934D02*
X109557925Y-71750696D01*
X109557925Y-71750696D02*
X109710306Y-71825457D01*
X109710306Y-71825457D02*
X110319830Y-71825457D01*
X110319830Y-71825457D02*
X110319830Y-70255457D01*
X110319830Y-70255457D02*
X109786497Y-70255457D01*
X109786497Y-70255457D02*
X109634116Y-70330219D01*
X109634116Y-70330219D02*
X109557925Y-70404981D01*
X109557925Y-70404981D02*
X109481735Y-70554505D01*
X109481735Y-70554505D02*
X109481735Y-70704029D01*
X109481735Y-70704029D02*
X109557925Y-70853553D01*
X109557925Y-70853553D02*
X109634116Y-70928315D01*
X109634116Y-70928315D02*
X109786497Y-71003076D01*
X109786497Y-71003076D02*
X110319830Y-71003076D01*
X107881735Y-71825457D02*
X108796021Y-71825457D01*
X108338878Y-71825457D02*
X108338878Y-70255457D01*
X108338878Y-70255457D02*
X108491259Y-70479743D01*
X108491259Y-70479743D02*
X108643640Y-70629267D01*
X108643640Y-70629267D02*
X108796021Y-70704029D01*
X111538878Y-73530688D02*
X111005545Y-73530688D01*
X110776973Y-74353069D02*
X111538878Y-74353069D01*
X111538878Y-74353069D02*
X111538878Y-72783069D01*
X111538878Y-72783069D02*
X110776973Y-72783069D01*
X109329354Y-72783069D02*
X110091259Y-72783069D01*
X110091259Y-72783069D02*
X110167450Y-73530688D01*
X110167450Y-73530688D02*
X110091259Y-73455927D01*
X110091259Y-73455927D02*
X109938878Y-73381165D01*
X109938878Y-73381165D02*
X109557926Y-73381165D01*
X109557926Y-73381165D02*
X109405545Y-73455927D01*
X109405545Y-73455927D02*
X109329354Y-73530688D01*
X109329354Y-73530688D02*
X109253164Y-73680212D01*
X109253164Y-73680212D02*
X109253164Y-74054022D01*
X109253164Y-74054022D02*
X109329354Y-74203546D01*
X109329354Y-74203546D02*
X109405545Y-74278308D01*
X109405545Y-74278308D02*
X109557926Y-74353069D01*
X109557926Y-74353069D02*
X109938878Y-74353069D01*
X109938878Y-74353069D02*
X110091259Y-74278308D01*
X110091259Y-74278308D02*
X110167450Y-74203546D01*
X108796021Y-72783069D02*
X108262687Y-74353069D01*
X108262687Y-74353069D02*
X107729354Y-72783069D01*
X111234115Y-93078727D02*
X111386496Y-93003965D01*
X111386496Y-93003965D02*
X111615067Y-93003965D01*
X111615067Y-93003965D02*
X111843639Y-93078727D01*
X111843639Y-93078727D02*
X111996020Y-93228251D01*
X111996020Y-93228251D02*
X112072210Y-93377775D01*
X112072210Y-93377775D02*
X112148401Y-93676823D01*
X112148401Y-93676823D02*
X112148401Y-93901108D01*
X112148401Y-93901108D02*
X112072210Y-94200156D01*
X112072210Y-94200156D02*
X111996020Y-94349680D01*
X111996020Y-94349680D02*
X111843639Y-94499204D01*
X111843639Y-94499204D02*
X111615067Y-94573965D01*
X111615067Y-94573965D02*
X111462686Y-94573965D01*
X111462686Y-94573965D02*
X111234115Y-94499204D01*
X111234115Y-94499204D02*
X111157924Y-94424442D01*
X111157924Y-94424442D02*
X111157924Y-93901108D01*
X111157924Y-93901108D02*
X111462686Y-93901108D01*
X110472210Y-94573965D02*
X110472210Y-93003965D01*
X110472210Y-93003965D02*
X109557924Y-94573965D01*
X109557924Y-94573965D02*
X109557924Y-93003965D01*
X108796020Y-94573965D02*
X108796020Y-93003965D01*
X108796020Y-93003965D02*
X108415068Y-93003965D01*
X108415068Y-93003965D02*
X108186496Y-93078727D01*
X108186496Y-93078727D02*
X108034115Y-93228251D01*
X108034115Y-93228251D02*
X107957925Y-93377775D01*
X107957925Y-93377775D02*
X107881734Y-93676823D01*
X107881734Y-93676823D02*
X107881734Y-93901108D01*
X107881734Y-93901108D02*
X107957925Y-94200156D01*
X107957925Y-94200156D02*
X108034115Y-94349680D01*
X108034115Y-94349680D02*
X108186496Y-94499204D01*
X108186496Y-94499204D02*
X108415068Y-94573965D01*
X108415068Y-94573965D02*
X108796020Y-94573965D01*
X118929355Y-105642025D02*
X118015069Y-105642025D01*
X118472212Y-107212025D02*
X118472212Y-105642025D01*
X117481735Y-107212025D02*
X117481735Y-105642025D01*
X116796021Y-107212025D02*
X116796021Y-106389644D01*
X116796021Y-106389644D02*
X116872211Y-106240121D01*
X116872211Y-106240121D02*
X117024592Y-106165359D01*
X117024592Y-106165359D02*
X117253164Y-106165359D01*
X117253164Y-106165359D02*
X117405545Y-106240121D01*
X117405545Y-106240121D02*
X117481735Y-106314883D01*
X115424592Y-107137264D02*
X115576973Y-107212025D01*
X115576973Y-107212025D02*
X115881735Y-107212025D01*
X115881735Y-107212025D02*
X116034116Y-107137264D01*
X116034116Y-107137264D02*
X116110307Y-106987740D01*
X116110307Y-106987740D02*
X116110307Y-106389644D01*
X116110307Y-106389644D02*
X116034116Y-106240121D01*
X116034116Y-106240121D02*
X115881735Y-106165359D01*
X115881735Y-106165359D02*
X115576973Y-106165359D01*
X115576973Y-106165359D02*
X115424592Y-106240121D01*
X115424592Y-106240121D02*
X115348402Y-106389644D01*
X115348402Y-106389644D02*
X115348402Y-106539168D01*
X115348402Y-106539168D02*
X116110307Y-106688692D01*
X114662687Y-107212025D02*
X114662687Y-106165359D01*
X114662687Y-106464406D02*
X114586497Y-106314883D01*
X114586497Y-106314883D02*
X114510306Y-106240121D01*
X114510306Y-106240121D02*
X114357925Y-106165359D01*
X114357925Y-106165359D02*
X114205544Y-106165359D01*
X113672211Y-107212025D02*
X113672211Y-106165359D01*
X113672211Y-106314883D02*
X113596021Y-106240121D01*
X113596021Y-106240121D02*
X113443640Y-106165359D01*
X113443640Y-106165359D02*
X113215068Y-106165359D01*
X113215068Y-106165359D02*
X113062687Y-106240121D01*
X113062687Y-106240121D02*
X112986497Y-106389644D01*
X112986497Y-106389644D02*
X112986497Y-107212025D01*
X112986497Y-106389644D02*
X112910306Y-106240121D01*
X112910306Y-106240121D02*
X112757925Y-106165359D01*
X112757925Y-106165359D02*
X112529354Y-106165359D01*
X112529354Y-106165359D02*
X112376973Y-106240121D01*
X112376973Y-106240121D02*
X112300783Y-106389644D01*
X112300783Y-106389644D02*
X112300783Y-107212025D01*
X111919831Y-107361549D02*
X110700783Y-107361549D01*
X109405544Y-107062502D02*
X109481735Y-107137264D01*
X109481735Y-107137264D02*
X109710306Y-107212025D01*
X109710306Y-107212025D02*
X109862687Y-107212025D01*
X109862687Y-107212025D02*
X110091259Y-107137264D01*
X110091259Y-107137264D02*
X110243640Y-106987740D01*
X110243640Y-106987740D02*
X110319830Y-106838216D01*
X110319830Y-106838216D02*
X110396021Y-106539168D01*
X110396021Y-106539168D02*
X110396021Y-106314883D01*
X110396021Y-106314883D02*
X110319830Y-106015835D01*
X110319830Y-106015835D02*
X110243640Y-105866311D01*
X110243640Y-105866311D02*
X110091259Y-105716787D01*
X110091259Y-105716787D02*
X109862687Y-105642025D01*
X109862687Y-105642025D02*
X109710306Y-105642025D01*
X109710306Y-105642025D02*
X109481735Y-105716787D01*
X109481735Y-105716787D02*
X109405544Y-105791549D01*
X108796021Y-107137264D02*
X108567449Y-107212025D01*
X108567449Y-107212025D02*
X108186497Y-107212025D01*
X108186497Y-107212025D02*
X108034116Y-107137264D01*
X108034116Y-107137264D02*
X107957925Y-107062502D01*
X107957925Y-107062502D02*
X107881735Y-106912978D01*
X107881735Y-106912978D02*
X107881735Y-106763454D01*
X107881735Y-106763454D02*
X107957925Y-106613930D01*
X107957925Y-106613930D02*
X108034116Y-106539168D01*
X108034116Y-106539168D02*
X108186497Y-106464406D01*
X108186497Y-106464406D02*
X108491259Y-106389644D01*
X108491259Y-106389644D02*
X108643640Y-106314883D01*
X108643640Y-106314883D02*
X108719830Y-106240121D01*
X108719830Y-106240121D02*
X108796021Y-106090597D01*
X108796021Y-106090597D02*
X108796021Y-105941073D01*
X108796021Y-105941073D02*
X108719830Y-105791549D01*
X108719830Y-105791549D02*
X108643640Y-105716787D01*
X108643640Y-105716787D02*
X108491259Y-105642025D01*
X108491259Y-105642025D02*
X108110306Y-105642025D01*
X108110306Y-105642025D02*
X107881735Y-105716787D01*
X118396021Y-112267249D02*
X118396021Y-110697249D01*
X118396021Y-110697249D02*
X118015069Y-110697249D01*
X118015069Y-110697249D02*
X117786497Y-110772011D01*
X117786497Y-110772011D02*
X117634116Y-110921535D01*
X117634116Y-110921535D02*
X117557926Y-111071059D01*
X117557926Y-111071059D02*
X117481735Y-111370107D01*
X117481735Y-111370107D02*
X117481735Y-111594392D01*
X117481735Y-111594392D02*
X117557926Y-111893440D01*
X117557926Y-111893440D02*
X117634116Y-112042964D01*
X117634116Y-112042964D02*
X117786497Y-112192488D01*
X117786497Y-112192488D02*
X118015069Y-112267249D01*
X118015069Y-112267249D02*
X118396021Y-112267249D01*
X116796021Y-112267249D02*
X116796021Y-110697249D01*
X116110307Y-112192488D02*
X115881735Y-112267249D01*
X115881735Y-112267249D02*
X115500783Y-112267249D01*
X115500783Y-112267249D02*
X115348402Y-112192488D01*
X115348402Y-112192488D02*
X115272211Y-112117726D01*
X115272211Y-112117726D02*
X115196021Y-111968202D01*
X115196021Y-111968202D02*
X115196021Y-111818678D01*
X115196021Y-111818678D02*
X115272211Y-111669154D01*
X115272211Y-111669154D02*
X115348402Y-111594392D01*
X115348402Y-111594392D02*
X115500783Y-111519630D01*
X115500783Y-111519630D02*
X115805545Y-111444868D01*
X115805545Y-111444868D02*
X115957926Y-111370107D01*
X115957926Y-111370107D02*
X116034116Y-111295345D01*
X116034116Y-111295345D02*
X116110307Y-111145821D01*
X116110307Y-111145821D02*
X116110307Y-110996297D01*
X116110307Y-110996297D02*
X116034116Y-110846773D01*
X116034116Y-110846773D02*
X115957926Y-110772011D01*
X115957926Y-110772011D02*
X115805545Y-110697249D01*
X115805545Y-110697249D02*
X115424592Y-110697249D01*
X115424592Y-110697249D02*
X115196021Y-110772011D01*
X114510306Y-112267249D02*
X114510306Y-110697249D01*
X114510306Y-110697249D02*
X113900782Y-110697249D01*
X113900782Y-110697249D02*
X113748401Y-110772011D01*
X113748401Y-110772011D02*
X113672211Y-110846773D01*
X113672211Y-110846773D02*
X113596020Y-110996297D01*
X113596020Y-110996297D02*
X113596020Y-111220583D01*
X113596020Y-111220583D02*
X113672211Y-111370107D01*
X113672211Y-111370107D02*
X113748401Y-111444868D01*
X113748401Y-111444868D02*
X113900782Y-111519630D01*
X113900782Y-111519630D02*
X114510306Y-111519630D01*
X112148401Y-112267249D02*
X112910306Y-112267249D01*
X112910306Y-112267249D02*
X112910306Y-110697249D01*
X111996021Y-112416773D02*
X110776973Y-112416773D01*
X110396020Y-112267249D02*
X110396020Y-110697249D01*
X110396020Y-110697249D02*
X110015068Y-110697249D01*
X110015068Y-110697249D02*
X109786496Y-110772011D01*
X109786496Y-110772011D02*
X109634115Y-110921535D01*
X109634115Y-110921535D02*
X109557925Y-111071059D01*
X109557925Y-111071059D02*
X109481734Y-111370107D01*
X109481734Y-111370107D02*
X109481734Y-111594392D01*
X109481734Y-111594392D02*
X109557925Y-111893440D01*
X109557925Y-111893440D02*
X109634115Y-112042964D01*
X109634115Y-112042964D02*
X109786496Y-112192488D01*
X109786496Y-112192488D02*
X110015068Y-112267249D01*
X110015068Y-112267249D02*
X110396020Y-112267249D01*
X107881734Y-112117726D02*
X107957925Y-112192488D01*
X107957925Y-112192488D02*
X108186496Y-112267249D01*
X108186496Y-112267249D02*
X108338877Y-112267249D01*
X108338877Y-112267249D02*
X108567449Y-112192488D01*
X108567449Y-112192488D02*
X108719830Y-112042964D01*
X108719830Y-112042964D02*
X108796020Y-111893440D01*
X108796020Y-111893440D02*
X108872211Y-111594392D01*
X108872211Y-111594392D02*
X108872211Y-111370107D01*
X108872211Y-111370107D02*
X108796020Y-111071059D01*
X108796020Y-111071059D02*
X108719830Y-110921535D01*
X108719830Y-110921535D02*
X108567449Y-110772011D01*
X108567449Y-110772011D02*
X108338877Y-110697249D01*
X108338877Y-110697249D02*
X108186496Y-110697249D01*
X108186496Y-110697249D02*
X107957925Y-110772011D01*
X107957925Y-110772011D02*
X107881734Y-110846773D01*
X119538878Y-114794861D02*
X119538878Y-113224861D01*
X119538878Y-113224861D02*
X119157926Y-113224861D01*
X119157926Y-113224861D02*
X118929354Y-113299623D01*
X118929354Y-113299623D02*
X118776973Y-113449147D01*
X118776973Y-113449147D02*
X118700783Y-113598671D01*
X118700783Y-113598671D02*
X118624592Y-113897719D01*
X118624592Y-113897719D02*
X118624592Y-114122004D01*
X118624592Y-114122004D02*
X118700783Y-114421052D01*
X118700783Y-114421052D02*
X118776973Y-114570576D01*
X118776973Y-114570576D02*
X118929354Y-114720100D01*
X118929354Y-114720100D02*
X119157926Y-114794861D01*
X119157926Y-114794861D02*
X119538878Y-114794861D01*
X117938878Y-114794861D02*
X117938878Y-113224861D01*
X117253164Y-114720100D02*
X117024592Y-114794861D01*
X117024592Y-114794861D02*
X116643640Y-114794861D01*
X116643640Y-114794861D02*
X116491259Y-114720100D01*
X116491259Y-114720100D02*
X116415068Y-114645338D01*
X116415068Y-114645338D02*
X116338878Y-114495814D01*
X116338878Y-114495814D02*
X116338878Y-114346290D01*
X116338878Y-114346290D02*
X116415068Y-114196766D01*
X116415068Y-114196766D02*
X116491259Y-114122004D01*
X116491259Y-114122004D02*
X116643640Y-114047242D01*
X116643640Y-114047242D02*
X116948402Y-113972480D01*
X116948402Y-113972480D02*
X117100783Y-113897719D01*
X117100783Y-113897719D02*
X117176973Y-113822957D01*
X117176973Y-113822957D02*
X117253164Y-113673433D01*
X117253164Y-113673433D02*
X117253164Y-113523909D01*
X117253164Y-113523909D02*
X117176973Y-113374385D01*
X117176973Y-113374385D02*
X117100783Y-113299623D01*
X117100783Y-113299623D02*
X116948402Y-113224861D01*
X116948402Y-113224861D02*
X116567449Y-113224861D01*
X116567449Y-113224861D02*
X116338878Y-113299623D01*
X115653163Y-114794861D02*
X115653163Y-113224861D01*
X115653163Y-113224861D02*
X115043639Y-113224861D01*
X115043639Y-113224861D02*
X114891258Y-113299623D01*
X114891258Y-113299623D02*
X114815068Y-113374385D01*
X114815068Y-113374385D02*
X114738877Y-113523909D01*
X114738877Y-113523909D02*
X114738877Y-113748195D01*
X114738877Y-113748195D02*
X114815068Y-113897719D01*
X114815068Y-113897719D02*
X114891258Y-113972480D01*
X114891258Y-113972480D02*
X115043639Y-114047242D01*
X115043639Y-114047242D02*
X115653163Y-114047242D01*
X113291258Y-114794861D02*
X114053163Y-114794861D01*
X114053163Y-114794861D02*
X114053163Y-113224861D01*
X113138878Y-114944385D02*
X111919830Y-114944385D01*
X110776972Y-114794861D02*
X111538877Y-114794861D01*
X111538877Y-114794861D02*
X111538877Y-113224861D01*
X110243639Y-113972480D02*
X109710306Y-113972480D01*
X109481734Y-114794861D02*
X110243639Y-114794861D01*
X110243639Y-114794861D02*
X110243639Y-113224861D01*
X110243639Y-113224861D02*
X109481734Y-113224861D01*
X108796020Y-114794861D02*
X108796020Y-113224861D01*
X108796020Y-113224861D02*
X108415068Y-113224861D01*
X108415068Y-113224861D02*
X108186496Y-113299623D01*
X108186496Y-113299623D02*
X108034115Y-113449147D01*
X108034115Y-113449147D02*
X107957925Y-113598671D01*
X107957925Y-113598671D02*
X107881734Y-113897719D01*
X107881734Y-113897719D02*
X107881734Y-114122004D01*
X107881734Y-114122004D02*
X107957925Y-114421052D01*
X107957925Y-114421052D02*
X108034115Y-114570576D01*
X108034115Y-114570576D02*
X108186496Y-114720100D01*
X108186496Y-114720100D02*
X108415068Y-114794861D01*
X108415068Y-114794861D02*
X108796020Y-114794861D01*
X232340179Y-127093045D02*
X230740179Y-126559711D01*
X230740179Y-126559711D02*
X232340179Y-126026378D01*
X230740179Y-125493044D02*
X231806846Y-125493044D01*
X232340179Y-125493044D02*
X232263989Y-125569235D01*
X232263989Y-125569235D02*
X232187798Y-125493044D01*
X232187798Y-125493044D02*
X232263989Y-125416854D01*
X232263989Y-125416854D02*
X232340179Y-125493044D01*
X232340179Y-125493044D02*
X232187798Y-125493044D01*
X231806846Y-124731139D02*
X230740179Y-124731139D01*
X231654465Y-124731139D02*
X231730655Y-124654949D01*
X231730655Y-124654949D02*
X231806846Y-124502568D01*
X231806846Y-124502568D02*
X231806846Y-124273996D01*
X231806846Y-124273996D02*
X231730655Y-124121615D01*
X231730655Y-124121615D02*
X231578274Y-124045425D01*
X231578274Y-124045425D02*
X230740179Y-124045425D01*
X229688079Y-127321615D02*
X229764269Y-127473996D01*
X229764269Y-127473996D02*
X229764269Y-127702567D01*
X229764269Y-127702567D02*
X229688079Y-127931139D01*
X229688079Y-127931139D02*
X229535698Y-128083520D01*
X229535698Y-128083520D02*
X229383317Y-128159710D01*
X229383317Y-128159710D02*
X229078555Y-128235901D01*
X229078555Y-128235901D02*
X228849983Y-128235901D01*
X228849983Y-128235901D02*
X228545221Y-128159710D01*
X228545221Y-128159710D02*
X228392840Y-128083520D01*
X228392840Y-128083520D02*
X228240460Y-127931139D01*
X228240460Y-127931139D02*
X228164269Y-127702567D01*
X228164269Y-127702567D02*
X228164269Y-127550186D01*
X228164269Y-127550186D02*
X228240460Y-127321615D01*
X228240460Y-127321615D02*
X228316650Y-127245424D01*
X228316650Y-127245424D02*
X228849983Y-127245424D01*
X228849983Y-127245424D02*
X228849983Y-127550186D01*
X228164269Y-126559710D02*
X229764269Y-126559710D01*
X229764269Y-126559710D02*
X228164269Y-125645424D01*
X228164269Y-125645424D02*
X229764269Y-125645424D01*
X228164269Y-124883520D02*
X229764269Y-124883520D01*
X229764269Y-124883520D02*
X229764269Y-124502568D01*
X229764269Y-124502568D02*
X229688079Y-124273996D01*
X229688079Y-124273996D02*
X229535698Y-124121615D01*
X229535698Y-124121615D02*
X229383317Y-124045425D01*
X229383317Y-124045425D02*
X229078555Y-123969234D01*
X229078555Y-123969234D02*
X228849983Y-123969234D01*
X228849983Y-123969234D02*
X228545221Y-124045425D01*
X228545221Y-124045425D02*
X228392840Y-124121615D01*
X228392840Y-124121615D02*
X228240460Y-124273996D01*
X228240460Y-124273996D02*
X228164269Y-124502568D01*
X228164269Y-124502568D02*
X228164269Y-124883520D01*
X227188359Y-128693045D02*
X227188359Y-127702569D01*
X227188359Y-127702569D02*
X226578835Y-128235902D01*
X226578835Y-128235902D02*
X226578835Y-128007331D01*
X226578835Y-128007331D02*
X226502645Y-127854950D01*
X226502645Y-127854950D02*
X226426454Y-127778759D01*
X226426454Y-127778759D02*
X226274073Y-127702569D01*
X226274073Y-127702569D02*
X225893121Y-127702569D01*
X225893121Y-127702569D02*
X225740740Y-127778759D01*
X225740740Y-127778759D02*
X225664550Y-127854950D01*
X225664550Y-127854950D02*
X225588359Y-128007331D01*
X225588359Y-128007331D02*
X225588359Y-128464474D01*
X225588359Y-128464474D02*
X225664550Y-128616855D01*
X225664550Y-128616855D02*
X225740740Y-128693045D01*
X225740740Y-127016854D02*
X225664550Y-126940664D01*
X225664550Y-126940664D02*
X225588359Y-127016854D01*
X225588359Y-127016854D02*
X225664550Y-127093045D01*
X225664550Y-127093045D02*
X225740740Y-127016854D01*
X225740740Y-127016854D02*
X225588359Y-127016854D01*
X227188359Y-126407330D02*
X227188359Y-125416854D01*
X227188359Y-125416854D02*
X226578835Y-125950187D01*
X226578835Y-125950187D02*
X226578835Y-125721616D01*
X226578835Y-125721616D02*
X226502645Y-125569235D01*
X226502645Y-125569235D02*
X226426454Y-125493044D01*
X226426454Y-125493044D02*
X226274073Y-125416854D01*
X226274073Y-125416854D02*
X225893121Y-125416854D01*
X225893121Y-125416854D02*
X225740740Y-125493044D01*
X225740740Y-125493044D02*
X225664550Y-125569235D01*
X225664550Y-125569235D02*
X225588359Y-125721616D01*
X225588359Y-125721616D02*
X225588359Y-126178759D01*
X225588359Y-126178759D02*
X225664550Y-126331140D01*
X225664550Y-126331140D02*
X225740740Y-126407330D01*
X225588359Y-124502568D02*
X225664550Y-124654949D01*
X225664550Y-124654949D02*
X225740740Y-124731139D01*
X225740740Y-124731139D02*
X225893121Y-124807330D01*
X225893121Y-124807330D02*
X226350264Y-124807330D01*
X226350264Y-124807330D02*
X226502645Y-124731139D01*
X226502645Y-124731139D02*
X226578835Y-124654949D01*
X226578835Y-124654949D02*
X226655026Y-124502568D01*
X226655026Y-124502568D02*
X226655026Y-124273996D01*
X226655026Y-124273996D02*
X226578835Y-124121615D01*
X226578835Y-124121615D02*
X226502645Y-124045425D01*
X226502645Y-124045425D02*
X226350264Y-123969234D01*
X226350264Y-123969234D02*
X225893121Y-123969234D01*
X225893121Y-123969234D02*
X225740740Y-124045425D01*
X225740740Y-124045425D02*
X225664550Y-124121615D01*
X225664550Y-124121615D02*
X225588359Y-124273996D01*
X225588359Y-124273996D02*
X225588359Y-124502568D01*
X223088640Y-128083521D02*
X223012449Y-127854949D01*
X223012449Y-127854949D02*
X223012449Y-127473997D01*
X223012449Y-127473997D02*
X223088640Y-127321616D01*
X223088640Y-127321616D02*
X223164830Y-127245425D01*
X223164830Y-127245425D02*
X223317211Y-127169235D01*
X223317211Y-127169235D02*
X223469592Y-127169235D01*
X223469592Y-127169235D02*
X223621973Y-127245425D01*
X223621973Y-127245425D02*
X223698163Y-127321616D01*
X223698163Y-127321616D02*
X223774354Y-127473997D01*
X223774354Y-127473997D02*
X223850544Y-127778759D01*
X223850544Y-127778759D02*
X223926735Y-127931140D01*
X223926735Y-127931140D02*
X224002925Y-128007330D01*
X224002925Y-128007330D02*
X224155306Y-128083521D01*
X224155306Y-128083521D02*
X224307687Y-128083521D01*
X224307687Y-128083521D02*
X224460068Y-128007330D01*
X224460068Y-128007330D02*
X224536259Y-127931140D01*
X224536259Y-127931140D02*
X224612449Y-127778759D01*
X224612449Y-127778759D02*
X224612449Y-127397806D01*
X224612449Y-127397806D02*
X224536259Y-127169235D01*
X223164830Y-125569234D02*
X223088640Y-125645425D01*
X223088640Y-125645425D02*
X223012449Y-125873996D01*
X223012449Y-125873996D02*
X223012449Y-126026377D01*
X223012449Y-126026377D02*
X223088640Y-126254949D01*
X223088640Y-126254949D02*
X223241020Y-126407330D01*
X223241020Y-126407330D02*
X223393401Y-126483520D01*
X223393401Y-126483520D02*
X223698163Y-126559711D01*
X223698163Y-126559711D02*
X223926735Y-126559711D01*
X223926735Y-126559711D02*
X224231497Y-126483520D01*
X224231497Y-126483520D02*
X224383878Y-126407330D01*
X224383878Y-126407330D02*
X224536259Y-126254949D01*
X224536259Y-126254949D02*
X224612449Y-126026377D01*
X224612449Y-126026377D02*
X224612449Y-125873996D01*
X224612449Y-125873996D02*
X224536259Y-125645425D01*
X224536259Y-125645425D02*
X224460068Y-125569234D01*
X223012449Y-124883520D02*
X224612449Y-124883520D01*
X223012449Y-123969234D02*
X223926735Y-124654949D01*
X224612449Y-123969234D02*
X223698163Y-124883520D01*
X220512730Y-128159711D02*
X220436539Y-127931139D01*
X220436539Y-127931139D02*
X220436539Y-127550187D01*
X220436539Y-127550187D02*
X220512730Y-127397806D01*
X220512730Y-127397806D02*
X220588920Y-127321615D01*
X220588920Y-127321615D02*
X220741301Y-127245425D01*
X220741301Y-127245425D02*
X220893682Y-127245425D01*
X220893682Y-127245425D02*
X221046063Y-127321615D01*
X221046063Y-127321615D02*
X221122253Y-127397806D01*
X221122253Y-127397806D02*
X221198444Y-127550187D01*
X221198444Y-127550187D02*
X221274634Y-127854949D01*
X221274634Y-127854949D02*
X221350825Y-128007330D01*
X221350825Y-128007330D02*
X221427015Y-128083520D01*
X221427015Y-128083520D02*
X221579396Y-128159711D01*
X221579396Y-128159711D02*
X221731777Y-128159711D01*
X221731777Y-128159711D02*
X221884158Y-128083520D01*
X221884158Y-128083520D02*
X221960349Y-128007330D01*
X221960349Y-128007330D02*
X222036539Y-127854949D01*
X222036539Y-127854949D02*
X222036539Y-127473996D01*
X222036539Y-127473996D02*
X221960349Y-127245425D01*
X220436539Y-126559710D02*
X222036539Y-126559710D01*
X222036539Y-126559710D02*
X222036539Y-126178758D01*
X222036539Y-126178758D02*
X221960349Y-125950186D01*
X221960349Y-125950186D02*
X221807968Y-125797805D01*
X221807968Y-125797805D02*
X221655587Y-125721615D01*
X221655587Y-125721615D02*
X221350825Y-125645424D01*
X221350825Y-125645424D02*
X221122253Y-125645424D01*
X221122253Y-125645424D02*
X220817491Y-125721615D01*
X220817491Y-125721615D02*
X220665110Y-125797805D01*
X220665110Y-125797805D02*
X220512730Y-125950186D01*
X220512730Y-125950186D02*
X220436539Y-126178758D01*
X220436539Y-126178758D02*
X220436539Y-126559710D01*
X222036539Y-124654948D02*
X222036539Y-124350186D01*
X222036539Y-124350186D02*
X221960349Y-124197805D01*
X221960349Y-124197805D02*
X221807968Y-124045424D01*
X221807968Y-124045424D02*
X221503206Y-123969234D01*
X221503206Y-123969234D02*
X220969872Y-123969234D01*
X220969872Y-123969234D02*
X220665110Y-124045424D01*
X220665110Y-124045424D02*
X220512730Y-124197805D01*
X220512730Y-124197805D02*
X220436539Y-124350186D01*
X220436539Y-124350186D02*
X220436539Y-124654948D01*
X220436539Y-124654948D02*
X220512730Y-124807329D01*
X220512730Y-124807329D02*
X220665110Y-124959710D01*
X220665110Y-124959710D02*
X220969872Y-125035901D01*
X220969872Y-125035901D02*
X221503206Y-125035901D01*
X221503206Y-125035901D02*
X221807968Y-124959710D01*
X221807968Y-124959710D02*
X221960349Y-124807329D01*
X221960349Y-124807329D02*
X222036539Y-124654948D01*
X217936820Y-127245426D02*
X217860629Y-127016854D01*
X217860629Y-127016854D02*
X217860629Y-126635902D01*
X217860629Y-126635902D02*
X217936820Y-126483521D01*
X217936820Y-126483521D02*
X218013010Y-126407330D01*
X218013010Y-126407330D02*
X218165391Y-126331140D01*
X218165391Y-126331140D02*
X218317772Y-126331140D01*
X218317772Y-126331140D02*
X218470153Y-126407330D01*
X218470153Y-126407330D02*
X218546343Y-126483521D01*
X218546343Y-126483521D02*
X218622534Y-126635902D01*
X218622534Y-126635902D02*
X218698724Y-126940664D01*
X218698724Y-126940664D02*
X218774915Y-127093045D01*
X218774915Y-127093045D02*
X218851105Y-127169235D01*
X218851105Y-127169235D02*
X219003486Y-127245426D01*
X219003486Y-127245426D02*
X219155867Y-127245426D01*
X219155867Y-127245426D02*
X219308248Y-127169235D01*
X219308248Y-127169235D02*
X219384439Y-127093045D01*
X219384439Y-127093045D02*
X219460629Y-126940664D01*
X219460629Y-126940664D02*
X219460629Y-126559711D01*
X219460629Y-126559711D02*
X219384439Y-126331140D01*
X217860629Y-125645425D02*
X219460629Y-125645425D01*
X219460629Y-125645425D02*
X219460629Y-125264473D01*
X219460629Y-125264473D02*
X219384439Y-125035901D01*
X219384439Y-125035901D02*
X219232058Y-124883520D01*
X219232058Y-124883520D02*
X219079677Y-124807330D01*
X219079677Y-124807330D02*
X218774915Y-124731139D01*
X218774915Y-124731139D02*
X218546343Y-124731139D01*
X218546343Y-124731139D02*
X218241581Y-124807330D01*
X218241581Y-124807330D02*
X218089200Y-124883520D01*
X218089200Y-124883520D02*
X217936820Y-125035901D01*
X217936820Y-125035901D02*
X217860629Y-125264473D01*
X217860629Y-125264473D02*
X217860629Y-125645425D01*
X217860629Y-124045425D02*
X219460629Y-124045425D01*
X215437100Y-125493044D02*
X215360910Y-125569235D01*
X215360910Y-125569235D02*
X215284719Y-125797806D01*
X215284719Y-125797806D02*
X215284719Y-125950187D01*
X215284719Y-125950187D02*
X215360910Y-126178759D01*
X215360910Y-126178759D02*
X215513290Y-126331140D01*
X215513290Y-126331140D02*
X215665671Y-126407330D01*
X215665671Y-126407330D02*
X215970433Y-126483521D01*
X215970433Y-126483521D02*
X216199005Y-126483521D01*
X216199005Y-126483521D02*
X216503767Y-126407330D01*
X216503767Y-126407330D02*
X216656148Y-126331140D01*
X216656148Y-126331140D02*
X216808529Y-126178759D01*
X216808529Y-126178759D02*
X216884719Y-125950187D01*
X216884719Y-125950187D02*
X216884719Y-125797806D01*
X216884719Y-125797806D02*
X216808529Y-125569235D01*
X216808529Y-125569235D02*
X216732338Y-125493044D01*
X215360910Y-124883521D02*
X215284719Y-124654949D01*
X215284719Y-124654949D02*
X215284719Y-124273997D01*
X215284719Y-124273997D02*
X215360910Y-124121616D01*
X215360910Y-124121616D02*
X215437100Y-124045425D01*
X215437100Y-124045425D02*
X215589481Y-123969235D01*
X215589481Y-123969235D02*
X215741862Y-123969235D01*
X215741862Y-123969235D02*
X215894243Y-124045425D01*
X215894243Y-124045425D02*
X215970433Y-124121616D01*
X215970433Y-124121616D02*
X216046624Y-124273997D01*
X216046624Y-124273997D02*
X216122814Y-124578759D01*
X216122814Y-124578759D02*
X216199005Y-124731140D01*
X216199005Y-124731140D02*
X216275195Y-124807330D01*
X216275195Y-124807330D02*
X216427576Y-124883521D01*
X216427576Y-124883521D02*
X216579957Y-124883521D01*
X216579957Y-124883521D02*
X216732338Y-124807330D01*
X216732338Y-124807330D02*
X216808529Y-124731140D01*
X216808529Y-124731140D02*
X216884719Y-124578759D01*
X216884719Y-124578759D02*
X216884719Y-124197806D01*
X216884719Y-124197806D02*
X216808529Y-123969235D01*
X212708809Y-126940663D02*
X213470714Y-127473997D01*
X212708809Y-127854949D02*
X214308809Y-127854949D01*
X214308809Y-127854949D02*
X214308809Y-127245425D01*
X214308809Y-127245425D02*
X214232619Y-127093044D01*
X214232619Y-127093044D02*
X214156428Y-127016854D01*
X214156428Y-127016854D02*
X214004047Y-126940663D01*
X214004047Y-126940663D02*
X213775476Y-126940663D01*
X213775476Y-126940663D02*
X213623095Y-127016854D01*
X213623095Y-127016854D02*
X213546904Y-127093044D01*
X213546904Y-127093044D02*
X213470714Y-127245425D01*
X213470714Y-127245425D02*
X213470714Y-127854949D01*
X212708809Y-126254949D02*
X214308809Y-126254949D01*
X214308809Y-126254949D02*
X214308809Y-125873997D01*
X214308809Y-125873997D02*
X214232619Y-125645425D01*
X214232619Y-125645425D02*
X214080238Y-125493044D01*
X214080238Y-125493044D02*
X213927857Y-125416854D01*
X213927857Y-125416854D02*
X213623095Y-125340663D01*
X213623095Y-125340663D02*
X213394523Y-125340663D01*
X213394523Y-125340663D02*
X213089761Y-125416854D01*
X213089761Y-125416854D02*
X212937380Y-125493044D01*
X212937380Y-125493044D02*
X212785000Y-125645425D01*
X212785000Y-125645425D02*
X212708809Y-125873997D01*
X212708809Y-125873997D02*
X212708809Y-126254949D01*
X213470714Y-124350187D02*
X212708809Y-124350187D01*
X214308809Y-124883521D02*
X213470714Y-124350187D01*
X213470714Y-124350187D02*
X214308809Y-123816854D01*
X99921241Y-96409864D02*
X99692669Y-96484150D01*
X99692669Y-96484150D02*
X99616479Y-96558436D01*
X99616479Y-96558436D02*
X99540288Y-96707007D01*
X99540288Y-96707007D02*
X99540288Y-96929864D01*
X99540288Y-96929864D02*
X99616479Y-97078436D01*
X99616479Y-97078436D02*
X99692669Y-97152722D01*
X99692669Y-97152722D02*
X99845050Y-97227007D01*
X99845050Y-97227007D02*
X100454574Y-97227007D01*
X100454574Y-97227007D02*
X100454574Y-95667007D01*
X100454574Y-95667007D02*
X99921241Y-95667007D01*
X99921241Y-95667007D02*
X99768860Y-95741293D01*
X99768860Y-95741293D02*
X99692669Y-95815579D01*
X99692669Y-95815579D02*
X99616479Y-95964150D01*
X99616479Y-95964150D02*
X99616479Y-96112722D01*
X99616479Y-96112722D02*
X99692669Y-96261293D01*
X99692669Y-96261293D02*
X99768860Y-96335579D01*
X99768860Y-96335579D02*
X99921241Y-96409864D01*
X99921241Y-96409864D02*
X100454574Y-96409864D01*
X98930765Y-95815579D02*
X98854574Y-95741293D01*
X98854574Y-95741293D02*
X98702193Y-95667007D01*
X98702193Y-95667007D02*
X98321241Y-95667007D01*
X98321241Y-95667007D02*
X98168860Y-95741293D01*
X98168860Y-95741293D02*
X98092669Y-95815579D01*
X98092669Y-95815579D02*
X98016479Y-95964150D01*
X98016479Y-95964150D02*
X98016479Y-96112722D01*
X98016479Y-96112722D02*
X98092669Y-96335579D01*
X98092669Y-96335579D02*
X99006955Y-97227007D01*
X99006955Y-97227007D02*
X98016479Y-97227007D01*
X100454574Y-112296085D02*
X100454574Y-110736085D01*
X100454574Y-110736085D02*
X100073622Y-110736085D01*
X100073622Y-110736085D02*
X99845050Y-110810371D01*
X99845050Y-110810371D02*
X99692669Y-110958942D01*
X99692669Y-110958942D02*
X99616479Y-111107514D01*
X99616479Y-111107514D02*
X99540288Y-111404657D01*
X99540288Y-111404657D02*
X99540288Y-111627514D01*
X99540288Y-111627514D02*
X99616479Y-111924657D01*
X99616479Y-111924657D02*
X99692669Y-112073228D01*
X99692669Y-112073228D02*
X99845050Y-112221800D01*
X99845050Y-112221800D02*
X100073622Y-112296085D01*
X100073622Y-112296085D02*
X100454574Y-112296085D01*
X98854574Y-112296085D02*
X98854574Y-110736085D01*
X98168860Y-112221800D02*
X97940288Y-112296085D01*
X97940288Y-112296085D02*
X97559336Y-112296085D01*
X97559336Y-112296085D02*
X97406955Y-112221800D01*
X97406955Y-112221800D02*
X97330764Y-112147514D01*
X97330764Y-112147514D02*
X97254574Y-111998942D01*
X97254574Y-111998942D02*
X97254574Y-111850371D01*
X97254574Y-111850371D02*
X97330764Y-111701800D01*
X97330764Y-111701800D02*
X97406955Y-111627514D01*
X97406955Y-111627514D02*
X97559336Y-111553228D01*
X97559336Y-111553228D02*
X97864098Y-111478942D01*
X97864098Y-111478942D02*
X98016479Y-111404657D01*
X98016479Y-111404657D02*
X98092669Y-111330371D01*
X98092669Y-111330371D02*
X98168860Y-111181800D01*
X98168860Y-111181800D02*
X98168860Y-111033228D01*
X98168860Y-111033228D02*
X98092669Y-110884657D01*
X98092669Y-110884657D02*
X98016479Y-110810371D01*
X98016479Y-110810371D02*
X97864098Y-110736085D01*
X97864098Y-110736085D02*
X97483145Y-110736085D01*
X97483145Y-110736085D02*
X97254574Y-110810371D01*
X96568859Y-112296085D02*
X96568859Y-110736085D01*
X96568859Y-110736085D02*
X95959335Y-110736085D01*
X95959335Y-110736085D02*
X95806954Y-110810371D01*
X95806954Y-110810371D02*
X95730764Y-110884657D01*
X95730764Y-110884657D02*
X95654573Y-111033228D01*
X95654573Y-111033228D02*
X95654573Y-111256085D01*
X95654573Y-111256085D02*
X95730764Y-111404657D01*
X95730764Y-111404657D02*
X95806954Y-111478942D01*
X95806954Y-111478942D02*
X95959335Y-111553228D01*
X95959335Y-111553228D02*
X96568859Y-111553228D01*
X94206954Y-112296085D02*
X94968859Y-112296085D01*
X94968859Y-112296085D02*
X94968859Y-110736085D01*
X94054574Y-112444657D02*
X92835526Y-112444657D01*
X91540287Y-112296085D02*
X92073621Y-111553228D01*
X92454573Y-112296085D02*
X92454573Y-110736085D01*
X92454573Y-110736085D02*
X91845049Y-110736085D01*
X91845049Y-110736085D02*
X91692668Y-110810371D01*
X91692668Y-110810371D02*
X91616478Y-110884657D01*
X91616478Y-110884657D02*
X91540287Y-111033228D01*
X91540287Y-111033228D02*
X91540287Y-111256085D01*
X91540287Y-111256085D02*
X91616478Y-111404657D01*
X91616478Y-111404657D02*
X91692668Y-111478942D01*
X91692668Y-111478942D02*
X91845049Y-111553228D01*
X91845049Y-111553228D02*
X92454573Y-111553228D01*
X90930764Y-112221800D02*
X90702192Y-112296085D01*
X90702192Y-112296085D02*
X90321240Y-112296085D01*
X90321240Y-112296085D02*
X90168859Y-112221800D01*
X90168859Y-112221800D02*
X90092668Y-112147514D01*
X90092668Y-112147514D02*
X90016478Y-111998942D01*
X90016478Y-111998942D02*
X90016478Y-111850371D01*
X90016478Y-111850371D02*
X90092668Y-111701800D01*
X90092668Y-111701800D02*
X90168859Y-111627514D01*
X90168859Y-111627514D02*
X90321240Y-111553228D01*
X90321240Y-111553228D02*
X90626002Y-111478942D01*
X90626002Y-111478942D02*
X90778383Y-111404657D01*
X90778383Y-111404657D02*
X90854573Y-111330371D01*
X90854573Y-111330371D02*
X90930764Y-111181800D01*
X90930764Y-111181800D02*
X90930764Y-111033228D01*
X90930764Y-111033228D02*
X90854573Y-110884657D01*
X90854573Y-110884657D02*
X90778383Y-110810371D01*
X90778383Y-110810371D02*
X90626002Y-110736085D01*
X90626002Y-110736085D02*
X90245049Y-110736085D01*
X90245049Y-110736085D02*
X90016478Y-110810371D01*
X89559335Y-110736085D02*
X88645049Y-110736085D01*
X89102192Y-112296085D02*
X89102192Y-110736085D01*
D12*
X226983928Y-66454819D02*
X227317261Y-65978628D01*
X227555356Y-66454819D02*
X227555356Y-65454819D01*
X227555356Y-65454819D02*
X227174404Y-65454819D01*
X227174404Y-65454819D02*
X227079166Y-65502438D01*
X227079166Y-65502438D02*
X227031547Y-65550057D01*
X227031547Y-65550057D02*
X226983928Y-65645295D01*
X226983928Y-65645295D02*
X226983928Y-65788152D01*
X226983928Y-65788152D02*
X227031547Y-65883390D01*
X227031547Y-65883390D02*
X227079166Y-65931009D01*
X227079166Y-65931009D02*
X227174404Y-65978628D01*
X227174404Y-65978628D02*
X227555356Y-65978628D01*
X226698213Y-65454819D02*
X226126785Y-65454819D01*
X226412499Y-66454819D02*
X226412499Y-65454819D01*
X225793451Y-66454819D02*
X225793451Y-65454819D01*
X225793451Y-65454819D02*
X225555356Y-65454819D01*
X225555356Y-65454819D02*
X225412499Y-65502438D01*
X225412499Y-65502438D02*
X225317261Y-65597676D01*
X225317261Y-65597676D02*
X225269642Y-65692914D01*
X225269642Y-65692914D02*
X225222023Y-65883390D01*
X225222023Y-65883390D02*
X225222023Y-66026247D01*
X225222023Y-66026247D02*
X225269642Y-66216723D01*
X225269642Y-66216723D02*
X225317261Y-66311961D01*
X225317261Y-66311961D02*
X225412499Y-66407200D01*
X225412499Y-66407200D02*
X225555356Y-66454819D01*
X225555356Y-66454819D02*
X225793451Y-66454819D01*
D13*
X234935469Y-139549161D02*
X235030707Y-139644400D01*
X235030707Y-139644400D02*
X235316421Y-139739638D01*
X235316421Y-139739638D02*
X235506897Y-139739638D01*
X235506897Y-139739638D02*
X235792612Y-139644400D01*
X235792612Y-139644400D02*
X235983088Y-139453923D01*
X235983088Y-139453923D02*
X236078326Y-139263447D01*
X236078326Y-139263447D02*
X236173564Y-138882495D01*
X236173564Y-138882495D02*
X236173564Y-138596780D01*
X236173564Y-138596780D02*
X236078326Y-138215828D01*
X236078326Y-138215828D02*
X235983088Y-138025352D01*
X235983088Y-138025352D02*
X235792612Y-137834876D01*
X235792612Y-137834876D02*
X235506897Y-137739638D01*
X235506897Y-137739638D02*
X235316421Y-137739638D01*
X235316421Y-137739638D02*
X235030707Y-137834876D01*
X235030707Y-137834876D02*
X234935469Y-137930114D01*
X234078326Y-138977733D02*
X232554517Y-138977733D01*
X231887850Y-137739638D02*
X230744993Y-137739638D01*
X231316422Y-139739638D02*
X231316422Y-137739638D01*
X230078326Y-139739638D02*
X230078326Y-137739638D01*
X229221183Y-139739638D02*
X229221183Y-138692019D01*
X229221183Y-138692019D02*
X229316421Y-138501542D01*
X229316421Y-138501542D02*
X229506897Y-138406304D01*
X229506897Y-138406304D02*
X229792612Y-138406304D01*
X229792612Y-138406304D02*
X229983088Y-138501542D01*
X229983088Y-138501542D02*
X230078326Y-138596780D01*
X227506897Y-139644400D02*
X227697373Y-139739638D01*
X227697373Y-139739638D02*
X228078326Y-139739638D01*
X228078326Y-139739638D02*
X228268802Y-139644400D01*
X228268802Y-139644400D02*
X228364040Y-139453923D01*
X228364040Y-139453923D02*
X228364040Y-138692019D01*
X228364040Y-138692019D02*
X228268802Y-138501542D01*
X228268802Y-138501542D02*
X228078326Y-138406304D01*
X228078326Y-138406304D02*
X227697373Y-138406304D01*
X227697373Y-138406304D02*
X227506897Y-138501542D01*
X227506897Y-138501542D02*
X227411659Y-138692019D01*
X227411659Y-138692019D02*
X227411659Y-138882495D01*
X227411659Y-138882495D02*
X228364040Y-139072971D01*
X226554516Y-139739638D02*
X226554516Y-138406304D01*
X226554516Y-138787257D02*
X226459278Y-138596780D01*
X226459278Y-138596780D02*
X226364040Y-138501542D01*
X226364040Y-138501542D02*
X226173564Y-138406304D01*
X226173564Y-138406304D02*
X225983087Y-138406304D01*
X225316421Y-139739638D02*
X225316421Y-138406304D01*
X225316421Y-138596780D02*
X225221183Y-138501542D01*
X225221183Y-138501542D02*
X225030707Y-138406304D01*
X225030707Y-138406304D02*
X224744992Y-138406304D01*
X224744992Y-138406304D02*
X224554516Y-138501542D01*
X224554516Y-138501542D02*
X224459278Y-138692019D01*
X224459278Y-138692019D02*
X224459278Y-139739638D01*
X224459278Y-138692019D02*
X224364040Y-138501542D01*
X224364040Y-138501542D02*
X224173564Y-138406304D01*
X224173564Y-138406304D02*
X223887850Y-138406304D01*
X223887850Y-138406304D02*
X223697373Y-138501542D01*
X223697373Y-138501542D02*
X223602135Y-138692019D01*
X223602135Y-138692019D02*
X223602135Y-139739638D01*
X221411658Y-137739638D02*
X220268801Y-137739638D01*
X220840230Y-139739638D02*
X220840230Y-137739638D01*
X218649753Y-139739638D02*
X219602134Y-139739638D01*
X219602134Y-139739638D02*
X219602134Y-137739638D01*
X218078324Y-139644400D02*
X217792610Y-139739638D01*
X217792610Y-139739638D02*
X217316419Y-139739638D01*
X217316419Y-139739638D02*
X217125943Y-139644400D01*
X217125943Y-139644400D02*
X217030705Y-139549161D01*
X217030705Y-139549161D02*
X216935467Y-139358685D01*
X216935467Y-139358685D02*
X216935467Y-139168209D01*
X216935467Y-139168209D02*
X217030705Y-138977733D01*
X217030705Y-138977733D02*
X217125943Y-138882495D01*
X217125943Y-138882495D02*
X217316419Y-138787257D01*
X217316419Y-138787257D02*
X217697372Y-138692019D01*
X217697372Y-138692019D02*
X217887848Y-138596780D01*
X217887848Y-138596780D02*
X217983086Y-138501542D01*
X217983086Y-138501542D02*
X218078324Y-138311066D01*
X218078324Y-138311066D02*
X218078324Y-138120590D01*
X218078324Y-138120590D02*
X217983086Y-137930114D01*
X217983086Y-137930114D02*
X217887848Y-137834876D01*
X217887848Y-137834876D02*
X217697372Y-137739638D01*
X217697372Y-137739638D02*
X217221181Y-137739638D01*
X217221181Y-137739638D02*
X216935467Y-137834876D01*
X214554514Y-139739638D02*
X214554514Y-137739638D01*
X214554514Y-138692019D02*
X213411657Y-138692019D01*
X213411657Y-139739638D02*
X213411657Y-137739638D01*
X211602133Y-139739638D02*
X211602133Y-138692019D01*
X211602133Y-138692019D02*
X211697371Y-138501542D01*
X211697371Y-138501542D02*
X211887847Y-138406304D01*
X211887847Y-138406304D02*
X212268800Y-138406304D01*
X212268800Y-138406304D02*
X212459276Y-138501542D01*
X211602133Y-139644400D02*
X211792609Y-139739638D01*
X211792609Y-139739638D02*
X212268800Y-139739638D01*
X212268800Y-139739638D02*
X212459276Y-139644400D01*
X212459276Y-139644400D02*
X212554514Y-139453923D01*
X212554514Y-139453923D02*
X212554514Y-139263447D01*
X212554514Y-139263447D02*
X212459276Y-139072971D01*
X212459276Y-139072971D02*
X212268800Y-138977733D01*
X212268800Y-138977733D02*
X211792609Y-138977733D01*
X211792609Y-138977733D02*
X211602133Y-138882495D01*
X210649752Y-138406304D02*
X210649752Y-139739638D01*
X210649752Y-138596780D02*
X210554514Y-138501542D01*
X210554514Y-138501542D02*
X210364038Y-138406304D01*
X210364038Y-138406304D02*
X210078323Y-138406304D01*
X210078323Y-138406304D02*
X209887847Y-138501542D01*
X209887847Y-138501542D02*
X209792609Y-138692019D01*
X209792609Y-138692019D02*
X209792609Y-139739638D01*
X207983085Y-139739638D02*
X207983085Y-137739638D01*
X207983085Y-139644400D02*
X208173561Y-139739638D01*
X208173561Y-139739638D02*
X208554514Y-139739638D01*
X208554514Y-139739638D02*
X208744990Y-139644400D01*
X208744990Y-139644400D02*
X208840228Y-139549161D01*
X208840228Y-139549161D02*
X208935466Y-139358685D01*
X208935466Y-139358685D02*
X208935466Y-138787257D01*
X208935466Y-138787257D02*
X208840228Y-138596780D01*
X208840228Y-138596780D02*
X208744990Y-138501542D01*
X208744990Y-138501542D02*
X208554514Y-138406304D01*
X208554514Y-138406304D02*
X208173561Y-138406304D01*
X208173561Y-138406304D02*
X207983085Y-138501542D01*
X207030704Y-139739638D02*
X207030704Y-137739638D01*
X206173561Y-139739638D02*
X206173561Y-138692019D01*
X206173561Y-138692019D02*
X206268799Y-138501542D01*
X206268799Y-138501542D02*
X206459275Y-138406304D01*
X206459275Y-138406304D02*
X206744990Y-138406304D01*
X206744990Y-138406304D02*
X206935466Y-138501542D01*
X206935466Y-138501542D02*
X207030704Y-138596780D01*
X204459275Y-139644400D02*
X204649751Y-139739638D01*
X204649751Y-139739638D02*
X205030704Y-139739638D01*
X205030704Y-139739638D02*
X205221180Y-139644400D01*
X205221180Y-139644400D02*
X205316418Y-139453923D01*
X205316418Y-139453923D02*
X205316418Y-138692019D01*
X205316418Y-138692019D02*
X205221180Y-138501542D01*
X205221180Y-138501542D02*
X205030704Y-138406304D01*
X205030704Y-138406304D02*
X204649751Y-138406304D01*
X204649751Y-138406304D02*
X204459275Y-138501542D01*
X204459275Y-138501542D02*
X204364037Y-138692019D01*
X204364037Y-138692019D02*
X204364037Y-138882495D01*
X204364037Y-138882495D02*
X205316418Y-139072971D01*
X203221180Y-139739638D02*
X203411656Y-139644400D01*
X203411656Y-139644400D02*
X203506894Y-139453923D01*
X203506894Y-139453923D02*
X203506894Y-137739638D01*
X201602132Y-139739638D02*
X201602132Y-137739638D01*
X201602132Y-139644400D02*
X201792608Y-139739638D01*
X201792608Y-139739638D02*
X202173561Y-139739638D01*
X202173561Y-139739638D02*
X202364037Y-139644400D01*
X202364037Y-139644400D02*
X202459275Y-139549161D01*
X202459275Y-139549161D02*
X202554513Y-139358685D01*
X202554513Y-139358685D02*
X202554513Y-138787257D01*
X202554513Y-138787257D02*
X202459275Y-138596780D01*
X202459275Y-138596780D02*
X202364037Y-138501542D01*
X202364037Y-138501542D02*
X202173561Y-138406304D01*
X202173561Y-138406304D02*
X201792608Y-138406304D01*
X201792608Y-138406304D02*
X201602132Y-138501542D01*
X199221179Y-139644400D02*
X198935465Y-139739638D01*
X198935465Y-139739638D02*
X198459274Y-139739638D01*
X198459274Y-139739638D02*
X198268798Y-139644400D01*
X198268798Y-139644400D02*
X198173560Y-139549161D01*
X198173560Y-139549161D02*
X198078322Y-139358685D01*
X198078322Y-139358685D02*
X198078322Y-139168209D01*
X198078322Y-139168209D02*
X198173560Y-138977733D01*
X198173560Y-138977733D02*
X198268798Y-138882495D01*
X198268798Y-138882495D02*
X198459274Y-138787257D01*
X198459274Y-138787257D02*
X198840227Y-138692019D01*
X198840227Y-138692019D02*
X199030703Y-138596780D01*
X199030703Y-138596780D02*
X199125941Y-138501542D01*
X199125941Y-138501542D02*
X199221179Y-138311066D01*
X199221179Y-138311066D02*
X199221179Y-138120590D01*
X199221179Y-138120590D02*
X199125941Y-137930114D01*
X199125941Y-137930114D02*
X199030703Y-137834876D01*
X199030703Y-137834876D02*
X198840227Y-137739638D01*
X198840227Y-137739638D02*
X198364036Y-137739638D01*
X198364036Y-137739638D02*
X198078322Y-137834876D01*
X197411655Y-138406304D02*
X196935465Y-139739638D01*
X196459274Y-138406304D02*
X196935465Y-139739638D01*
X196935465Y-139739638D02*
X197125941Y-140215828D01*
X197125941Y-140215828D02*
X197221179Y-140311066D01*
X197221179Y-140311066D02*
X197411655Y-140406304D01*
X195792607Y-139644400D02*
X195602131Y-139739638D01*
X195602131Y-139739638D02*
X195221179Y-139739638D01*
X195221179Y-139739638D02*
X195030702Y-139644400D01*
X195030702Y-139644400D02*
X194935464Y-139453923D01*
X194935464Y-139453923D02*
X194935464Y-139358685D01*
X194935464Y-139358685D02*
X195030702Y-139168209D01*
X195030702Y-139168209D02*
X195221179Y-139072971D01*
X195221179Y-139072971D02*
X195506893Y-139072971D01*
X195506893Y-139072971D02*
X195697369Y-138977733D01*
X195697369Y-138977733D02*
X195792607Y-138787257D01*
X195792607Y-138787257D02*
X195792607Y-138692019D01*
X195792607Y-138692019D02*
X195697369Y-138501542D01*
X195697369Y-138501542D02*
X195506893Y-138406304D01*
X195506893Y-138406304D02*
X195221179Y-138406304D01*
X195221179Y-138406304D02*
X195030702Y-138501542D01*
X194364035Y-138406304D02*
X193602131Y-138406304D01*
X194078321Y-137739638D02*
X194078321Y-139453923D01*
X194078321Y-139453923D02*
X193983083Y-139644400D01*
X193983083Y-139644400D02*
X193792607Y-139739638D01*
X193792607Y-139739638D02*
X193602131Y-139739638D01*
X192173559Y-139644400D02*
X192364035Y-139739638D01*
X192364035Y-139739638D02*
X192744988Y-139739638D01*
X192744988Y-139739638D02*
X192935464Y-139644400D01*
X192935464Y-139644400D02*
X193030702Y-139453923D01*
X193030702Y-139453923D02*
X193030702Y-138692019D01*
X193030702Y-138692019D02*
X192935464Y-138501542D01*
X192935464Y-138501542D02*
X192744988Y-138406304D01*
X192744988Y-138406304D02*
X192364035Y-138406304D01*
X192364035Y-138406304D02*
X192173559Y-138501542D01*
X192173559Y-138501542D02*
X192078321Y-138692019D01*
X192078321Y-138692019D02*
X192078321Y-138882495D01*
X192078321Y-138882495D02*
X193030702Y-139072971D01*
X191221178Y-139739638D02*
X191221178Y-138406304D01*
X191221178Y-138596780D02*
X191125940Y-138501542D01*
X191125940Y-138501542D02*
X190935464Y-138406304D01*
X190935464Y-138406304D02*
X190649749Y-138406304D01*
X190649749Y-138406304D02*
X190459273Y-138501542D01*
X190459273Y-138501542D02*
X190364035Y-138692019D01*
X190364035Y-138692019D02*
X190364035Y-139739638D01*
X190364035Y-138692019D02*
X190268797Y-138501542D01*
X190268797Y-138501542D02*
X190078321Y-138406304D01*
X190078321Y-138406304D02*
X189792607Y-138406304D01*
X189792607Y-138406304D02*
X189602130Y-138501542D01*
X189602130Y-138501542D02*
X189506892Y-138692019D01*
X189506892Y-138692019D02*
X189506892Y-139739638D01*
X187030701Y-139739638D02*
X187030701Y-137739638D01*
X187030701Y-137739638D02*
X186268796Y-137739638D01*
X186268796Y-137739638D02*
X186078320Y-137834876D01*
X186078320Y-137834876D02*
X185983082Y-137930114D01*
X185983082Y-137930114D02*
X185887844Y-138120590D01*
X185887844Y-138120590D02*
X185887844Y-138406304D01*
X185887844Y-138406304D02*
X185983082Y-138596780D01*
X185983082Y-138596780D02*
X186078320Y-138692019D01*
X186078320Y-138692019D02*
X186268796Y-138787257D01*
X186268796Y-138787257D02*
X187030701Y-138787257D01*
X183887844Y-139549161D02*
X183983082Y-139644400D01*
X183983082Y-139644400D02*
X184268796Y-139739638D01*
X184268796Y-139739638D02*
X184459272Y-139739638D01*
X184459272Y-139739638D02*
X184744987Y-139644400D01*
X184744987Y-139644400D02*
X184935463Y-139453923D01*
X184935463Y-139453923D02*
X185030701Y-139263447D01*
X185030701Y-139263447D02*
X185125939Y-138882495D01*
X185125939Y-138882495D02*
X185125939Y-138596780D01*
X185125939Y-138596780D02*
X185030701Y-138215828D01*
X185030701Y-138215828D02*
X184935463Y-138025352D01*
X184935463Y-138025352D02*
X184744987Y-137834876D01*
X184744987Y-137834876D02*
X184459272Y-137739638D01*
X184459272Y-137739638D02*
X184268796Y-137739638D01*
X184268796Y-137739638D02*
X183983082Y-137834876D01*
X183983082Y-137834876D02*
X183887844Y-137930114D01*
X182364034Y-138692019D02*
X182078320Y-138787257D01*
X182078320Y-138787257D02*
X181983082Y-138882495D01*
X181983082Y-138882495D02*
X181887844Y-139072971D01*
X181887844Y-139072971D02*
X181887844Y-139358685D01*
X181887844Y-139358685D02*
X181983082Y-139549161D01*
X181983082Y-139549161D02*
X182078320Y-139644400D01*
X182078320Y-139644400D02*
X182268796Y-139739638D01*
X182268796Y-139739638D02*
X183030701Y-139739638D01*
X183030701Y-139739638D02*
X183030701Y-137739638D01*
X183030701Y-137739638D02*
X182364034Y-137739638D01*
X182364034Y-137739638D02*
X182173558Y-137834876D01*
X182173558Y-137834876D02*
X182078320Y-137930114D01*
X182078320Y-137930114D02*
X181983082Y-138120590D01*
X181983082Y-138120590D02*
X181983082Y-138311066D01*
X181983082Y-138311066D02*
X182078320Y-138501542D01*
X182078320Y-138501542D02*
X182173558Y-138596780D01*
X182173558Y-138596780D02*
X182364034Y-138692019D01*
X182364034Y-138692019D02*
X183030701Y-138692019D01*
X179506891Y-139549161D02*
X179411653Y-139644400D01*
X179411653Y-139644400D02*
X179506891Y-139739638D01*
X179506891Y-139739638D02*
X179602129Y-139644400D01*
X179602129Y-139644400D02*
X179506891Y-139549161D01*
X179506891Y-139549161D02*
X179506891Y-139739638D01*
X179506891Y-138501542D02*
X179411653Y-138596780D01*
X179411653Y-138596780D02*
X179506891Y-138692019D01*
X179506891Y-138692019D02*
X179602129Y-138596780D01*
X179602129Y-138596780D02*
X179506891Y-138501542D01*
X179506891Y-138501542D02*
X179506891Y-138692019D01*
X178744986Y-140501542D02*
X178649748Y-140406304D01*
X178649748Y-140406304D02*
X178459272Y-140120590D01*
X178459272Y-140120590D02*
X178364034Y-139930114D01*
X178364034Y-139930114D02*
X178268796Y-139644400D01*
X178268796Y-139644400D02*
X178173558Y-139168209D01*
X178173558Y-139168209D02*
X178173558Y-138787257D01*
X178173558Y-138787257D02*
X178268796Y-138311066D01*
X178268796Y-138311066D02*
X178364034Y-138025352D01*
X178364034Y-138025352D02*
X178459272Y-137834876D01*
X178459272Y-137834876D02*
X178649748Y-137549161D01*
X178649748Y-137549161D02*
X178744986Y-137453923D01*
D11*
X94606955Y-72597929D02*
X93616479Y-72597929D01*
X93616479Y-72597929D02*
X94149812Y-73192215D01*
X94149812Y-73192215D02*
X93921241Y-73192215D01*
X93921241Y-73192215D02*
X93768860Y-73266501D01*
X93768860Y-73266501D02*
X93692669Y-73340786D01*
X93692669Y-73340786D02*
X93616479Y-73489358D01*
X93616479Y-73489358D02*
X93616479Y-73860786D01*
X93616479Y-73860786D02*
X93692669Y-74009358D01*
X93692669Y-74009358D02*
X93768860Y-74083644D01*
X93768860Y-74083644D02*
X93921241Y-74157929D01*
X93921241Y-74157929D02*
X94378384Y-74157929D01*
X94378384Y-74157929D02*
X94530765Y-74083644D01*
X94530765Y-74083644D02*
X94606955Y-74009358D01*
X92930764Y-74009358D02*
X92854574Y-74083644D01*
X92854574Y-74083644D02*
X92930764Y-74157929D01*
X92930764Y-74157929D02*
X93006955Y-74083644D01*
X93006955Y-74083644D02*
X92930764Y-74009358D01*
X92930764Y-74009358D02*
X92930764Y-74157929D01*
X92321240Y-72597929D02*
X91330764Y-72597929D01*
X91330764Y-72597929D02*
X91864097Y-73192215D01*
X91864097Y-73192215D02*
X91635526Y-73192215D01*
X91635526Y-73192215D02*
X91483145Y-73266501D01*
X91483145Y-73266501D02*
X91406954Y-73340786D01*
X91406954Y-73340786D02*
X91330764Y-73489358D01*
X91330764Y-73489358D02*
X91330764Y-73860786D01*
X91330764Y-73860786D02*
X91406954Y-74009358D01*
X91406954Y-74009358D02*
X91483145Y-74083644D01*
X91483145Y-74083644D02*
X91635526Y-74157929D01*
X91635526Y-74157929D02*
X92092669Y-74157929D01*
X92092669Y-74157929D02*
X92245050Y-74083644D01*
X92245050Y-74083644D02*
X92321240Y-74009358D01*
X90873621Y-72597929D02*
X90340287Y-74157929D01*
X90340287Y-74157929D02*
X89806954Y-72597929D01*
X93616479Y-75183728D02*
X93768860Y-75109442D01*
X93768860Y-75109442D02*
X93997431Y-75109442D01*
X93997431Y-75109442D02*
X94226003Y-75183728D01*
X94226003Y-75183728D02*
X94378384Y-75332299D01*
X94378384Y-75332299D02*
X94454574Y-75480871D01*
X94454574Y-75480871D02*
X94530765Y-75778014D01*
X94530765Y-75778014D02*
X94530765Y-76000871D01*
X94530765Y-76000871D02*
X94454574Y-76298014D01*
X94454574Y-76298014D02*
X94378384Y-76446585D01*
X94378384Y-76446585D02*
X94226003Y-76595157D01*
X94226003Y-76595157D02*
X93997431Y-76669442D01*
X93997431Y-76669442D02*
X93845050Y-76669442D01*
X93845050Y-76669442D02*
X93616479Y-76595157D01*
X93616479Y-76595157D02*
X93540288Y-76520871D01*
X93540288Y-76520871D02*
X93540288Y-76000871D01*
X93540288Y-76000871D02*
X93845050Y-76000871D01*
X92854574Y-76669442D02*
X92854574Y-75109442D01*
X92854574Y-75109442D02*
X91940288Y-76669442D01*
X91940288Y-76669442D02*
X91940288Y-75109442D01*
X91178384Y-76669442D02*
X91178384Y-75109442D01*
X91178384Y-75109442D02*
X90797432Y-75109442D01*
X90797432Y-75109442D02*
X90568860Y-75183728D01*
X90568860Y-75183728D02*
X90416479Y-75332299D01*
X90416479Y-75332299D02*
X90340289Y-75480871D01*
X90340289Y-75480871D02*
X90264098Y-75778014D01*
X90264098Y-75778014D02*
X90264098Y-76000871D01*
X90264098Y-76000871D02*
X90340289Y-76298014D01*
X90340289Y-76298014D02*
X90416479Y-76446585D01*
X90416479Y-76446585D02*
X90568860Y-76595157D01*
X90568860Y-76595157D02*
X90797432Y-76669442D01*
X90797432Y-76669442D02*
X91178384Y-76669442D01*
X94454574Y-79180955D02*
X94454574Y-77620955D01*
X94454574Y-77620955D02*
X94073622Y-77620955D01*
X94073622Y-77620955D02*
X93845050Y-77695241D01*
X93845050Y-77695241D02*
X93692669Y-77843812D01*
X93692669Y-77843812D02*
X93616479Y-77992384D01*
X93616479Y-77992384D02*
X93540288Y-78289527D01*
X93540288Y-78289527D02*
X93540288Y-78512384D01*
X93540288Y-78512384D02*
X93616479Y-78809527D01*
X93616479Y-78809527D02*
X93692669Y-78958098D01*
X93692669Y-78958098D02*
X93845050Y-79106670D01*
X93845050Y-79106670D02*
X94073622Y-79180955D01*
X94073622Y-79180955D02*
X94454574Y-79180955D01*
X92854574Y-79180955D02*
X92854574Y-77620955D01*
X92168860Y-79106670D02*
X91940288Y-79180955D01*
X91940288Y-79180955D02*
X91559336Y-79180955D01*
X91559336Y-79180955D02*
X91406955Y-79106670D01*
X91406955Y-79106670D02*
X91330764Y-79032384D01*
X91330764Y-79032384D02*
X91254574Y-78883812D01*
X91254574Y-78883812D02*
X91254574Y-78735241D01*
X91254574Y-78735241D02*
X91330764Y-78586670D01*
X91330764Y-78586670D02*
X91406955Y-78512384D01*
X91406955Y-78512384D02*
X91559336Y-78438098D01*
X91559336Y-78438098D02*
X91864098Y-78363812D01*
X91864098Y-78363812D02*
X92016479Y-78289527D01*
X92016479Y-78289527D02*
X92092669Y-78215241D01*
X92092669Y-78215241D02*
X92168860Y-78066670D01*
X92168860Y-78066670D02*
X92168860Y-77918098D01*
X92168860Y-77918098D02*
X92092669Y-77769527D01*
X92092669Y-77769527D02*
X92016479Y-77695241D01*
X92016479Y-77695241D02*
X91864098Y-77620955D01*
X91864098Y-77620955D02*
X91483145Y-77620955D01*
X91483145Y-77620955D02*
X91254574Y-77695241D01*
X90568859Y-79180955D02*
X90568859Y-77620955D01*
X90568859Y-77620955D02*
X89959335Y-77620955D01*
X89959335Y-77620955D02*
X89806954Y-77695241D01*
X89806954Y-77695241D02*
X89730764Y-77769527D01*
X89730764Y-77769527D02*
X89654573Y-77918098D01*
X89654573Y-77918098D02*
X89654573Y-78140955D01*
X89654573Y-78140955D02*
X89730764Y-78289527D01*
X89730764Y-78289527D02*
X89806954Y-78363812D01*
X89806954Y-78363812D02*
X89959335Y-78438098D01*
X89959335Y-78438098D02*
X90568859Y-78438098D01*
X88206954Y-79180955D02*
X88968859Y-79180955D01*
X88968859Y-79180955D02*
X88968859Y-77620955D01*
X88054574Y-79329527D02*
X86835526Y-79329527D01*
X85540287Y-79032384D02*
X85616478Y-79106670D01*
X85616478Y-79106670D02*
X85845049Y-79180955D01*
X85845049Y-79180955D02*
X85997430Y-79180955D01*
X85997430Y-79180955D02*
X86226002Y-79106670D01*
X86226002Y-79106670D02*
X86378383Y-78958098D01*
X86378383Y-78958098D02*
X86454573Y-78809527D01*
X86454573Y-78809527D02*
X86530764Y-78512384D01*
X86530764Y-78512384D02*
X86530764Y-78289527D01*
X86530764Y-78289527D02*
X86454573Y-77992384D01*
X86454573Y-77992384D02*
X86378383Y-77843812D01*
X86378383Y-77843812D02*
X86226002Y-77695241D01*
X86226002Y-77695241D02*
X85997430Y-77620955D01*
X85997430Y-77620955D02*
X85845049Y-77620955D01*
X85845049Y-77620955D02*
X85616478Y-77695241D01*
X85616478Y-77695241D02*
X85540287Y-77769527D01*
X84930764Y-79106670D02*
X84702192Y-79180955D01*
X84702192Y-79180955D02*
X84321240Y-79180955D01*
X84321240Y-79180955D02*
X84168859Y-79106670D01*
X84168859Y-79106670D02*
X84092668Y-79032384D01*
X84092668Y-79032384D02*
X84016478Y-78883812D01*
X84016478Y-78883812D02*
X84016478Y-78735241D01*
X84016478Y-78735241D02*
X84092668Y-78586670D01*
X84092668Y-78586670D02*
X84168859Y-78512384D01*
X84168859Y-78512384D02*
X84321240Y-78438098D01*
X84321240Y-78438098D02*
X84626002Y-78363812D01*
X84626002Y-78363812D02*
X84778383Y-78289527D01*
X84778383Y-78289527D02*
X84854573Y-78215241D01*
X84854573Y-78215241D02*
X84930764Y-78066670D01*
X84930764Y-78066670D02*
X84930764Y-77918098D01*
X84930764Y-77918098D02*
X84854573Y-77769527D01*
X84854573Y-77769527D02*
X84778383Y-77695241D01*
X84778383Y-77695241D02*
X84626002Y-77620955D01*
X84626002Y-77620955D02*
X84245049Y-77620955D01*
X84245049Y-77620955D02*
X84016478Y-77695241D01*
X94454574Y-81692468D02*
X94454574Y-80132468D01*
X94454574Y-80132468D02*
X94073622Y-80132468D01*
X94073622Y-80132468D02*
X93845050Y-80206754D01*
X93845050Y-80206754D02*
X93692669Y-80355325D01*
X93692669Y-80355325D02*
X93616479Y-80503897D01*
X93616479Y-80503897D02*
X93540288Y-80801040D01*
X93540288Y-80801040D02*
X93540288Y-81023897D01*
X93540288Y-81023897D02*
X93616479Y-81321040D01*
X93616479Y-81321040D02*
X93692669Y-81469611D01*
X93692669Y-81469611D02*
X93845050Y-81618183D01*
X93845050Y-81618183D02*
X94073622Y-81692468D01*
X94073622Y-81692468D02*
X94454574Y-81692468D01*
X92854574Y-81692468D02*
X92854574Y-80132468D01*
X92168860Y-81618183D02*
X91940288Y-81692468D01*
X91940288Y-81692468D02*
X91559336Y-81692468D01*
X91559336Y-81692468D02*
X91406955Y-81618183D01*
X91406955Y-81618183D02*
X91330764Y-81543897D01*
X91330764Y-81543897D02*
X91254574Y-81395325D01*
X91254574Y-81395325D02*
X91254574Y-81246754D01*
X91254574Y-81246754D02*
X91330764Y-81098183D01*
X91330764Y-81098183D02*
X91406955Y-81023897D01*
X91406955Y-81023897D02*
X91559336Y-80949611D01*
X91559336Y-80949611D02*
X91864098Y-80875325D01*
X91864098Y-80875325D02*
X92016479Y-80801040D01*
X92016479Y-80801040D02*
X92092669Y-80726754D01*
X92092669Y-80726754D02*
X92168860Y-80578183D01*
X92168860Y-80578183D02*
X92168860Y-80429611D01*
X92168860Y-80429611D02*
X92092669Y-80281040D01*
X92092669Y-80281040D02*
X92016479Y-80206754D01*
X92016479Y-80206754D02*
X91864098Y-80132468D01*
X91864098Y-80132468D02*
X91483145Y-80132468D01*
X91483145Y-80132468D02*
X91254574Y-80206754D01*
X90568859Y-81692468D02*
X90568859Y-80132468D01*
X90568859Y-80132468D02*
X89959335Y-80132468D01*
X89959335Y-80132468D02*
X89806954Y-80206754D01*
X89806954Y-80206754D02*
X89730764Y-80281040D01*
X89730764Y-80281040D02*
X89654573Y-80429611D01*
X89654573Y-80429611D02*
X89654573Y-80652468D01*
X89654573Y-80652468D02*
X89730764Y-80801040D01*
X89730764Y-80801040D02*
X89806954Y-80875325D01*
X89806954Y-80875325D02*
X89959335Y-80949611D01*
X89959335Y-80949611D02*
X90568859Y-80949611D01*
X88206954Y-81692468D02*
X88968859Y-81692468D01*
X88968859Y-81692468D02*
X88968859Y-80132468D01*
X88054574Y-81841040D02*
X86835526Y-81841040D01*
X85540287Y-81692468D02*
X86073621Y-80949611D01*
X86454573Y-81692468D02*
X86454573Y-80132468D01*
X86454573Y-80132468D02*
X85845049Y-80132468D01*
X85845049Y-80132468D02*
X85692668Y-80206754D01*
X85692668Y-80206754D02*
X85616478Y-80281040D01*
X85616478Y-80281040D02*
X85540287Y-80429611D01*
X85540287Y-80429611D02*
X85540287Y-80652468D01*
X85540287Y-80652468D02*
X85616478Y-80801040D01*
X85616478Y-80801040D02*
X85692668Y-80875325D01*
X85692668Y-80875325D02*
X85845049Y-80949611D01*
X85845049Y-80949611D02*
X86454573Y-80949611D01*
X84930764Y-81618183D02*
X84702192Y-81692468D01*
X84702192Y-81692468D02*
X84321240Y-81692468D01*
X84321240Y-81692468D02*
X84168859Y-81618183D01*
X84168859Y-81618183D02*
X84092668Y-81543897D01*
X84092668Y-81543897D02*
X84016478Y-81395325D01*
X84016478Y-81395325D02*
X84016478Y-81246754D01*
X84016478Y-81246754D02*
X84092668Y-81098183D01*
X84092668Y-81098183D02*
X84168859Y-81023897D01*
X84168859Y-81023897D02*
X84321240Y-80949611D01*
X84321240Y-80949611D02*
X84626002Y-80875325D01*
X84626002Y-80875325D02*
X84778383Y-80801040D01*
X84778383Y-80801040D02*
X84854573Y-80726754D01*
X84854573Y-80726754D02*
X84930764Y-80578183D01*
X84930764Y-80578183D02*
X84930764Y-80429611D01*
X84930764Y-80429611D02*
X84854573Y-80281040D01*
X84854573Y-80281040D02*
X84778383Y-80206754D01*
X84778383Y-80206754D02*
X84626002Y-80132468D01*
X84626002Y-80132468D02*
X84245049Y-80132468D01*
X84245049Y-80132468D02*
X84016478Y-80206754D01*
X83559335Y-80132468D02*
X82645049Y-80132468D01*
X83102192Y-81692468D02*
X83102192Y-80132468D01*
X94454574Y-84203981D02*
X94454574Y-82643981D01*
X94454574Y-82643981D02*
X94073622Y-82643981D01*
X94073622Y-82643981D02*
X93845050Y-82718267D01*
X93845050Y-82718267D02*
X93692669Y-82866838D01*
X93692669Y-82866838D02*
X93616479Y-83015410D01*
X93616479Y-83015410D02*
X93540288Y-83312553D01*
X93540288Y-83312553D02*
X93540288Y-83535410D01*
X93540288Y-83535410D02*
X93616479Y-83832553D01*
X93616479Y-83832553D02*
X93692669Y-83981124D01*
X93692669Y-83981124D02*
X93845050Y-84129696D01*
X93845050Y-84129696D02*
X94073622Y-84203981D01*
X94073622Y-84203981D02*
X94454574Y-84203981D01*
X92854574Y-84203981D02*
X92854574Y-82643981D01*
X92168860Y-84129696D02*
X91940288Y-84203981D01*
X91940288Y-84203981D02*
X91559336Y-84203981D01*
X91559336Y-84203981D02*
X91406955Y-84129696D01*
X91406955Y-84129696D02*
X91330764Y-84055410D01*
X91330764Y-84055410D02*
X91254574Y-83906838D01*
X91254574Y-83906838D02*
X91254574Y-83758267D01*
X91254574Y-83758267D02*
X91330764Y-83609696D01*
X91330764Y-83609696D02*
X91406955Y-83535410D01*
X91406955Y-83535410D02*
X91559336Y-83461124D01*
X91559336Y-83461124D02*
X91864098Y-83386838D01*
X91864098Y-83386838D02*
X92016479Y-83312553D01*
X92016479Y-83312553D02*
X92092669Y-83238267D01*
X92092669Y-83238267D02*
X92168860Y-83089696D01*
X92168860Y-83089696D02*
X92168860Y-82941124D01*
X92168860Y-82941124D02*
X92092669Y-82792553D01*
X92092669Y-82792553D02*
X92016479Y-82718267D01*
X92016479Y-82718267D02*
X91864098Y-82643981D01*
X91864098Y-82643981D02*
X91483145Y-82643981D01*
X91483145Y-82643981D02*
X91254574Y-82718267D01*
X90568859Y-84203981D02*
X90568859Y-82643981D01*
X90568859Y-82643981D02*
X89959335Y-82643981D01*
X89959335Y-82643981D02*
X89806954Y-82718267D01*
X89806954Y-82718267D02*
X89730764Y-82792553D01*
X89730764Y-82792553D02*
X89654573Y-82941124D01*
X89654573Y-82941124D02*
X89654573Y-83163981D01*
X89654573Y-83163981D02*
X89730764Y-83312553D01*
X89730764Y-83312553D02*
X89806954Y-83386838D01*
X89806954Y-83386838D02*
X89959335Y-83461124D01*
X89959335Y-83461124D02*
X90568859Y-83461124D01*
X88206954Y-84203981D02*
X88968859Y-84203981D01*
X88968859Y-84203981D02*
X88968859Y-82643981D01*
X88054574Y-84352553D02*
X86835526Y-84352553D01*
X86454573Y-84203981D02*
X86454573Y-82643981D01*
X86454573Y-82643981D02*
X86073621Y-82643981D01*
X86073621Y-82643981D02*
X85845049Y-82718267D01*
X85845049Y-82718267D02*
X85692668Y-82866838D01*
X85692668Y-82866838D02*
X85616478Y-83015410D01*
X85616478Y-83015410D02*
X85540287Y-83312553D01*
X85540287Y-83312553D02*
X85540287Y-83535410D01*
X85540287Y-83535410D02*
X85616478Y-83832553D01*
X85616478Y-83832553D02*
X85692668Y-83981124D01*
X85692668Y-83981124D02*
X85845049Y-84129696D01*
X85845049Y-84129696D02*
X86073621Y-84203981D01*
X86073621Y-84203981D02*
X86454573Y-84203981D01*
X83940287Y-84055410D02*
X84016478Y-84129696D01*
X84016478Y-84129696D02*
X84245049Y-84203981D01*
X84245049Y-84203981D02*
X84397430Y-84203981D01*
X84397430Y-84203981D02*
X84626002Y-84129696D01*
X84626002Y-84129696D02*
X84778383Y-83981124D01*
X84778383Y-83981124D02*
X84854573Y-83832553D01*
X84854573Y-83832553D02*
X84930764Y-83535410D01*
X84930764Y-83535410D02*
X84930764Y-83312553D01*
X84930764Y-83312553D02*
X84854573Y-83015410D01*
X84854573Y-83015410D02*
X84778383Y-82866838D01*
X84778383Y-82866838D02*
X84626002Y-82718267D01*
X84626002Y-82718267D02*
X84397430Y-82643981D01*
X84397430Y-82643981D02*
X84245049Y-82643981D01*
X84245049Y-82643981D02*
X84016478Y-82718267D01*
X84016478Y-82718267D02*
X83940287Y-82792553D01*
X94454574Y-86715494D02*
X94454574Y-85155494D01*
X94454574Y-85155494D02*
X94073622Y-85155494D01*
X94073622Y-85155494D02*
X93845050Y-85229780D01*
X93845050Y-85229780D02*
X93692669Y-85378351D01*
X93692669Y-85378351D02*
X93616479Y-85526923D01*
X93616479Y-85526923D02*
X93540288Y-85824066D01*
X93540288Y-85824066D02*
X93540288Y-86046923D01*
X93540288Y-86046923D02*
X93616479Y-86344066D01*
X93616479Y-86344066D02*
X93692669Y-86492637D01*
X93692669Y-86492637D02*
X93845050Y-86641209D01*
X93845050Y-86641209D02*
X94073622Y-86715494D01*
X94073622Y-86715494D02*
X94454574Y-86715494D01*
X92854574Y-86715494D02*
X92854574Y-85155494D01*
X92168860Y-86641209D02*
X91940288Y-86715494D01*
X91940288Y-86715494D02*
X91559336Y-86715494D01*
X91559336Y-86715494D02*
X91406955Y-86641209D01*
X91406955Y-86641209D02*
X91330764Y-86566923D01*
X91330764Y-86566923D02*
X91254574Y-86418351D01*
X91254574Y-86418351D02*
X91254574Y-86269780D01*
X91254574Y-86269780D02*
X91330764Y-86121209D01*
X91330764Y-86121209D02*
X91406955Y-86046923D01*
X91406955Y-86046923D02*
X91559336Y-85972637D01*
X91559336Y-85972637D02*
X91864098Y-85898351D01*
X91864098Y-85898351D02*
X92016479Y-85824066D01*
X92016479Y-85824066D02*
X92092669Y-85749780D01*
X92092669Y-85749780D02*
X92168860Y-85601209D01*
X92168860Y-85601209D02*
X92168860Y-85452637D01*
X92168860Y-85452637D02*
X92092669Y-85304066D01*
X92092669Y-85304066D02*
X92016479Y-85229780D01*
X92016479Y-85229780D02*
X91864098Y-85155494D01*
X91864098Y-85155494D02*
X91483145Y-85155494D01*
X91483145Y-85155494D02*
X91254574Y-85229780D01*
X90568859Y-86715494D02*
X90568859Y-85155494D01*
X90568859Y-85155494D02*
X89959335Y-85155494D01*
X89959335Y-85155494D02*
X89806954Y-85229780D01*
X89806954Y-85229780D02*
X89730764Y-85304066D01*
X89730764Y-85304066D02*
X89654573Y-85452637D01*
X89654573Y-85452637D02*
X89654573Y-85675494D01*
X89654573Y-85675494D02*
X89730764Y-85824066D01*
X89730764Y-85824066D02*
X89806954Y-85898351D01*
X89806954Y-85898351D02*
X89959335Y-85972637D01*
X89959335Y-85972637D02*
X90568859Y-85972637D01*
X88206954Y-86715494D02*
X88968859Y-86715494D01*
X88968859Y-86715494D02*
X88968859Y-85155494D01*
X88054574Y-86864066D02*
X86835526Y-86864066D01*
X86454573Y-86715494D02*
X86454573Y-85155494D01*
X86454573Y-85155494D02*
X85921240Y-86269780D01*
X85921240Y-86269780D02*
X85387906Y-85155494D01*
X85387906Y-85155494D02*
X85387906Y-86715494D01*
X84321240Y-85155494D02*
X84016478Y-85155494D01*
X84016478Y-85155494D02*
X83864097Y-85229780D01*
X83864097Y-85229780D02*
X83711716Y-85378351D01*
X83711716Y-85378351D02*
X83635526Y-85675494D01*
X83635526Y-85675494D02*
X83635526Y-86195494D01*
X83635526Y-86195494D02*
X83711716Y-86492637D01*
X83711716Y-86492637D02*
X83864097Y-86641209D01*
X83864097Y-86641209D02*
X84016478Y-86715494D01*
X84016478Y-86715494D02*
X84321240Y-86715494D01*
X84321240Y-86715494D02*
X84473621Y-86641209D01*
X84473621Y-86641209D02*
X84626002Y-86492637D01*
X84626002Y-86492637D02*
X84702193Y-86195494D01*
X84702193Y-86195494D02*
X84702193Y-85675494D01*
X84702193Y-85675494D02*
X84626002Y-85378351D01*
X84626002Y-85378351D02*
X84473621Y-85229780D01*
X84473621Y-85229780D02*
X84321240Y-85155494D01*
X83026003Y-86641209D02*
X82797431Y-86715494D01*
X82797431Y-86715494D02*
X82416479Y-86715494D01*
X82416479Y-86715494D02*
X82264098Y-86641209D01*
X82264098Y-86641209D02*
X82187907Y-86566923D01*
X82187907Y-86566923D02*
X82111717Y-86418351D01*
X82111717Y-86418351D02*
X82111717Y-86269780D01*
X82111717Y-86269780D02*
X82187907Y-86121209D01*
X82187907Y-86121209D02*
X82264098Y-86046923D01*
X82264098Y-86046923D02*
X82416479Y-85972637D01*
X82416479Y-85972637D02*
X82721241Y-85898351D01*
X82721241Y-85898351D02*
X82873622Y-85824066D01*
X82873622Y-85824066D02*
X82949812Y-85749780D01*
X82949812Y-85749780D02*
X83026003Y-85601209D01*
X83026003Y-85601209D02*
X83026003Y-85452637D01*
X83026003Y-85452637D02*
X82949812Y-85304066D01*
X82949812Y-85304066D02*
X82873622Y-85229780D01*
X82873622Y-85229780D02*
X82721241Y-85155494D01*
X82721241Y-85155494D02*
X82340288Y-85155494D01*
X82340288Y-85155494D02*
X82111717Y-85229780D01*
X81426002Y-86715494D02*
X81426002Y-85155494D01*
X94454574Y-89227007D02*
X94454574Y-87667007D01*
X94454574Y-87667007D02*
X94073622Y-87667007D01*
X94073622Y-87667007D02*
X93845050Y-87741293D01*
X93845050Y-87741293D02*
X93692669Y-87889864D01*
X93692669Y-87889864D02*
X93616479Y-88038436D01*
X93616479Y-88038436D02*
X93540288Y-88335579D01*
X93540288Y-88335579D02*
X93540288Y-88558436D01*
X93540288Y-88558436D02*
X93616479Y-88855579D01*
X93616479Y-88855579D02*
X93692669Y-89004150D01*
X93692669Y-89004150D02*
X93845050Y-89152722D01*
X93845050Y-89152722D02*
X94073622Y-89227007D01*
X94073622Y-89227007D02*
X94454574Y-89227007D01*
X92854574Y-89227007D02*
X92854574Y-87667007D01*
X92168860Y-89152722D02*
X91940288Y-89227007D01*
X91940288Y-89227007D02*
X91559336Y-89227007D01*
X91559336Y-89227007D02*
X91406955Y-89152722D01*
X91406955Y-89152722D02*
X91330764Y-89078436D01*
X91330764Y-89078436D02*
X91254574Y-88929864D01*
X91254574Y-88929864D02*
X91254574Y-88781293D01*
X91254574Y-88781293D02*
X91330764Y-88632722D01*
X91330764Y-88632722D02*
X91406955Y-88558436D01*
X91406955Y-88558436D02*
X91559336Y-88484150D01*
X91559336Y-88484150D02*
X91864098Y-88409864D01*
X91864098Y-88409864D02*
X92016479Y-88335579D01*
X92016479Y-88335579D02*
X92092669Y-88261293D01*
X92092669Y-88261293D02*
X92168860Y-88112722D01*
X92168860Y-88112722D02*
X92168860Y-87964150D01*
X92168860Y-87964150D02*
X92092669Y-87815579D01*
X92092669Y-87815579D02*
X92016479Y-87741293D01*
X92016479Y-87741293D02*
X91864098Y-87667007D01*
X91864098Y-87667007D02*
X91483145Y-87667007D01*
X91483145Y-87667007D02*
X91254574Y-87741293D01*
X90568859Y-89227007D02*
X90568859Y-87667007D01*
X90568859Y-87667007D02*
X89959335Y-87667007D01*
X89959335Y-87667007D02*
X89806954Y-87741293D01*
X89806954Y-87741293D02*
X89730764Y-87815579D01*
X89730764Y-87815579D02*
X89654573Y-87964150D01*
X89654573Y-87964150D02*
X89654573Y-88187007D01*
X89654573Y-88187007D02*
X89730764Y-88335579D01*
X89730764Y-88335579D02*
X89806954Y-88409864D01*
X89806954Y-88409864D02*
X89959335Y-88484150D01*
X89959335Y-88484150D02*
X90568859Y-88484150D01*
X88206954Y-89227007D02*
X88968859Y-89227007D01*
X88968859Y-89227007D02*
X88968859Y-87667007D01*
X88054574Y-89375579D02*
X86835526Y-89375579D01*
X86530764Y-89152722D02*
X86302192Y-89227007D01*
X86302192Y-89227007D02*
X85921240Y-89227007D01*
X85921240Y-89227007D02*
X85768859Y-89152722D01*
X85768859Y-89152722D02*
X85692668Y-89078436D01*
X85692668Y-89078436D02*
X85616478Y-88929864D01*
X85616478Y-88929864D02*
X85616478Y-88781293D01*
X85616478Y-88781293D02*
X85692668Y-88632722D01*
X85692668Y-88632722D02*
X85768859Y-88558436D01*
X85768859Y-88558436D02*
X85921240Y-88484150D01*
X85921240Y-88484150D02*
X86226002Y-88409864D01*
X86226002Y-88409864D02*
X86378383Y-88335579D01*
X86378383Y-88335579D02*
X86454573Y-88261293D01*
X86454573Y-88261293D02*
X86530764Y-88112722D01*
X86530764Y-88112722D02*
X86530764Y-87964150D01*
X86530764Y-87964150D02*
X86454573Y-87815579D01*
X86454573Y-87815579D02*
X86378383Y-87741293D01*
X86378383Y-87741293D02*
X86226002Y-87667007D01*
X86226002Y-87667007D02*
X85845049Y-87667007D01*
X85845049Y-87667007D02*
X85616478Y-87741293D01*
X84016477Y-89078436D02*
X84092668Y-89152722D01*
X84092668Y-89152722D02*
X84321239Y-89227007D01*
X84321239Y-89227007D02*
X84473620Y-89227007D01*
X84473620Y-89227007D02*
X84702192Y-89152722D01*
X84702192Y-89152722D02*
X84854573Y-89004150D01*
X84854573Y-89004150D02*
X84930763Y-88855579D01*
X84930763Y-88855579D02*
X85006954Y-88558436D01*
X85006954Y-88558436D02*
X85006954Y-88335579D01*
X85006954Y-88335579D02*
X84930763Y-88038436D01*
X84930763Y-88038436D02*
X84854573Y-87889864D01*
X84854573Y-87889864D02*
X84702192Y-87741293D01*
X84702192Y-87741293D02*
X84473620Y-87667007D01*
X84473620Y-87667007D02*
X84321239Y-87667007D01*
X84321239Y-87667007D02*
X84092668Y-87741293D01*
X84092668Y-87741293D02*
X84016477Y-87815579D01*
X83330763Y-89227007D02*
X83330763Y-87667007D01*
X82416477Y-89227007D02*
X83102192Y-88335579D01*
X82416477Y-87667007D02*
X83330763Y-88558436D01*
X94454574Y-91738520D02*
X94454574Y-90178520D01*
X94454574Y-90178520D02*
X94073622Y-90178520D01*
X94073622Y-90178520D02*
X93845050Y-90252806D01*
X93845050Y-90252806D02*
X93692669Y-90401377D01*
X93692669Y-90401377D02*
X93616479Y-90549949D01*
X93616479Y-90549949D02*
X93540288Y-90847092D01*
X93540288Y-90847092D02*
X93540288Y-91069949D01*
X93540288Y-91069949D02*
X93616479Y-91367092D01*
X93616479Y-91367092D02*
X93692669Y-91515663D01*
X93692669Y-91515663D02*
X93845050Y-91664235D01*
X93845050Y-91664235D02*
X94073622Y-91738520D01*
X94073622Y-91738520D02*
X94454574Y-91738520D01*
X92854574Y-91738520D02*
X92854574Y-90178520D01*
X92168860Y-91664235D02*
X91940288Y-91738520D01*
X91940288Y-91738520D02*
X91559336Y-91738520D01*
X91559336Y-91738520D02*
X91406955Y-91664235D01*
X91406955Y-91664235D02*
X91330764Y-91589949D01*
X91330764Y-91589949D02*
X91254574Y-91441377D01*
X91254574Y-91441377D02*
X91254574Y-91292806D01*
X91254574Y-91292806D02*
X91330764Y-91144235D01*
X91330764Y-91144235D02*
X91406955Y-91069949D01*
X91406955Y-91069949D02*
X91559336Y-90995663D01*
X91559336Y-90995663D02*
X91864098Y-90921377D01*
X91864098Y-90921377D02*
X92016479Y-90847092D01*
X92016479Y-90847092D02*
X92092669Y-90772806D01*
X92092669Y-90772806D02*
X92168860Y-90624235D01*
X92168860Y-90624235D02*
X92168860Y-90475663D01*
X92168860Y-90475663D02*
X92092669Y-90327092D01*
X92092669Y-90327092D02*
X92016479Y-90252806D01*
X92016479Y-90252806D02*
X91864098Y-90178520D01*
X91864098Y-90178520D02*
X91483145Y-90178520D01*
X91483145Y-90178520D02*
X91254574Y-90252806D01*
X90568859Y-91738520D02*
X90568859Y-90178520D01*
X90568859Y-90178520D02*
X89959335Y-90178520D01*
X89959335Y-90178520D02*
X89806954Y-90252806D01*
X89806954Y-90252806D02*
X89730764Y-90327092D01*
X89730764Y-90327092D02*
X89654573Y-90475663D01*
X89654573Y-90475663D02*
X89654573Y-90698520D01*
X89654573Y-90698520D02*
X89730764Y-90847092D01*
X89730764Y-90847092D02*
X89806954Y-90921377D01*
X89806954Y-90921377D02*
X89959335Y-90995663D01*
X89959335Y-90995663D02*
X90568859Y-90995663D01*
X88206954Y-91738520D02*
X88968859Y-91738520D01*
X88968859Y-91738520D02*
X88968859Y-90178520D01*
X88054574Y-91887092D02*
X86835526Y-91887092D01*
X85692668Y-91738520D02*
X86454573Y-91738520D01*
X86454573Y-91738520D02*
X86454573Y-90178520D01*
X85159335Y-90921377D02*
X84626002Y-90921377D01*
X84397430Y-91738520D02*
X85159335Y-91738520D01*
X85159335Y-91738520D02*
X85159335Y-90178520D01*
X85159335Y-90178520D02*
X84397430Y-90178520D01*
X83711716Y-91738520D02*
X83711716Y-90178520D01*
X83711716Y-90178520D02*
X83330764Y-90178520D01*
X83330764Y-90178520D02*
X83102192Y-90252806D01*
X83102192Y-90252806D02*
X82949811Y-90401377D01*
X82949811Y-90401377D02*
X82873621Y-90549949D01*
X82873621Y-90549949D02*
X82797430Y-90847092D01*
X82797430Y-90847092D02*
X82797430Y-91069949D01*
X82797430Y-91069949D02*
X82873621Y-91367092D01*
X82873621Y-91367092D02*
X82949811Y-91515663D01*
X82949811Y-91515663D02*
X83102192Y-91664235D01*
X83102192Y-91664235D02*
X83330764Y-91738520D01*
X83330764Y-91738520D02*
X83711716Y-91738520D01*
X94454574Y-96761546D02*
X94454574Y-95201546D01*
X94454574Y-95201546D02*
X94073622Y-95201546D01*
X94073622Y-95201546D02*
X93845050Y-95275832D01*
X93845050Y-95275832D02*
X93692669Y-95424403D01*
X93692669Y-95424403D02*
X93616479Y-95572975D01*
X93616479Y-95572975D02*
X93540288Y-95870118D01*
X93540288Y-95870118D02*
X93540288Y-96092975D01*
X93540288Y-96092975D02*
X93616479Y-96390118D01*
X93616479Y-96390118D02*
X93692669Y-96538689D01*
X93692669Y-96538689D02*
X93845050Y-96687261D01*
X93845050Y-96687261D02*
X94073622Y-96761546D01*
X94073622Y-96761546D02*
X94454574Y-96761546D01*
X92854574Y-96761546D02*
X92854574Y-95201546D01*
X92168860Y-96687261D02*
X91940288Y-96761546D01*
X91940288Y-96761546D02*
X91559336Y-96761546D01*
X91559336Y-96761546D02*
X91406955Y-96687261D01*
X91406955Y-96687261D02*
X91330764Y-96612975D01*
X91330764Y-96612975D02*
X91254574Y-96464403D01*
X91254574Y-96464403D02*
X91254574Y-96315832D01*
X91254574Y-96315832D02*
X91330764Y-96167261D01*
X91330764Y-96167261D02*
X91406955Y-96092975D01*
X91406955Y-96092975D02*
X91559336Y-96018689D01*
X91559336Y-96018689D02*
X91864098Y-95944403D01*
X91864098Y-95944403D02*
X92016479Y-95870118D01*
X92016479Y-95870118D02*
X92092669Y-95795832D01*
X92092669Y-95795832D02*
X92168860Y-95647261D01*
X92168860Y-95647261D02*
X92168860Y-95498689D01*
X92168860Y-95498689D02*
X92092669Y-95350118D01*
X92092669Y-95350118D02*
X92016479Y-95275832D01*
X92016479Y-95275832D02*
X91864098Y-95201546D01*
X91864098Y-95201546D02*
X91483145Y-95201546D01*
X91483145Y-95201546D02*
X91254574Y-95275832D01*
X90568859Y-96761546D02*
X90568859Y-95201546D01*
X90568859Y-95201546D02*
X89959335Y-95201546D01*
X89959335Y-95201546D02*
X89806954Y-95275832D01*
X89806954Y-95275832D02*
X89730764Y-95350118D01*
X89730764Y-95350118D02*
X89654573Y-95498689D01*
X89654573Y-95498689D02*
X89654573Y-95721546D01*
X89654573Y-95721546D02*
X89730764Y-95870118D01*
X89730764Y-95870118D02*
X89806954Y-95944403D01*
X89806954Y-95944403D02*
X89959335Y-96018689D01*
X89959335Y-96018689D02*
X90568859Y-96018689D01*
X88206954Y-96761546D02*
X88968859Y-96761546D01*
X88968859Y-96761546D02*
X88968859Y-95201546D01*
X88054574Y-96910118D02*
X86835526Y-96910118D01*
X86530764Y-96687261D02*
X86302192Y-96761546D01*
X86302192Y-96761546D02*
X85921240Y-96761546D01*
X85921240Y-96761546D02*
X85768859Y-96687261D01*
X85768859Y-96687261D02*
X85692668Y-96612975D01*
X85692668Y-96612975D02*
X85616478Y-96464403D01*
X85616478Y-96464403D02*
X85616478Y-96315832D01*
X85616478Y-96315832D02*
X85692668Y-96167261D01*
X85692668Y-96167261D02*
X85768859Y-96092975D01*
X85768859Y-96092975D02*
X85921240Y-96018689D01*
X85921240Y-96018689D02*
X86226002Y-95944403D01*
X86226002Y-95944403D02*
X86378383Y-95870118D01*
X86378383Y-95870118D02*
X86454573Y-95795832D01*
X86454573Y-95795832D02*
X86530764Y-95647261D01*
X86530764Y-95647261D02*
X86530764Y-95498689D01*
X86530764Y-95498689D02*
X86454573Y-95350118D01*
X86454573Y-95350118D02*
X86378383Y-95275832D01*
X86378383Y-95275832D02*
X86226002Y-95201546D01*
X86226002Y-95201546D02*
X85845049Y-95201546D01*
X85845049Y-95201546D02*
X85616478Y-95275832D01*
X84016477Y-96612975D02*
X84092668Y-96687261D01*
X84092668Y-96687261D02*
X84321239Y-96761546D01*
X84321239Y-96761546D02*
X84473620Y-96761546D01*
X84473620Y-96761546D02*
X84702192Y-96687261D01*
X84702192Y-96687261D02*
X84854573Y-96538689D01*
X84854573Y-96538689D02*
X84930763Y-96390118D01*
X84930763Y-96390118D02*
X85006954Y-96092975D01*
X85006954Y-96092975D02*
X85006954Y-95870118D01*
X85006954Y-95870118D02*
X84930763Y-95572975D01*
X84930763Y-95572975D02*
X84854573Y-95424403D01*
X84854573Y-95424403D02*
X84702192Y-95275832D01*
X84702192Y-95275832D02*
X84473620Y-95201546D01*
X84473620Y-95201546D02*
X84321239Y-95201546D01*
X84321239Y-95201546D02*
X84092668Y-95275832D01*
X84092668Y-95275832D02*
X84016477Y-95350118D01*
X83330763Y-96761546D02*
X83330763Y-95201546D01*
X82416477Y-96761546D02*
X83102192Y-95870118D01*
X82416477Y-95201546D02*
X83330763Y-96092975D01*
X94683146Y-102736085D02*
X93768860Y-102736085D01*
X94226003Y-104296085D02*
X94226003Y-102736085D01*
X92930764Y-102736085D02*
X92626002Y-102736085D01*
X92626002Y-102736085D02*
X92473621Y-102810371D01*
X92473621Y-102810371D02*
X92321240Y-102958942D01*
X92321240Y-102958942D02*
X92245050Y-103256085D01*
X92245050Y-103256085D02*
X92245050Y-103776085D01*
X92245050Y-103776085D02*
X92321240Y-104073228D01*
X92321240Y-104073228D02*
X92473621Y-104221800D01*
X92473621Y-104221800D02*
X92626002Y-104296085D01*
X92626002Y-104296085D02*
X92930764Y-104296085D01*
X92930764Y-104296085D02*
X93083145Y-104221800D01*
X93083145Y-104221800D02*
X93235526Y-104073228D01*
X93235526Y-104073228D02*
X93311717Y-103776085D01*
X93311717Y-103776085D02*
X93311717Y-103256085D01*
X93311717Y-103256085D02*
X93235526Y-102958942D01*
X93235526Y-102958942D02*
X93083145Y-102810371D01*
X93083145Y-102810371D02*
X92930764Y-102736085D01*
X91559336Y-102736085D02*
X91559336Y-103998942D01*
X91559336Y-103998942D02*
X91483146Y-104147514D01*
X91483146Y-104147514D02*
X91406955Y-104221800D01*
X91406955Y-104221800D02*
X91254574Y-104296085D01*
X91254574Y-104296085D02*
X90949812Y-104296085D01*
X90949812Y-104296085D02*
X90797431Y-104221800D01*
X90797431Y-104221800D02*
X90721241Y-104147514D01*
X90721241Y-104147514D02*
X90645050Y-103998942D01*
X90645050Y-103998942D02*
X90645050Y-102736085D01*
X88968860Y-104147514D02*
X89045051Y-104221800D01*
X89045051Y-104221800D02*
X89273622Y-104296085D01*
X89273622Y-104296085D02*
X89426003Y-104296085D01*
X89426003Y-104296085D02*
X89654575Y-104221800D01*
X89654575Y-104221800D02*
X89806956Y-104073228D01*
X89806956Y-104073228D02*
X89883146Y-103924657D01*
X89883146Y-103924657D02*
X89959337Y-103627514D01*
X89959337Y-103627514D02*
X89959337Y-103404657D01*
X89959337Y-103404657D02*
X89883146Y-103107514D01*
X89883146Y-103107514D02*
X89806956Y-102958942D01*
X89806956Y-102958942D02*
X89654575Y-102810371D01*
X89654575Y-102810371D02*
X89426003Y-102736085D01*
X89426003Y-102736085D02*
X89273622Y-102736085D01*
X89273622Y-102736085D02*
X89045051Y-102810371D01*
X89045051Y-102810371D02*
X88968860Y-102884657D01*
X88283146Y-104296085D02*
X88283146Y-102736085D01*
X88283146Y-103478942D02*
X87368860Y-103478942D01*
X87368860Y-104296085D02*
X87368860Y-102736085D01*
X86987909Y-104444657D02*
X85768861Y-104444657D01*
X85387908Y-104296085D02*
X85387908Y-102736085D01*
X85387908Y-102736085D02*
X84854575Y-103850371D01*
X84854575Y-103850371D02*
X84321241Y-102736085D01*
X84321241Y-102736085D02*
X84321241Y-104296085D01*
X83254575Y-102736085D02*
X82949813Y-102736085D01*
X82949813Y-102736085D02*
X82797432Y-102810371D01*
X82797432Y-102810371D02*
X82645051Y-102958942D01*
X82645051Y-102958942D02*
X82568861Y-103256085D01*
X82568861Y-103256085D02*
X82568861Y-103776085D01*
X82568861Y-103776085D02*
X82645051Y-104073228D01*
X82645051Y-104073228D02*
X82797432Y-104221800D01*
X82797432Y-104221800D02*
X82949813Y-104296085D01*
X82949813Y-104296085D02*
X83254575Y-104296085D01*
X83254575Y-104296085D02*
X83406956Y-104221800D01*
X83406956Y-104221800D02*
X83559337Y-104073228D01*
X83559337Y-104073228D02*
X83635528Y-103776085D01*
X83635528Y-103776085D02*
X83635528Y-103256085D01*
X83635528Y-103256085D02*
X83559337Y-102958942D01*
X83559337Y-102958942D02*
X83406956Y-102810371D01*
X83406956Y-102810371D02*
X83254575Y-102736085D01*
X81959338Y-104221800D02*
X81730766Y-104296085D01*
X81730766Y-104296085D02*
X81349814Y-104296085D01*
X81349814Y-104296085D02*
X81197433Y-104221800D01*
X81197433Y-104221800D02*
X81121242Y-104147514D01*
X81121242Y-104147514D02*
X81045052Y-103998942D01*
X81045052Y-103998942D02*
X81045052Y-103850371D01*
X81045052Y-103850371D02*
X81121242Y-103701800D01*
X81121242Y-103701800D02*
X81197433Y-103627514D01*
X81197433Y-103627514D02*
X81349814Y-103553228D01*
X81349814Y-103553228D02*
X81654576Y-103478942D01*
X81654576Y-103478942D02*
X81806957Y-103404657D01*
X81806957Y-103404657D02*
X81883147Y-103330371D01*
X81883147Y-103330371D02*
X81959338Y-103181800D01*
X81959338Y-103181800D02*
X81959338Y-103033228D01*
X81959338Y-103033228D02*
X81883147Y-102884657D01*
X81883147Y-102884657D02*
X81806957Y-102810371D01*
X81806957Y-102810371D02*
X81654576Y-102736085D01*
X81654576Y-102736085D02*
X81273623Y-102736085D01*
X81273623Y-102736085D02*
X81045052Y-102810371D01*
X80359337Y-104296085D02*
X80359337Y-102736085D01*
D12*
X192483928Y-66954819D02*
X191912500Y-66954819D01*
X192198214Y-67954819D02*
X192198214Y-66954819D01*
X191579166Y-67954819D02*
X191579166Y-66954819D01*
X191150595Y-67954819D02*
X191150595Y-67431009D01*
X191150595Y-67431009D02*
X191198214Y-67335771D01*
X191198214Y-67335771D02*
X191293452Y-67288152D01*
X191293452Y-67288152D02*
X191436309Y-67288152D01*
X191436309Y-67288152D02*
X191531547Y-67335771D01*
X191531547Y-67335771D02*
X191579166Y-67383390D01*
X190293452Y-67907200D02*
X190388690Y-67954819D01*
X190388690Y-67954819D02*
X190579166Y-67954819D01*
X190579166Y-67954819D02*
X190674404Y-67907200D01*
X190674404Y-67907200D02*
X190722023Y-67811961D01*
X190722023Y-67811961D02*
X190722023Y-67431009D01*
X190722023Y-67431009D02*
X190674404Y-67335771D01*
X190674404Y-67335771D02*
X190579166Y-67288152D01*
X190579166Y-67288152D02*
X190388690Y-67288152D01*
X190388690Y-67288152D02*
X190293452Y-67335771D01*
X190293452Y-67335771D02*
X190245833Y-67431009D01*
X190245833Y-67431009D02*
X190245833Y-67526247D01*
X190245833Y-67526247D02*
X190722023Y-67621485D01*
X189817261Y-67954819D02*
X189817261Y-67288152D01*
X189817261Y-67478628D02*
X189769642Y-67383390D01*
X189769642Y-67383390D02*
X189722023Y-67335771D01*
X189722023Y-67335771D02*
X189626785Y-67288152D01*
X189626785Y-67288152D02*
X189531547Y-67288152D01*
X189198213Y-67954819D02*
X189198213Y-67288152D01*
X189198213Y-67383390D02*
X189150594Y-67335771D01*
X189150594Y-67335771D02*
X189055356Y-67288152D01*
X189055356Y-67288152D02*
X188912499Y-67288152D01*
X188912499Y-67288152D02*
X188817261Y-67335771D01*
X188817261Y-67335771D02*
X188769642Y-67431009D01*
X188769642Y-67431009D02*
X188769642Y-67954819D01*
X188769642Y-67431009D02*
X188722023Y-67335771D01*
X188722023Y-67335771D02*
X188626785Y-67288152D01*
X188626785Y-67288152D02*
X188483928Y-67288152D01*
X188483928Y-67288152D02*
X188388689Y-67335771D01*
X188388689Y-67335771D02*
X188341070Y-67431009D01*
X188341070Y-67431009D02*
X188341070Y-67954819D01*
X187722023Y-67954819D02*
X187817261Y-67907200D01*
X187817261Y-67907200D02*
X187864880Y-67859580D01*
X187864880Y-67859580D02*
X187912499Y-67764342D01*
X187912499Y-67764342D02*
X187912499Y-67478628D01*
X187912499Y-67478628D02*
X187864880Y-67383390D01*
X187864880Y-67383390D02*
X187817261Y-67335771D01*
X187817261Y-67335771D02*
X187722023Y-67288152D01*
X187722023Y-67288152D02*
X187579166Y-67288152D01*
X187579166Y-67288152D02*
X187483928Y-67335771D01*
X187483928Y-67335771D02*
X187436309Y-67383390D01*
X187436309Y-67383390D02*
X187388690Y-67478628D01*
X187388690Y-67478628D02*
X187388690Y-67764342D01*
X187388690Y-67764342D02*
X187436309Y-67859580D01*
X187436309Y-67859580D02*
X187483928Y-67907200D01*
X187483928Y-67907200D02*
X187579166Y-67954819D01*
X187579166Y-67954819D02*
X187722023Y-67954819D01*
X186531547Y-67907200D02*
X186626785Y-67954819D01*
X186626785Y-67954819D02*
X186817261Y-67954819D01*
X186817261Y-67954819D02*
X186912499Y-67907200D01*
X186912499Y-67907200D02*
X186960118Y-67859580D01*
X186960118Y-67859580D02*
X187007737Y-67764342D01*
X187007737Y-67764342D02*
X187007737Y-67478628D01*
X187007737Y-67478628D02*
X186960118Y-67383390D01*
X186960118Y-67383390D02*
X186912499Y-67335771D01*
X186912499Y-67335771D02*
X186817261Y-67288152D01*
X186817261Y-67288152D02*
X186626785Y-67288152D01*
X186626785Y-67288152D02*
X186531547Y-67335771D01*
X185960118Y-67954819D02*
X186055356Y-67907200D01*
X186055356Y-67907200D02*
X186102975Y-67859580D01*
X186102975Y-67859580D02*
X186150594Y-67764342D01*
X186150594Y-67764342D02*
X186150594Y-67478628D01*
X186150594Y-67478628D02*
X186102975Y-67383390D01*
X186102975Y-67383390D02*
X186055356Y-67335771D01*
X186055356Y-67335771D02*
X185960118Y-67288152D01*
X185960118Y-67288152D02*
X185817261Y-67288152D01*
X185817261Y-67288152D02*
X185722023Y-67335771D01*
X185722023Y-67335771D02*
X185674404Y-67383390D01*
X185674404Y-67383390D02*
X185626785Y-67478628D01*
X185626785Y-67478628D02*
X185626785Y-67764342D01*
X185626785Y-67764342D02*
X185674404Y-67859580D01*
X185674404Y-67859580D02*
X185722023Y-67907200D01*
X185722023Y-67907200D02*
X185817261Y-67954819D01*
X185817261Y-67954819D02*
X185960118Y-67954819D01*
X184769642Y-67288152D02*
X184769642Y-67954819D01*
X185198213Y-67288152D02*
X185198213Y-67811961D01*
X185198213Y-67811961D02*
X185150594Y-67907200D01*
X185150594Y-67907200D02*
X185055356Y-67954819D01*
X185055356Y-67954819D02*
X184912499Y-67954819D01*
X184912499Y-67954819D02*
X184817261Y-67907200D01*
X184817261Y-67907200D02*
X184769642Y-67859580D01*
X184293451Y-67288152D02*
X184293451Y-68288152D01*
X184293451Y-67335771D02*
X184198213Y-67288152D01*
X184198213Y-67288152D02*
X184007737Y-67288152D01*
X184007737Y-67288152D02*
X183912499Y-67335771D01*
X183912499Y-67335771D02*
X183864880Y-67383390D01*
X183864880Y-67383390D02*
X183817261Y-67478628D01*
X183817261Y-67478628D02*
X183817261Y-67764342D01*
X183817261Y-67764342D02*
X183864880Y-67859580D01*
X183864880Y-67859580D02*
X183912499Y-67907200D01*
X183912499Y-67907200D02*
X184007737Y-67954819D01*
X184007737Y-67954819D02*
X184198213Y-67954819D01*
X184198213Y-67954819D02*
X184293451Y-67907200D01*
X183245832Y-67954819D02*
X183341070Y-67907200D01*
X183341070Y-67907200D02*
X183388689Y-67811961D01*
X183388689Y-67811961D02*
X183388689Y-66954819D01*
X182483927Y-67907200D02*
X182579165Y-67954819D01*
X182579165Y-67954819D02*
X182769641Y-67954819D01*
X182769641Y-67954819D02*
X182864879Y-67907200D01*
X182864879Y-67907200D02*
X182912498Y-67811961D01*
X182912498Y-67811961D02*
X182912498Y-67431009D01*
X182912498Y-67431009D02*
X182864879Y-67335771D01*
X182864879Y-67335771D02*
X182769641Y-67288152D01*
X182769641Y-67288152D02*
X182579165Y-67288152D01*
X182579165Y-67288152D02*
X182483927Y-67335771D01*
X182483927Y-67335771D02*
X182436308Y-67431009D01*
X182436308Y-67431009D02*
X182436308Y-67526247D01*
X182436308Y-67526247D02*
X182912498Y-67621485D01*
X208954819Y-115380952D02*
X207954819Y-115380952D01*
X207954819Y-115380952D02*
X208669104Y-115714285D01*
X208669104Y-115714285D02*
X207954819Y-116047618D01*
X207954819Y-116047618D02*
X208954819Y-116047618D01*
X208669104Y-116476190D02*
X208669104Y-116952380D01*
X208954819Y-116380952D02*
X207954819Y-116714285D01*
X207954819Y-116714285D02*
X208954819Y-117047618D01*
X207954819Y-117285714D02*
X208954819Y-117952380D01*
X207954819Y-117952380D02*
X208954819Y-117285714D01*
X207954819Y-118238095D02*
X207954819Y-118857142D01*
X207954819Y-118857142D02*
X208335771Y-118523809D01*
X208335771Y-118523809D02*
X208335771Y-118666666D01*
X208335771Y-118666666D02*
X208383390Y-118761904D01*
X208383390Y-118761904D02*
X208431009Y-118809523D01*
X208431009Y-118809523D02*
X208526247Y-118857142D01*
X208526247Y-118857142D02*
X208764342Y-118857142D01*
X208764342Y-118857142D02*
X208859580Y-118809523D01*
X208859580Y-118809523D02*
X208907200Y-118761904D01*
X208907200Y-118761904D02*
X208954819Y-118666666D01*
X208954819Y-118666666D02*
X208954819Y-118380952D01*
X208954819Y-118380952D02*
X208907200Y-118285714D01*
X208907200Y-118285714D02*
X208859580Y-118238095D01*
X208954819Y-119809523D02*
X208954819Y-119238095D01*
X208954819Y-119523809D02*
X207954819Y-119523809D01*
X207954819Y-119523809D02*
X208097676Y-119428571D01*
X208097676Y-119428571D02*
X208192914Y-119333333D01*
X208192914Y-119333333D02*
X208240533Y-119238095D01*
X208383390Y-120380952D02*
X208335771Y-120285714D01*
X208335771Y-120285714D02*
X208288152Y-120238095D01*
X208288152Y-120238095D02*
X208192914Y-120190476D01*
X208192914Y-120190476D02*
X208145295Y-120190476D01*
X208145295Y-120190476D02*
X208050057Y-120238095D01*
X208050057Y-120238095D02*
X208002438Y-120285714D01*
X208002438Y-120285714D02*
X207954819Y-120380952D01*
X207954819Y-120380952D02*
X207954819Y-120571428D01*
X207954819Y-120571428D02*
X208002438Y-120666666D01*
X208002438Y-120666666D02*
X208050057Y-120714285D01*
X208050057Y-120714285D02*
X208145295Y-120761904D01*
X208145295Y-120761904D02*
X208192914Y-120761904D01*
X208192914Y-120761904D02*
X208288152Y-120714285D01*
X208288152Y-120714285D02*
X208335771Y-120666666D01*
X208335771Y-120666666D02*
X208383390Y-120571428D01*
X208383390Y-120571428D02*
X208383390Y-120380952D01*
X208383390Y-120380952D02*
X208431009Y-120285714D01*
X208431009Y-120285714D02*
X208478628Y-120238095D01*
X208478628Y-120238095D02*
X208573866Y-120190476D01*
X208573866Y-120190476D02*
X208764342Y-120190476D01*
X208764342Y-120190476D02*
X208859580Y-120238095D01*
X208859580Y-120238095D02*
X208907200Y-120285714D01*
X208907200Y-120285714D02*
X208954819Y-120380952D01*
X208954819Y-120380952D02*
X208954819Y-120571428D01*
X208954819Y-120571428D02*
X208907200Y-120666666D01*
X208907200Y-120666666D02*
X208859580Y-120714285D01*
X208859580Y-120714285D02*
X208764342Y-120761904D01*
X208764342Y-120761904D02*
X208573866Y-120761904D01*
X208573866Y-120761904D02*
X208478628Y-120714285D01*
X208478628Y-120714285D02*
X208431009Y-120666666D01*
X208431009Y-120666666D02*
X208383390Y-120571428D01*
X207954819Y-121619047D02*
X207954819Y-121428571D01*
X207954819Y-121428571D02*
X208002438Y-121333333D01*
X208002438Y-121333333D02*
X208050057Y-121285714D01*
X208050057Y-121285714D02*
X208192914Y-121190476D01*
X208192914Y-121190476D02*
X208383390Y-121142857D01*
X208383390Y-121142857D02*
X208764342Y-121142857D01*
X208764342Y-121142857D02*
X208859580Y-121190476D01*
X208859580Y-121190476D02*
X208907200Y-121238095D01*
X208907200Y-121238095D02*
X208954819Y-121333333D01*
X208954819Y-121333333D02*
X208954819Y-121523809D01*
X208954819Y-121523809D02*
X208907200Y-121619047D01*
X208907200Y-121619047D02*
X208859580Y-121666666D01*
X208859580Y-121666666D02*
X208764342Y-121714285D01*
X208764342Y-121714285D02*
X208526247Y-121714285D01*
X208526247Y-121714285D02*
X208431009Y-121666666D01*
X208431009Y-121666666D02*
X208383390Y-121619047D01*
X208383390Y-121619047D02*
X208335771Y-121523809D01*
X208335771Y-121523809D02*
X208335771Y-121333333D01*
X208335771Y-121333333D02*
X208383390Y-121238095D01*
X208383390Y-121238095D02*
X208431009Y-121190476D01*
X208431009Y-121190476D02*
X208526247Y-121142857D01*
X207954819Y-122619047D02*
X207954819Y-122142857D01*
X207954819Y-122142857D02*
X208431009Y-122095238D01*
X208431009Y-122095238D02*
X208383390Y-122142857D01*
X208383390Y-122142857D02*
X208335771Y-122238095D01*
X208335771Y-122238095D02*
X208335771Y-122476190D01*
X208335771Y-122476190D02*
X208383390Y-122571428D01*
X208383390Y-122571428D02*
X208431009Y-122619047D01*
X208431009Y-122619047D02*
X208526247Y-122666666D01*
X208526247Y-122666666D02*
X208764342Y-122666666D01*
X208764342Y-122666666D02*
X208859580Y-122619047D01*
X208859580Y-122619047D02*
X208907200Y-122571428D01*
X208907200Y-122571428D02*
X208954819Y-122476190D01*
X208954819Y-122476190D02*
X208954819Y-122238095D01*
X208954819Y-122238095D02*
X208907200Y-122142857D01*
X208907200Y-122142857D02*
X208859580Y-122095238D01*
D11*
X161606955Y-68051877D02*
X161226003Y-69611877D01*
X161226003Y-69611877D02*
X160921241Y-68497592D01*
X160921241Y-68497592D02*
X160616479Y-69611877D01*
X160616479Y-69611877D02*
X160235527Y-68051877D01*
X159702194Y-69166163D02*
X158940289Y-69166163D01*
X159854575Y-69611877D02*
X159321241Y-68051877D01*
X159321241Y-68051877D02*
X158787908Y-69611877D01*
X158254574Y-69611877D02*
X158254574Y-68051877D01*
X157340288Y-69611877D02*
X158026003Y-68720449D01*
X157340288Y-68051877D02*
X158254574Y-68943306D01*
X156654574Y-68794734D02*
X156121241Y-68794734D01*
X155892669Y-69611877D02*
X156654574Y-69611877D01*
X156654574Y-69611877D02*
X156654574Y-68051877D01*
X156654574Y-68051877D02*
X155892669Y-68051877D01*
X160616479Y-78172215D02*
X160768860Y-78097929D01*
X160768860Y-78097929D02*
X160997431Y-78097929D01*
X160997431Y-78097929D02*
X161226003Y-78172215D01*
X161226003Y-78172215D02*
X161378384Y-78320786D01*
X161378384Y-78320786D02*
X161454574Y-78469358D01*
X161454574Y-78469358D02*
X161530765Y-78766501D01*
X161530765Y-78766501D02*
X161530765Y-78989358D01*
X161530765Y-78989358D02*
X161454574Y-79286501D01*
X161454574Y-79286501D02*
X161378384Y-79435072D01*
X161378384Y-79435072D02*
X161226003Y-79583644D01*
X161226003Y-79583644D02*
X160997431Y-79657929D01*
X160997431Y-79657929D02*
X160845050Y-79657929D01*
X160845050Y-79657929D02*
X160616479Y-79583644D01*
X160616479Y-79583644D02*
X160540288Y-79509358D01*
X160540288Y-79509358D02*
X160540288Y-78989358D01*
X160540288Y-78989358D02*
X160845050Y-78989358D01*
X159854574Y-79657929D02*
X159854574Y-78097929D01*
X159854574Y-78097929D02*
X158940288Y-79657929D01*
X158940288Y-79657929D02*
X158940288Y-78097929D01*
X158178384Y-79657929D02*
X158178384Y-78097929D01*
X158178384Y-78097929D02*
X157797432Y-78097929D01*
X157797432Y-78097929D02*
X157568860Y-78172215D01*
X157568860Y-78172215D02*
X157416479Y-78320786D01*
X157416479Y-78320786D02*
X157340289Y-78469358D01*
X157340289Y-78469358D02*
X157264098Y-78766501D01*
X157264098Y-78766501D02*
X157264098Y-78989358D01*
X157264098Y-78989358D02*
X157340289Y-79286501D01*
X157340289Y-79286501D02*
X157416479Y-79435072D01*
X157416479Y-79435072D02*
X157568860Y-79583644D01*
X157568860Y-79583644D02*
X157797432Y-79657929D01*
X157797432Y-79657929D02*
X158178384Y-79657929D01*
X161454574Y-82169442D02*
X161454574Y-80609442D01*
X161454574Y-80609442D02*
X161073622Y-80609442D01*
X161073622Y-80609442D02*
X160845050Y-80683728D01*
X160845050Y-80683728D02*
X160692669Y-80832299D01*
X160692669Y-80832299D02*
X160616479Y-80980871D01*
X160616479Y-80980871D02*
X160540288Y-81278014D01*
X160540288Y-81278014D02*
X160540288Y-81500871D01*
X160540288Y-81500871D02*
X160616479Y-81798014D01*
X160616479Y-81798014D02*
X160692669Y-81946585D01*
X160692669Y-81946585D02*
X160845050Y-82095157D01*
X160845050Y-82095157D02*
X161073622Y-82169442D01*
X161073622Y-82169442D02*
X161454574Y-82169442D01*
X159930765Y-82095157D02*
X159702193Y-82169442D01*
X159702193Y-82169442D02*
X159321241Y-82169442D01*
X159321241Y-82169442D02*
X159168860Y-82095157D01*
X159168860Y-82095157D02*
X159092669Y-82020871D01*
X159092669Y-82020871D02*
X159016479Y-81872299D01*
X159016479Y-81872299D02*
X159016479Y-81723728D01*
X159016479Y-81723728D02*
X159092669Y-81575157D01*
X159092669Y-81575157D02*
X159168860Y-81500871D01*
X159168860Y-81500871D02*
X159321241Y-81426585D01*
X159321241Y-81426585D02*
X159626003Y-81352299D01*
X159626003Y-81352299D02*
X159778384Y-81278014D01*
X159778384Y-81278014D02*
X159854574Y-81203728D01*
X159854574Y-81203728D02*
X159930765Y-81055157D01*
X159930765Y-81055157D02*
X159930765Y-80906585D01*
X159930765Y-80906585D02*
X159854574Y-80758014D01*
X159854574Y-80758014D02*
X159778384Y-80683728D01*
X159778384Y-80683728D02*
X159626003Y-80609442D01*
X159626003Y-80609442D02*
X159245050Y-80609442D01*
X159245050Y-80609442D02*
X159016479Y-80683728D01*
X158330764Y-82169442D02*
X158330764Y-80609442D01*
X158330764Y-80609442D02*
X157721240Y-80609442D01*
X157721240Y-80609442D02*
X157568859Y-80683728D01*
X157568859Y-80683728D02*
X157492669Y-80758014D01*
X157492669Y-80758014D02*
X157416478Y-80906585D01*
X157416478Y-80906585D02*
X157416478Y-81129442D01*
X157416478Y-81129442D02*
X157492669Y-81278014D01*
X157492669Y-81278014D02*
X157568859Y-81352299D01*
X157568859Y-81352299D02*
X157721240Y-81426585D01*
X157721240Y-81426585D02*
X158330764Y-81426585D01*
X155968859Y-82169442D02*
X156730764Y-82169442D01*
X156730764Y-82169442D02*
X156730764Y-80609442D01*
X155816479Y-82318014D02*
X154597431Y-82318014D01*
X154292669Y-82095157D02*
X154064097Y-82169442D01*
X154064097Y-82169442D02*
X153683145Y-82169442D01*
X153683145Y-82169442D02*
X153530764Y-82095157D01*
X153530764Y-82095157D02*
X153454573Y-82020871D01*
X153454573Y-82020871D02*
X153378383Y-81872299D01*
X153378383Y-81872299D02*
X153378383Y-81723728D01*
X153378383Y-81723728D02*
X153454573Y-81575157D01*
X153454573Y-81575157D02*
X153530764Y-81500871D01*
X153530764Y-81500871D02*
X153683145Y-81426585D01*
X153683145Y-81426585D02*
X153987907Y-81352299D01*
X153987907Y-81352299D02*
X154140288Y-81278014D01*
X154140288Y-81278014D02*
X154216478Y-81203728D01*
X154216478Y-81203728D02*
X154292669Y-81055157D01*
X154292669Y-81055157D02*
X154292669Y-80906585D01*
X154292669Y-80906585D02*
X154216478Y-80758014D01*
X154216478Y-80758014D02*
X154140288Y-80683728D01*
X154140288Y-80683728D02*
X153987907Y-80609442D01*
X153987907Y-80609442D02*
X153606954Y-80609442D01*
X153606954Y-80609442D02*
X153378383Y-80683728D01*
X151778382Y-82020871D02*
X151854573Y-82095157D01*
X151854573Y-82095157D02*
X152083144Y-82169442D01*
X152083144Y-82169442D02*
X152235525Y-82169442D01*
X152235525Y-82169442D02*
X152464097Y-82095157D01*
X152464097Y-82095157D02*
X152616478Y-81946585D01*
X152616478Y-81946585D02*
X152692668Y-81798014D01*
X152692668Y-81798014D02*
X152768859Y-81500871D01*
X152768859Y-81500871D02*
X152768859Y-81278014D01*
X152768859Y-81278014D02*
X152692668Y-80980871D01*
X152692668Y-80980871D02*
X152616478Y-80832299D01*
X152616478Y-80832299D02*
X152464097Y-80683728D01*
X152464097Y-80683728D02*
X152235525Y-80609442D01*
X152235525Y-80609442D02*
X152083144Y-80609442D01*
X152083144Y-80609442D02*
X151854573Y-80683728D01*
X151854573Y-80683728D02*
X151778382Y-80758014D01*
X151092668Y-82169442D02*
X151092668Y-80609442D01*
X150178382Y-82169442D02*
X150864097Y-81278014D01*
X150178382Y-80609442D02*
X151092668Y-81500871D01*
X161683146Y-83120955D02*
X160768860Y-83120955D01*
X161226003Y-84680955D02*
X161226003Y-83120955D01*
X159930764Y-83120955D02*
X159626002Y-83120955D01*
X159626002Y-83120955D02*
X159473621Y-83195241D01*
X159473621Y-83195241D02*
X159321240Y-83343812D01*
X159321240Y-83343812D02*
X159245050Y-83640955D01*
X159245050Y-83640955D02*
X159245050Y-84160955D01*
X159245050Y-84160955D02*
X159321240Y-84458098D01*
X159321240Y-84458098D02*
X159473621Y-84606670D01*
X159473621Y-84606670D02*
X159626002Y-84680955D01*
X159626002Y-84680955D02*
X159930764Y-84680955D01*
X159930764Y-84680955D02*
X160083145Y-84606670D01*
X160083145Y-84606670D02*
X160235526Y-84458098D01*
X160235526Y-84458098D02*
X160311717Y-84160955D01*
X160311717Y-84160955D02*
X160311717Y-83640955D01*
X160311717Y-83640955D02*
X160235526Y-83343812D01*
X160235526Y-83343812D02*
X160083145Y-83195241D01*
X160083145Y-83195241D02*
X159930764Y-83120955D01*
X158559336Y-83120955D02*
X158559336Y-84383812D01*
X158559336Y-84383812D02*
X158483146Y-84532384D01*
X158483146Y-84532384D02*
X158406955Y-84606670D01*
X158406955Y-84606670D02*
X158254574Y-84680955D01*
X158254574Y-84680955D02*
X157949812Y-84680955D01*
X157949812Y-84680955D02*
X157797431Y-84606670D01*
X157797431Y-84606670D02*
X157721241Y-84532384D01*
X157721241Y-84532384D02*
X157645050Y-84383812D01*
X157645050Y-84383812D02*
X157645050Y-83120955D01*
X155968860Y-84532384D02*
X156045051Y-84606670D01*
X156045051Y-84606670D02*
X156273622Y-84680955D01*
X156273622Y-84680955D02*
X156426003Y-84680955D01*
X156426003Y-84680955D02*
X156654575Y-84606670D01*
X156654575Y-84606670D02*
X156806956Y-84458098D01*
X156806956Y-84458098D02*
X156883146Y-84309527D01*
X156883146Y-84309527D02*
X156959337Y-84012384D01*
X156959337Y-84012384D02*
X156959337Y-83789527D01*
X156959337Y-83789527D02*
X156883146Y-83492384D01*
X156883146Y-83492384D02*
X156806956Y-83343812D01*
X156806956Y-83343812D02*
X156654575Y-83195241D01*
X156654575Y-83195241D02*
X156426003Y-83120955D01*
X156426003Y-83120955D02*
X156273622Y-83120955D01*
X156273622Y-83120955D02*
X156045051Y-83195241D01*
X156045051Y-83195241D02*
X155968860Y-83269527D01*
X155283146Y-84680955D02*
X155283146Y-83120955D01*
X155283146Y-83863812D02*
X154368860Y-83863812D01*
X154368860Y-84680955D02*
X154368860Y-83120955D01*
X153987909Y-84829527D02*
X152768861Y-84829527D01*
X152387908Y-84680955D02*
X152387908Y-83120955D01*
X152387908Y-83120955D02*
X151854575Y-84235241D01*
X151854575Y-84235241D02*
X151321241Y-83120955D01*
X151321241Y-83120955D02*
X151321241Y-84680955D01*
X150559337Y-84680955D02*
X150559337Y-83120955D01*
X149873623Y-84606670D02*
X149645051Y-84680955D01*
X149645051Y-84680955D02*
X149264099Y-84680955D01*
X149264099Y-84680955D02*
X149111718Y-84606670D01*
X149111718Y-84606670D02*
X149035527Y-84532384D01*
X149035527Y-84532384D02*
X148959337Y-84383812D01*
X148959337Y-84383812D02*
X148959337Y-84235241D01*
X148959337Y-84235241D02*
X149035527Y-84086670D01*
X149035527Y-84086670D02*
X149111718Y-84012384D01*
X149111718Y-84012384D02*
X149264099Y-83938098D01*
X149264099Y-83938098D02*
X149568861Y-83863812D01*
X149568861Y-83863812D02*
X149721242Y-83789527D01*
X149721242Y-83789527D02*
X149797432Y-83715241D01*
X149797432Y-83715241D02*
X149873623Y-83566670D01*
X149873623Y-83566670D02*
X149873623Y-83418098D01*
X149873623Y-83418098D02*
X149797432Y-83269527D01*
X149797432Y-83269527D02*
X149721242Y-83195241D01*
X149721242Y-83195241D02*
X149568861Y-83120955D01*
X149568861Y-83120955D02*
X149187908Y-83120955D01*
X149187908Y-83120955D02*
X148959337Y-83195241D01*
X147968860Y-83120955D02*
X147664098Y-83120955D01*
X147664098Y-83120955D02*
X147511717Y-83195241D01*
X147511717Y-83195241D02*
X147359336Y-83343812D01*
X147359336Y-83343812D02*
X147283146Y-83640955D01*
X147283146Y-83640955D02*
X147283146Y-84160955D01*
X147283146Y-84160955D02*
X147359336Y-84458098D01*
X147359336Y-84458098D02*
X147511717Y-84606670D01*
X147511717Y-84606670D02*
X147664098Y-84680955D01*
X147664098Y-84680955D02*
X147968860Y-84680955D01*
X147968860Y-84680955D02*
X148121241Y-84606670D01*
X148121241Y-84606670D02*
X148273622Y-84458098D01*
X148273622Y-84458098D02*
X148349813Y-84160955D01*
X148349813Y-84160955D02*
X148349813Y-83640955D01*
X148349813Y-83640955D02*
X148273622Y-83343812D01*
X148273622Y-83343812D02*
X148121241Y-83195241D01*
X148121241Y-83195241D02*
X147968860Y-83120955D01*
X161454574Y-87192468D02*
X161454574Y-85632468D01*
X161454574Y-85632468D02*
X161073622Y-85632468D01*
X161073622Y-85632468D02*
X160845050Y-85706754D01*
X160845050Y-85706754D02*
X160692669Y-85855325D01*
X160692669Y-85855325D02*
X160616479Y-86003897D01*
X160616479Y-86003897D02*
X160540288Y-86301040D01*
X160540288Y-86301040D02*
X160540288Y-86523897D01*
X160540288Y-86523897D02*
X160616479Y-86821040D01*
X160616479Y-86821040D02*
X160692669Y-86969611D01*
X160692669Y-86969611D02*
X160845050Y-87118183D01*
X160845050Y-87118183D02*
X161073622Y-87192468D01*
X161073622Y-87192468D02*
X161454574Y-87192468D01*
X159854574Y-87192468D02*
X159854574Y-85632468D01*
X159168860Y-87118183D02*
X158940288Y-87192468D01*
X158940288Y-87192468D02*
X158559336Y-87192468D01*
X158559336Y-87192468D02*
X158406955Y-87118183D01*
X158406955Y-87118183D02*
X158330764Y-87043897D01*
X158330764Y-87043897D02*
X158254574Y-86895325D01*
X158254574Y-86895325D02*
X158254574Y-86746754D01*
X158254574Y-86746754D02*
X158330764Y-86598183D01*
X158330764Y-86598183D02*
X158406955Y-86523897D01*
X158406955Y-86523897D02*
X158559336Y-86449611D01*
X158559336Y-86449611D02*
X158864098Y-86375325D01*
X158864098Y-86375325D02*
X159016479Y-86301040D01*
X159016479Y-86301040D02*
X159092669Y-86226754D01*
X159092669Y-86226754D02*
X159168860Y-86078183D01*
X159168860Y-86078183D02*
X159168860Y-85929611D01*
X159168860Y-85929611D02*
X159092669Y-85781040D01*
X159092669Y-85781040D02*
X159016479Y-85706754D01*
X159016479Y-85706754D02*
X158864098Y-85632468D01*
X158864098Y-85632468D02*
X158483145Y-85632468D01*
X158483145Y-85632468D02*
X158254574Y-85706754D01*
X157568859Y-87192468D02*
X157568859Y-85632468D01*
X157568859Y-85632468D02*
X156959335Y-85632468D01*
X156959335Y-85632468D02*
X156806954Y-85706754D01*
X156806954Y-85706754D02*
X156730764Y-85781040D01*
X156730764Y-85781040D02*
X156654573Y-85929611D01*
X156654573Y-85929611D02*
X156654573Y-86152468D01*
X156654573Y-86152468D02*
X156730764Y-86301040D01*
X156730764Y-86301040D02*
X156806954Y-86375325D01*
X156806954Y-86375325D02*
X156959335Y-86449611D01*
X156959335Y-86449611D02*
X157568859Y-86449611D01*
X155206954Y-87192468D02*
X155968859Y-87192468D01*
X155968859Y-87192468D02*
X155968859Y-85632468D01*
X155054574Y-87341040D02*
X153835526Y-87341040D01*
X153454573Y-87192468D02*
X153454573Y-85632468D01*
X153454573Y-85632468D02*
X152921240Y-86746754D01*
X152921240Y-86746754D02*
X152387906Y-85632468D01*
X152387906Y-85632468D02*
X152387906Y-87192468D01*
X151321240Y-85632468D02*
X151016478Y-85632468D01*
X151016478Y-85632468D02*
X150864097Y-85706754D01*
X150864097Y-85706754D02*
X150711716Y-85855325D01*
X150711716Y-85855325D02*
X150635526Y-86152468D01*
X150635526Y-86152468D02*
X150635526Y-86672468D01*
X150635526Y-86672468D02*
X150711716Y-86969611D01*
X150711716Y-86969611D02*
X150864097Y-87118183D01*
X150864097Y-87118183D02*
X151016478Y-87192468D01*
X151016478Y-87192468D02*
X151321240Y-87192468D01*
X151321240Y-87192468D02*
X151473621Y-87118183D01*
X151473621Y-87118183D02*
X151626002Y-86969611D01*
X151626002Y-86969611D02*
X151702193Y-86672468D01*
X151702193Y-86672468D02*
X151702193Y-86152468D01*
X151702193Y-86152468D02*
X151626002Y-85855325D01*
X151626002Y-85855325D02*
X151473621Y-85706754D01*
X151473621Y-85706754D02*
X151321240Y-85632468D01*
X150026003Y-87118183D02*
X149797431Y-87192468D01*
X149797431Y-87192468D02*
X149416479Y-87192468D01*
X149416479Y-87192468D02*
X149264098Y-87118183D01*
X149264098Y-87118183D02*
X149187907Y-87043897D01*
X149187907Y-87043897D02*
X149111717Y-86895325D01*
X149111717Y-86895325D02*
X149111717Y-86746754D01*
X149111717Y-86746754D02*
X149187907Y-86598183D01*
X149187907Y-86598183D02*
X149264098Y-86523897D01*
X149264098Y-86523897D02*
X149416479Y-86449611D01*
X149416479Y-86449611D02*
X149721241Y-86375325D01*
X149721241Y-86375325D02*
X149873622Y-86301040D01*
X149873622Y-86301040D02*
X149949812Y-86226754D01*
X149949812Y-86226754D02*
X150026003Y-86078183D01*
X150026003Y-86078183D02*
X150026003Y-85929611D01*
X150026003Y-85929611D02*
X149949812Y-85781040D01*
X149949812Y-85781040D02*
X149873622Y-85706754D01*
X149873622Y-85706754D02*
X149721241Y-85632468D01*
X149721241Y-85632468D02*
X149340288Y-85632468D01*
X149340288Y-85632468D02*
X149111717Y-85706754D01*
X148426002Y-87192468D02*
X148426002Y-85632468D01*
X161454574Y-91398351D02*
X160921241Y-91398351D01*
X160692669Y-92215494D02*
X161454574Y-92215494D01*
X161454574Y-92215494D02*
X161454574Y-90655494D01*
X161454574Y-90655494D02*
X160692669Y-90655494D01*
X160159336Y-90655494D02*
X159092669Y-92215494D01*
X159092669Y-90655494D02*
X160159336Y-92215494D01*
X157568859Y-92066923D02*
X157645050Y-92141209D01*
X157645050Y-92141209D02*
X157873621Y-92215494D01*
X157873621Y-92215494D02*
X158026002Y-92215494D01*
X158026002Y-92215494D02*
X158254574Y-92141209D01*
X158254574Y-92141209D02*
X158406955Y-91992637D01*
X158406955Y-91992637D02*
X158483145Y-91844066D01*
X158483145Y-91844066D02*
X158559336Y-91546923D01*
X158559336Y-91546923D02*
X158559336Y-91324066D01*
X158559336Y-91324066D02*
X158483145Y-91026923D01*
X158483145Y-91026923D02*
X158406955Y-90878351D01*
X158406955Y-90878351D02*
X158254574Y-90729780D01*
X158254574Y-90729780D02*
X158026002Y-90655494D01*
X158026002Y-90655494D02*
X157873621Y-90655494D01*
X157873621Y-90655494D02*
X157645050Y-90729780D01*
X157645050Y-90729780D02*
X157568859Y-90804066D01*
X156883145Y-92215494D02*
X156883145Y-90655494D01*
X156349812Y-90655494D02*
X155435526Y-90655494D01*
X155892669Y-92215494D02*
X155892669Y-90655494D01*
X154978383Y-90804066D02*
X154902192Y-90729780D01*
X154902192Y-90729780D02*
X154749811Y-90655494D01*
X154749811Y-90655494D02*
X154368859Y-90655494D01*
X154368859Y-90655494D02*
X154216478Y-90729780D01*
X154216478Y-90729780D02*
X154140287Y-90804066D01*
X154140287Y-90804066D02*
X154064097Y-90952637D01*
X154064097Y-90952637D02*
X154064097Y-91101209D01*
X154064097Y-91101209D02*
X154140287Y-91324066D01*
X154140287Y-91324066D02*
X155054573Y-92215494D01*
X155054573Y-92215494D02*
X154064097Y-92215494D01*
X161683146Y-93167007D02*
X160768860Y-93167007D01*
X161226003Y-94727007D02*
X161226003Y-93167007D01*
X160387907Y-93167007D02*
X159321240Y-94727007D01*
X159321240Y-93167007D02*
X160387907Y-94727007D01*
X160921241Y-96421377D02*
X160692669Y-96495663D01*
X160692669Y-96495663D02*
X160616479Y-96569949D01*
X160616479Y-96569949D02*
X160540288Y-96718520D01*
X160540288Y-96718520D02*
X160540288Y-96941377D01*
X160540288Y-96941377D02*
X160616479Y-97089949D01*
X160616479Y-97089949D02*
X160692669Y-97164235D01*
X160692669Y-97164235D02*
X160845050Y-97238520D01*
X160845050Y-97238520D02*
X161454574Y-97238520D01*
X161454574Y-97238520D02*
X161454574Y-95678520D01*
X161454574Y-95678520D02*
X160921241Y-95678520D01*
X160921241Y-95678520D02*
X160768860Y-95752806D01*
X160768860Y-95752806D02*
X160692669Y-95827092D01*
X160692669Y-95827092D02*
X160616479Y-95975663D01*
X160616479Y-95975663D02*
X160616479Y-96124235D01*
X160616479Y-96124235D02*
X160692669Y-96272806D01*
X160692669Y-96272806D02*
X160768860Y-96347092D01*
X160768860Y-96347092D02*
X160921241Y-96421377D01*
X160921241Y-96421377D02*
X161454574Y-96421377D01*
X159168860Y-95678520D02*
X159473622Y-95678520D01*
X159473622Y-95678520D02*
X159626003Y-95752806D01*
X159626003Y-95752806D02*
X159702193Y-95827092D01*
X159702193Y-95827092D02*
X159854574Y-96049949D01*
X159854574Y-96049949D02*
X159930765Y-96347092D01*
X159930765Y-96347092D02*
X159930765Y-96941377D01*
X159930765Y-96941377D02*
X159854574Y-97089949D01*
X159854574Y-97089949D02*
X159778384Y-97164235D01*
X159778384Y-97164235D02*
X159626003Y-97238520D01*
X159626003Y-97238520D02*
X159321241Y-97238520D01*
X159321241Y-97238520D02*
X159168860Y-97164235D01*
X159168860Y-97164235D02*
X159092669Y-97089949D01*
X159092669Y-97089949D02*
X159016479Y-96941377D01*
X159016479Y-96941377D02*
X159016479Y-96569949D01*
X159016479Y-96569949D02*
X159092669Y-96421377D01*
X159092669Y-96421377D02*
X159168860Y-96347092D01*
X159168860Y-96347092D02*
X159321241Y-96272806D01*
X159321241Y-96272806D02*
X159626003Y-96272806D01*
X159626003Y-96272806D02*
X159778384Y-96347092D01*
X159778384Y-96347092D02*
X159854574Y-96421377D01*
X159854574Y-96421377D02*
X159930765Y-96569949D01*
X160540288Y-109796085D02*
X161073622Y-109053228D01*
X161454574Y-109796085D02*
X161454574Y-108236085D01*
X161454574Y-108236085D02*
X160845050Y-108236085D01*
X160845050Y-108236085D02*
X160692669Y-108310371D01*
X160692669Y-108310371D02*
X160616479Y-108384657D01*
X160616479Y-108384657D02*
X160540288Y-108533228D01*
X160540288Y-108533228D02*
X160540288Y-108756085D01*
X160540288Y-108756085D02*
X160616479Y-108904657D01*
X160616479Y-108904657D02*
X160692669Y-108978942D01*
X160692669Y-108978942D02*
X160845050Y-109053228D01*
X160845050Y-109053228D02*
X161454574Y-109053228D01*
X160006955Y-108236085D02*
X158940288Y-109796085D01*
X158940288Y-108236085D02*
X160006955Y-109796085D01*
D12*
X208690476Y-44073866D02*
X207928572Y-44073866D01*
X206119048Y-44454819D02*
X206452381Y-43978628D01*
X206690476Y-44454819D02*
X206690476Y-43454819D01*
X206690476Y-43454819D02*
X206309524Y-43454819D01*
X206309524Y-43454819D02*
X206214286Y-43502438D01*
X206214286Y-43502438D02*
X206166667Y-43550057D01*
X206166667Y-43550057D02*
X206119048Y-43645295D01*
X206119048Y-43645295D02*
X206119048Y-43788152D01*
X206119048Y-43788152D02*
X206166667Y-43883390D01*
X206166667Y-43883390D02*
X206214286Y-43931009D01*
X206214286Y-43931009D02*
X206309524Y-43978628D01*
X206309524Y-43978628D02*
X206690476Y-43978628D01*
X205309524Y-44407200D02*
X205404762Y-44454819D01*
X205404762Y-44454819D02*
X205595238Y-44454819D01*
X205595238Y-44454819D02*
X205690476Y-44407200D01*
X205690476Y-44407200D02*
X205738095Y-44311961D01*
X205738095Y-44311961D02*
X205738095Y-43931009D01*
X205738095Y-43931009D02*
X205690476Y-43835771D01*
X205690476Y-43835771D02*
X205595238Y-43788152D01*
X205595238Y-43788152D02*
X205404762Y-43788152D01*
X205404762Y-43788152D02*
X205309524Y-43835771D01*
X205309524Y-43835771D02*
X205261905Y-43931009D01*
X205261905Y-43931009D02*
X205261905Y-44026247D01*
X205261905Y-44026247D02*
X205738095Y-44121485D01*
X204976190Y-43788152D02*
X204595238Y-43788152D01*
X204833333Y-44454819D02*
X204833333Y-43597676D01*
X204833333Y-43597676D02*
X204785714Y-43502438D01*
X204785714Y-43502438D02*
X204690476Y-43454819D01*
X204690476Y-43454819D02*
X204595238Y-43454819D01*
X204500000Y-44550057D02*
X203738095Y-44550057D01*
X202928571Y-44454819D02*
X203261904Y-43978628D01*
X203499999Y-44454819D02*
X203499999Y-43454819D01*
X203499999Y-43454819D02*
X203119047Y-43454819D01*
X203119047Y-43454819D02*
X203023809Y-43502438D01*
X203023809Y-43502438D02*
X202976190Y-43550057D01*
X202976190Y-43550057D02*
X202928571Y-43645295D01*
X202928571Y-43645295D02*
X202928571Y-43788152D01*
X202928571Y-43788152D02*
X202976190Y-43883390D01*
X202976190Y-43883390D02*
X203023809Y-43931009D01*
X203023809Y-43931009D02*
X203119047Y-43978628D01*
X203119047Y-43978628D02*
X203499999Y-43978628D01*
X202119047Y-44407200D02*
X202214285Y-44454819D01*
X202214285Y-44454819D02*
X202404761Y-44454819D01*
X202404761Y-44454819D02*
X202499999Y-44407200D01*
X202499999Y-44407200D02*
X202547618Y-44311961D01*
X202547618Y-44311961D02*
X202547618Y-43931009D01*
X202547618Y-43931009D02*
X202499999Y-43835771D01*
X202499999Y-43835771D02*
X202404761Y-43788152D01*
X202404761Y-43788152D02*
X202214285Y-43788152D01*
X202214285Y-43788152D02*
X202119047Y-43835771D01*
X202119047Y-43835771D02*
X202071428Y-43931009D01*
X202071428Y-43931009D02*
X202071428Y-44026247D01*
X202071428Y-44026247D02*
X202547618Y-44121485D01*
X201690475Y-44407200D02*
X201595237Y-44454819D01*
X201595237Y-44454819D02*
X201404761Y-44454819D01*
X201404761Y-44454819D02*
X201309523Y-44407200D01*
X201309523Y-44407200D02*
X201261904Y-44311961D01*
X201261904Y-44311961D02*
X201261904Y-44264342D01*
X201261904Y-44264342D02*
X201309523Y-44169104D01*
X201309523Y-44169104D02*
X201404761Y-44121485D01*
X201404761Y-44121485D02*
X201547618Y-44121485D01*
X201547618Y-44121485D02*
X201642856Y-44073866D01*
X201642856Y-44073866D02*
X201690475Y-43978628D01*
X201690475Y-43978628D02*
X201690475Y-43931009D01*
X201690475Y-43931009D02*
X201642856Y-43835771D01*
X201642856Y-43835771D02*
X201547618Y-43788152D01*
X201547618Y-43788152D02*
X201404761Y-43788152D01*
X201404761Y-43788152D02*
X201309523Y-43835771D01*
X200071427Y-44073866D02*
X199309523Y-44073866D01*
X199690475Y-44454819D02*
X199690475Y-43692914D01*
D13*
X145983928Y-89909638D02*
X145983928Y-87909638D01*
X145983928Y-87909638D02*
X144841071Y-89909638D01*
X144841071Y-89909638D02*
X144841071Y-87909638D01*
X143031547Y-88576304D02*
X143031547Y-89909638D01*
X143888690Y-88576304D02*
X143888690Y-89623923D01*
X143888690Y-89623923D02*
X143793452Y-89814400D01*
X143793452Y-89814400D02*
X143602976Y-89909638D01*
X143602976Y-89909638D02*
X143317261Y-89909638D01*
X143317261Y-89909638D02*
X143126785Y-89814400D01*
X143126785Y-89814400D02*
X143031547Y-89719161D01*
X141222023Y-89814400D02*
X141412499Y-89909638D01*
X141412499Y-89909638D02*
X141793452Y-89909638D01*
X141793452Y-89909638D02*
X141983928Y-89814400D01*
X141983928Y-89814400D02*
X142079166Y-89719161D01*
X142079166Y-89719161D02*
X142174404Y-89528685D01*
X142174404Y-89528685D02*
X142174404Y-88957257D01*
X142174404Y-88957257D02*
X142079166Y-88766780D01*
X142079166Y-88766780D02*
X141983928Y-88671542D01*
X141983928Y-88671542D02*
X141793452Y-88576304D01*
X141793452Y-88576304D02*
X141412499Y-88576304D01*
X141412499Y-88576304D02*
X141222023Y-88671542D01*
X140079166Y-89909638D02*
X140269642Y-89814400D01*
X140269642Y-89814400D02*
X140364880Y-89623923D01*
X140364880Y-89623923D02*
X140364880Y-87909638D01*
X138555356Y-89814400D02*
X138745832Y-89909638D01*
X138745832Y-89909638D02*
X139126785Y-89909638D01*
X139126785Y-89909638D02*
X139317261Y-89814400D01*
X139317261Y-89814400D02*
X139412499Y-89623923D01*
X139412499Y-89623923D02*
X139412499Y-88862019D01*
X139412499Y-88862019D02*
X139317261Y-88671542D01*
X139317261Y-88671542D02*
X139126785Y-88576304D01*
X139126785Y-88576304D02*
X138745832Y-88576304D01*
X138745832Y-88576304D02*
X138555356Y-88671542D01*
X138555356Y-88671542D02*
X138460118Y-88862019D01*
X138460118Y-88862019D02*
X138460118Y-89052495D01*
X138460118Y-89052495D02*
X139412499Y-89242971D01*
X137317261Y-89909638D02*
X137507737Y-89814400D01*
X137507737Y-89814400D02*
X137602975Y-89719161D01*
X137602975Y-89719161D02*
X137698213Y-89528685D01*
X137698213Y-89528685D02*
X137698213Y-88957257D01*
X137698213Y-88957257D02*
X137602975Y-88766780D01*
X137602975Y-88766780D02*
X137507737Y-88671542D01*
X137507737Y-88671542D02*
X137317261Y-88576304D01*
X137317261Y-88576304D02*
X137031546Y-88576304D01*
X137031546Y-88576304D02*
X136841070Y-88671542D01*
X136841070Y-88671542D02*
X136745832Y-88766780D01*
X136745832Y-88766780D02*
X136650594Y-88957257D01*
X136650594Y-88957257D02*
X136650594Y-89528685D01*
X136650594Y-89528685D02*
X136745832Y-89719161D01*
X136745832Y-89719161D02*
X136841070Y-89814400D01*
X136841070Y-89814400D02*
X137031546Y-89909638D01*
X137031546Y-89909638D02*
X137317261Y-89909638D01*
X135793451Y-89147733D02*
X134269642Y-89147733D01*
X132650594Y-88862019D02*
X133317261Y-88862019D01*
X133317261Y-89909638D02*
X133317261Y-87909638D01*
X133317261Y-87909638D02*
X132364880Y-87909638D01*
X130555356Y-89909638D02*
X131698213Y-89909638D01*
X131126785Y-89909638D02*
X131126785Y-87909638D01*
X131126785Y-87909638D02*
X131317261Y-88195352D01*
X131317261Y-88195352D02*
X131507737Y-88385828D01*
X131507737Y-88385828D02*
X131698213Y-88481066D01*
X129317261Y-87909638D02*
X129126784Y-87909638D01*
X129126784Y-87909638D02*
X128936308Y-88004876D01*
X128936308Y-88004876D02*
X128841070Y-88100114D01*
X128841070Y-88100114D02*
X128745832Y-88290590D01*
X128745832Y-88290590D02*
X128650594Y-88671542D01*
X128650594Y-88671542D02*
X128650594Y-89147733D01*
X128650594Y-89147733D02*
X128745832Y-89528685D01*
X128745832Y-89528685D02*
X128841070Y-89719161D01*
X128841070Y-89719161D02*
X128936308Y-89814400D01*
X128936308Y-89814400D02*
X129126784Y-89909638D01*
X129126784Y-89909638D02*
X129317261Y-89909638D01*
X129317261Y-89909638D02*
X129507737Y-89814400D01*
X129507737Y-89814400D02*
X129602975Y-89719161D01*
X129602975Y-89719161D02*
X129698213Y-89528685D01*
X129698213Y-89528685D02*
X129793451Y-89147733D01*
X129793451Y-89147733D02*
X129793451Y-88671542D01*
X129793451Y-88671542D02*
X129698213Y-88290590D01*
X129698213Y-88290590D02*
X129602975Y-88100114D01*
X129602975Y-88100114D02*
X129507737Y-88004876D01*
X129507737Y-88004876D02*
X129317261Y-87909638D01*
X127983927Y-87909638D02*
X126745832Y-87909638D01*
X126745832Y-87909638D02*
X127412499Y-88671542D01*
X127412499Y-88671542D02*
X127126784Y-88671542D01*
X127126784Y-88671542D02*
X126936308Y-88766780D01*
X126936308Y-88766780D02*
X126841070Y-88862019D01*
X126841070Y-88862019D02*
X126745832Y-89052495D01*
X126745832Y-89052495D02*
X126745832Y-89528685D01*
X126745832Y-89528685D02*
X126841070Y-89719161D01*
X126841070Y-89719161D02*
X126936308Y-89814400D01*
X126936308Y-89814400D02*
X127126784Y-89909638D01*
X127126784Y-89909638D02*
X127698213Y-89909638D01*
X127698213Y-89909638D02*
X127888689Y-89814400D01*
X127888689Y-89814400D02*
X127983927Y-89719161D01*
X124745832Y-89909638D02*
X125412499Y-88957257D01*
X125888689Y-89909638D02*
X125888689Y-87909638D01*
X125888689Y-87909638D02*
X125126784Y-87909638D01*
X125126784Y-87909638D02*
X124936308Y-88004876D01*
X124936308Y-88004876D02*
X124841070Y-88100114D01*
X124841070Y-88100114D02*
X124745832Y-88290590D01*
X124745832Y-88290590D02*
X124745832Y-88576304D01*
X124745832Y-88576304D02*
X124841070Y-88766780D01*
X124841070Y-88766780D02*
X124936308Y-88862019D01*
X124936308Y-88862019D02*
X125126784Y-88957257D01*
X125126784Y-88957257D02*
X125888689Y-88957257D01*
X123222022Y-88862019D02*
X122936308Y-88957257D01*
X122936308Y-88957257D02*
X122841070Y-89052495D01*
X122841070Y-89052495D02*
X122745832Y-89242971D01*
X122745832Y-89242971D02*
X122745832Y-89528685D01*
X122745832Y-89528685D02*
X122841070Y-89719161D01*
X122841070Y-89719161D02*
X122936308Y-89814400D01*
X122936308Y-89814400D02*
X123126784Y-89909638D01*
X123126784Y-89909638D02*
X123888689Y-89909638D01*
X123888689Y-89909638D02*
X123888689Y-87909638D01*
X123888689Y-87909638D02*
X123222022Y-87909638D01*
X123222022Y-87909638D02*
X123031546Y-88004876D01*
X123031546Y-88004876D02*
X122936308Y-88100114D01*
X122936308Y-88100114D02*
X122841070Y-88290590D01*
X122841070Y-88290590D02*
X122841070Y-88481066D01*
X122841070Y-88481066D02*
X122936308Y-88671542D01*
X122936308Y-88671542D02*
X123031546Y-88766780D01*
X123031546Y-88766780D02*
X123222022Y-88862019D01*
X123222022Y-88862019D02*
X123888689Y-88862019D01*
D11*
X224051870Y-71959711D02*
X223289965Y-71426377D01*
X224051870Y-71045425D02*
X222451870Y-71045425D01*
X222451870Y-71045425D02*
X222451870Y-71654949D01*
X222451870Y-71654949D02*
X222528060Y-71807330D01*
X222528060Y-71807330D02*
X222604251Y-71883520D01*
X222604251Y-71883520D02*
X222756632Y-71959711D01*
X222756632Y-71959711D02*
X222985203Y-71959711D01*
X222985203Y-71959711D02*
X223137584Y-71883520D01*
X223137584Y-71883520D02*
X223213775Y-71807330D01*
X223213775Y-71807330D02*
X223289965Y-71654949D01*
X223289965Y-71654949D02*
X223289965Y-71045425D01*
X222451870Y-72416853D02*
X222451870Y-73331139D01*
X224051870Y-72873996D02*
X222451870Y-72873996D01*
X224051870Y-73864473D02*
X222451870Y-73864473D01*
X222451870Y-73864473D02*
X222451870Y-74245425D01*
X222451870Y-74245425D02*
X222528060Y-74473997D01*
X222528060Y-74473997D02*
X222680441Y-74626378D01*
X222680441Y-74626378D02*
X222832822Y-74702568D01*
X222832822Y-74702568D02*
X223137584Y-74778759D01*
X223137584Y-74778759D02*
X223366156Y-74778759D01*
X223366156Y-74778759D02*
X223670918Y-74702568D01*
X223670918Y-74702568D02*
X223823299Y-74626378D01*
X223823299Y-74626378D02*
X223975680Y-74473997D01*
X223975680Y-74473997D02*
X224051870Y-74245425D01*
X224051870Y-74245425D02*
X224051870Y-73864473D01*
X224051870Y-75464473D02*
X222451870Y-75464473D01*
X224051870Y-76226378D02*
X222451870Y-76226378D01*
X222451870Y-76226378D02*
X224051870Y-77140664D01*
X224051870Y-77140664D02*
X222451870Y-77140664D01*
X223442346Y-77902568D02*
X223442346Y-79121616D01*
X226627780Y-71959711D02*
X225865875Y-71426377D01*
X226627780Y-71045425D02*
X225027780Y-71045425D01*
X225027780Y-71045425D02*
X225027780Y-71654949D01*
X225027780Y-71654949D02*
X225103970Y-71807330D01*
X225103970Y-71807330D02*
X225180161Y-71883520D01*
X225180161Y-71883520D02*
X225332542Y-71959711D01*
X225332542Y-71959711D02*
X225561113Y-71959711D01*
X225561113Y-71959711D02*
X225713494Y-71883520D01*
X225713494Y-71883520D02*
X225789685Y-71807330D01*
X225789685Y-71807330D02*
X225865875Y-71654949D01*
X225865875Y-71654949D02*
X225865875Y-71045425D01*
X225027780Y-72416853D02*
X225027780Y-73331139D01*
X226627780Y-72873996D02*
X225027780Y-72873996D01*
X226627780Y-73864473D02*
X225027780Y-73864473D01*
X225027780Y-73864473D02*
X225027780Y-74245425D01*
X225027780Y-74245425D02*
X225103970Y-74473997D01*
X225103970Y-74473997D02*
X225256351Y-74626378D01*
X225256351Y-74626378D02*
X225408732Y-74702568D01*
X225408732Y-74702568D02*
X225713494Y-74778759D01*
X225713494Y-74778759D02*
X225942066Y-74778759D01*
X225942066Y-74778759D02*
X226246828Y-74702568D01*
X226246828Y-74702568D02*
X226399209Y-74626378D01*
X226399209Y-74626378D02*
X226551590Y-74473997D01*
X226551590Y-74473997D02*
X226627780Y-74245425D01*
X226627780Y-74245425D02*
X226627780Y-73864473D01*
X226627780Y-75464473D02*
X225027780Y-75464473D01*
X226627780Y-76226378D02*
X225027780Y-76226378D01*
X225027780Y-76226378D02*
X226627780Y-77140664D01*
X226627780Y-77140664D02*
X225027780Y-77140664D01*
X226018256Y-77902568D02*
X226018256Y-79121616D01*
X226627780Y-78512092D02*
X225408732Y-78512092D01*
X228365595Y-71578758D02*
X228365595Y-71045425D01*
X229203690Y-71045425D02*
X227603690Y-71045425D01*
X227603690Y-71045425D02*
X227603690Y-71807330D01*
X228594166Y-72416854D02*
X228594166Y-73635902D01*
X229203690Y-73026378D02*
X227984642Y-73026378D01*
D12*
X174454819Y-115880952D02*
X173454819Y-115880952D01*
X173454819Y-115880952D02*
X174169104Y-116214285D01*
X174169104Y-116214285D02*
X173454819Y-116547618D01*
X173454819Y-116547618D02*
X174454819Y-116547618D01*
X174169104Y-116976190D02*
X174169104Y-117452380D01*
X174454819Y-116880952D02*
X173454819Y-117214285D01*
X173454819Y-117214285D02*
X174454819Y-117547618D01*
X173454819Y-117785714D02*
X174454819Y-118452380D01*
X173454819Y-118452380D02*
X174454819Y-117785714D01*
X173454819Y-118738095D02*
X173454819Y-119357142D01*
X173454819Y-119357142D02*
X173835771Y-119023809D01*
X173835771Y-119023809D02*
X173835771Y-119166666D01*
X173835771Y-119166666D02*
X173883390Y-119261904D01*
X173883390Y-119261904D02*
X173931009Y-119309523D01*
X173931009Y-119309523D02*
X174026247Y-119357142D01*
X174026247Y-119357142D02*
X174264342Y-119357142D01*
X174264342Y-119357142D02*
X174359580Y-119309523D01*
X174359580Y-119309523D02*
X174407200Y-119261904D01*
X174407200Y-119261904D02*
X174454819Y-119166666D01*
X174454819Y-119166666D02*
X174454819Y-118880952D01*
X174454819Y-118880952D02*
X174407200Y-118785714D01*
X174407200Y-118785714D02*
X174359580Y-118738095D01*
X174454819Y-120309523D02*
X174454819Y-119738095D01*
X174454819Y-120023809D02*
X173454819Y-120023809D01*
X173454819Y-120023809D02*
X173597676Y-119928571D01*
X173597676Y-119928571D02*
X173692914Y-119833333D01*
X173692914Y-119833333D02*
X173740533Y-119738095D01*
X173883390Y-120880952D02*
X173835771Y-120785714D01*
X173835771Y-120785714D02*
X173788152Y-120738095D01*
X173788152Y-120738095D02*
X173692914Y-120690476D01*
X173692914Y-120690476D02*
X173645295Y-120690476D01*
X173645295Y-120690476D02*
X173550057Y-120738095D01*
X173550057Y-120738095D02*
X173502438Y-120785714D01*
X173502438Y-120785714D02*
X173454819Y-120880952D01*
X173454819Y-120880952D02*
X173454819Y-121071428D01*
X173454819Y-121071428D02*
X173502438Y-121166666D01*
X173502438Y-121166666D02*
X173550057Y-121214285D01*
X173550057Y-121214285D02*
X173645295Y-121261904D01*
X173645295Y-121261904D02*
X173692914Y-121261904D01*
X173692914Y-121261904D02*
X173788152Y-121214285D01*
X173788152Y-121214285D02*
X173835771Y-121166666D01*
X173835771Y-121166666D02*
X173883390Y-121071428D01*
X173883390Y-121071428D02*
X173883390Y-120880952D01*
X173883390Y-120880952D02*
X173931009Y-120785714D01*
X173931009Y-120785714D02*
X173978628Y-120738095D01*
X173978628Y-120738095D02*
X174073866Y-120690476D01*
X174073866Y-120690476D02*
X174264342Y-120690476D01*
X174264342Y-120690476D02*
X174359580Y-120738095D01*
X174359580Y-120738095D02*
X174407200Y-120785714D01*
X174407200Y-120785714D02*
X174454819Y-120880952D01*
X174454819Y-120880952D02*
X174454819Y-121071428D01*
X174454819Y-121071428D02*
X174407200Y-121166666D01*
X174407200Y-121166666D02*
X174359580Y-121214285D01*
X174359580Y-121214285D02*
X174264342Y-121261904D01*
X174264342Y-121261904D02*
X174073866Y-121261904D01*
X174073866Y-121261904D02*
X173978628Y-121214285D01*
X173978628Y-121214285D02*
X173931009Y-121166666D01*
X173931009Y-121166666D02*
X173883390Y-121071428D01*
X173454819Y-122166666D02*
X173454819Y-121690476D01*
X173454819Y-121690476D02*
X173931009Y-121642857D01*
X173931009Y-121642857D02*
X173883390Y-121690476D01*
X173883390Y-121690476D02*
X173835771Y-121785714D01*
X173835771Y-121785714D02*
X173835771Y-122023809D01*
X173835771Y-122023809D02*
X173883390Y-122119047D01*
X173883390Y-122119047D02*
X173931009Y-122166666D01*
X173931009Y-122166666D02*
X174026247Y-122214285D01*
X174026247Y-122214285D02*
X174264342Y-122214285D01*
X174264342Y-122214285D02*
X174359580Y-122166666D01*
X174359580Y-122166666D02*
X174407200Y-122119047D01*
X174407200Y-122119047D02*
X174454819Y-122023809D01*
X174454819Y-122023809D02*
X174454819Y-121785714D01*
X174454819Y-121785714D02*
X174407200Y-121690476D01*
X174407200Y-121690476D02*
X174359580Y-121642857D01*
X173454819Y-123071428D02*
X173454819Y-122880952D01*
X173454819Y-122880952D02*
X173502438Y-122785714D01*
X173502438Y-122785714D02*
X173550057Y-122738095D01*
X173550057Y-122738095D02*
X173692914Y-122642857D01*
X173692914Y-122642857D02*
X173883390Y-122595238D01*
X173883390Y-122595238D02*
X174264342Y-122595238D01*
X174264342Y-122595238D02*
X174359580Y-122642857D01*
X174359580Y-122642857D02*
X174407200Y-122690476D01*
X174407200Y-122690476D02*
X174454819Y-122785714D01*
X174454819Y-122785714D02*
X174454819Y-122976190D01*
X174454819Y-122976190D02*
X174407200Y-123071428D01*
X174407200Y-123071428D02*
X174359580Y-123119047D01*
X174359580Y-123119047D02*
X174264342Y-123166666D01*
X174264342Y-123166666D02*
X174026247Y-123166666D01*
X174026247Y-123166666D02*
X173931009Y-123119047D01*
X173931009Y-123119047D02*
X173883390Y-123071428D01*
X173883390Y-123071428D02*
X173835771Y-122976190D01*
X173835771Y-122976190D02*
X173835771Y-122785714D01*
X173835771Y-122785714D02*
X173883390Y-122690476D01*
X173883390Y-122690476D02*
X173931009Y-122642857D01*
X173931009Y-122642857D02*
X174026247Y-122595238D01*
X168595237Y-66407200D02*
X168452380Y-66454819D01*
X168452380Y-66454819D02*
X168214285Y-66454819D01*
X168214285Y-66454819D02*
X168119047Y-66407200D01*
X168119047Y-66407200D02*
X168071428Y-66359580D01*
X168071428Y-66359580D02*
X168023809Y-66264342D01*
X168023809Y-66264342D02*
X168023809Y-66169104D01*
X168023809Y-66169104D02*
X168071428Y-66073866D01*
X168071428Y-66073866D02*
X168119047Y-66026247D01*
X168119047Y-66026247D02*
X168214285Y-65978628D01*
X168214285Y-65978628D02*
X168404761Y-65931009D01*
X168404761Y-65931009D02*
X168499999Y-65883390D01*
X168499999Y-65883390D02*
X168547618Y-65835771D01*
X168547618Y-65835771D02*
X168595237Y-65740533D01*
X168595237Y-65740533D02*
X168595237Y-65645295D01*
X168595237Y-65645295D02*
X168547618Y-65550057D01*
X168547618Y-65550057D02*
X168499999Y-65502438D01*
X168499999Y-65502438D02*
X168404761Y-65454819D01*
X168404761Y-65454819D02*
X168166666Y-65454819D01*
X168166666Y-65454819D02*
X168023809Y-65502438D01*
X167738094Y-65454819D02*
X167166666Y-65454819D01*
X167452380Y-66454819D02*
X167452380Y-65454819D01*
X166833332Y-66454819D02*
X166833332Y-65454819D01*
X166833332Y-65454819D02*
X166499999Y-66169104D01*
X166499999Y-66169104D02*
X166166666Y-65454819D01*
X166166666Y-65454819D02*
X166166666Y-66454819D01*
X165928571Y-66550057D02*
X165166666Y-66550057D01*
X164357142Y-66359580D02*
X164404761Y-66407200D01*
X164404761Y-66407200D02*
X164547618Y-66454819D01*
X164547618Y-66454819D02*
X164642856Y-66454819D01*
X164642856Y-66454819D02*
X164785713Y-66407200D01*
X164785713Y-66407200D02*
X164880951Y-66311961D01*
X164880951Y-66311961D02*
X164928570Y-66216723D01*
X164928570Y-66216723D02*
X164976189Y-66026247D01*
X164976189Y-66026247D02*
X164976189Y-65883390D01*
X164976189Y-65883390D02*
X164928570Y-65692914D01*
X164928570Y-65692914D02*
X164880951Y-65597676D01*
X164880951Y-65597676D02*
X164785713Y-65502438D01*
X164785713Y-65502438D02*
X164642856Y-65454819D01*
X164642856Y-65454819D02*
X164547618Y-65454819D01*
X164547618Y-65454819D02*
X164404761Y-65502438D01*
X164404761Y-65502438D02*
X164357142Y-65550057D01*
X163928570Y-66454819D02*
X163928570Y-65454819D01*
X163928570Y-65454819D02*
X163357142Y-66454819D01*
X163357142Y-66454819D02*
X163357142Y-65454819D01*
X162357142Y-66454819D02*
X162928570Y-66454819D01*
X162642856Y-66454819D02*
X162642856Y-65454819D01*
X162642856Y-65454819D02*
X162738094Y-65597676D01*
X162738094Y-65597676D02*
X162833332Y-65692914D01*
X162833332Y-65692914D02*
X162928570Y-65740533D01*
X161738094Y-65454819D02*
X161642856Y-65454819D01*
X161642856Y-65454819D02*
X161547618Y-65502438D01*
X161547618Y-65502438D02*
X161499999Y-65550057D01*
X161499999Y-65550057D02*
X161452380Y-65645295D01*
X161452380Y-65645295D02*
X161404761Y-65835771D01*
X161404761Y-65835771D02*
X161404761Y-66073866D01*
X161404761Y-66073866D02*
X161452380Y-66264342D01*
X161452380Y-66264342D02*
X161499999Y-66359580D01*
X161499999Y-66359580D02*
X161547618Y-66407200D01*
X161547618Y-66407200D02*
X161642856Y-66454819D01*
X161642856Y-66454819D02*
X161738094Y-66454819D01*
X161738094Y-66454819D02*
X161833332Y-66407200D01*
X161833332Y-66407200D02*
X161880951Y-66359580D01*
X161880951Y-66359580D02*
X161928570Y-66264342D01*
X161928570Y-66264342D02*
X161976189Y-66073866D01*
X161976189Y-66073866D02*
X161976189Y-65835771D01*
X161976189Y-65835771D02*
X161928570Y-65645295D01*
X161928570Y-65645295D02*
X161880951Y-65550057D01*
X161880951Y-65550057D02*
X161833332Y-65502438D01*
X161833332Y-65502438D02*
X161738094Y-65454819D01*
D14*
X182764880Y-70120266D02*
X183983928Y-70120266D01*
X183374404Y-70729790D02*
X183374404Y-69510742D01*
X190841072Y-70120266D02*
X192060120Y-70120266D01*
D12*
X107119047Y-66407200D02*
X106976190Y-66454819D01*
X106976190Y-66454819D02*
X106738095Y-66454819D01*
X106738095Y-66454819D02*
X106642857Y-66407200D01*
X106642857Y-66407200D02*
X106595238Y-66359580D01*
X106595238Y-66359580D02*
X106547619Y-66264342D01*
X106547619Y-66264342D02*
X106547619Y-66169104D01*
X106547619Y-66169104D02*
X106595238Y-66073866D01*
X106595238Y-66073866D02*
X106642857Y-66026247D01*
X106642857Y-66026247D02*
X106738095Y-65978628D01*
X106738095Y-65978628D02*
X106928571Y-65931009D01*
X106928571Y-65931009D02*
X107023809Y-65883390D01*
X107023809Y-65883390D02*
X107071428Y-65835771D01*
X107071428Y-65835771D02*
X107119047Y-65740533D01*
X107119047Y-65740533D02*
X107119047Y-65645295D01*
X107119047Y-65645295D02*
X107071428Y-65550057D01*
X107071428Y-65550057D02*
X107023809Y-65502438D01*
X107023809Y-65502438D02*
X106928571Y-65454819D01*
X106928571Y-65454819D02*
X106690476Y-65454819D01*
X106690476Y-65454819D02*
X106547619Y-65502438D01*
X106261904Y-65454819D02*
X105690476Y-65454819D01*
X105976190Y-66454819D02*
X105976190Y-65454819D01*
X105357142Y-66454819D02*
X105357142Y-65454819D01*
X105357142Y-65454819D02*
X105023809Y-66169104D01*
X105023809Y-66169104D02*
X104690476Y-65454819D01*
X104690476Y-65454819D02*
X104690476Y-66454819D01*
X104452381Y-66550057D02*
X103690476Y-66550057D01*
X102880952Y-66359580D02*
X102928571Y-66407200D01*
X102928571Y-66407200D02*
X103071428Y-66454819D01*
X103071428Y-66454819D02*
X103166666Y-66454819D01*
X103166666Y-66454819D02*
X103309523Y-66407200D01*
X103309523Y-66407200D02*
X103404761Y-66311961D01*
X103404761Y-66311961D02*
X103452380Y-66216723D01*
X103452380Y-66216723D02*
X103499999Y-66026247D01*
X103499999Y-66026247D02*
X103499999Y-65883390D01*
X103499999Y-65883390D02*
X103452380Y-65692914D01*
X103452380Y-65692914D02*
X103404761Y-65597676D01*
X103404761Y-65597676D02*
X103309523Y-65502438D01*
X103309523Y-65502438D02*
X103166666Y-65454819D01*
X103166666Y-65454819D02*
X103071428Y-65454819D01*
X103071428Y-65454819D02*
X102928571Y-65502438D01*
X102928571Y-65502438D02*
X102880952Y-65550057D01*
X102452380Y-66454819D02*
X102452380Y-65454819D01*
X102452380Y-65454819D02*
X101880952Y-66454819D01*
X101880952Y-66454819D02*
X101880952Y-65454819D01*
X101499999Y-65454819D02*
X100833333Y-65454819D01*
X100833333Y-65454819D02*
X101261904Y-66454819D01*
D11*
X198916089Y-126593045D02*
X197316089Y-126059711D01*
X197316089Y-126059711D02*
X198916089Y-125526378D01*
X197316089Y-124993044D02*
X198382756Y-124993044D01*
X198916089Y-124993044D02*
X198839899Y-125069235D01*
X198839899Y-125069235D02*
X198763708Y-124993044D01*
X198763708Y-124993044D02*
X198839899Y-124916854D01*
X198839899Y-124916854D02*
X198916089Y-124993044D01*
X198916089Y-124993044D02*
X198763708Y-124993044D01*
X198382756Y-124231139D02*
X197316089Y-124231139D01*
X198230375Y-124231139D02*
X198306565Y-124154949D01*
X198306565Y-124154949D02*
X198382756Y-124002568D01*
X198382756Y-124002568D02*
X198382756Y-123773996D01*
X198382756Y-123773996D02*
X198306565Y-123621615D01*
X198306565Y-123621615D02*
X198154184Y-123545425D01*
X198154184Y-123545425D02*
X197316089Y-123545425D01*
X196340179Y-128193045D02*
X196340179Y-127202569D01*
X196340179Y-127202569D02*
X195730655Y-127735902D01*
X195730655Y-127735902D02*
X195730655Y-127507331D01*
X195730655Y-127507331D02*
X195654465Y-127354950D01*
X195654465Y-127354950D02*
X195578274Y-127278759D01*
X195578274Y-127278759D02*
X195425893Y-127202569D01*
X195425893Y-127202569D02*
X195044941Y-127202569D01*
X195044941Y-127202569D02*
X194892560Y-127278759D01*
X194892560Y-127278759D02*
X194816370Y-127354950D01*
X194816370Y-127354950D02*
X194740179Y-127507331D01*
X194740179Y-127507331D02*
X194740179Y-127964474D01*
X194740179Y-127964474D02*
X194816370Y-128116855D01*
X194816370Y-128116855D02*
X194892560Y-128193045D01*
X194892560Y-126516854D02*
X194816370Y-126440664D01*
X194816370Y-126440664D02*
X194740179Y-126516854D01*
X194740179Y-126516854D02*
X194816370Y-126593045D01*
X194816370Y-126593045D02*
X194892560Y-126516854D01*
X194892560Y-126516854D02*
X194740179Y-126516854D01*
X196340179Y-125907330D02*
X196340179Y-124916854D01*
X196340179Y-124916854D02*
X195730655Y-125450187D01*
X195730655Y-125450187D02*
X195730655Y-125221616D01*
X195730655Y-125221616D02*
X195654465Y-125069235D01*
X195654465Y-125069235D02*
X195578274Y-124993044D01*
X195578274Y-124993044D02*
X195425893Y-124916854D01*
X195425893Y-124916854D02*
X195044941Y-124916854D01*
X195044941Y-124916854D02*
X194892560Y-124993044D01*
X194892560Y-124993044D02*
X194816370Y-125069235D01*
X194816370Y-125069235D02*
X194740179Y-125221616D01*
X194740179Y-125221616D02*
X194740179Y-125678759D01*
X194740179Y-125678759D02*
X194816370Y-125831140D01*
X194816370Y-125831140D02*
X194892560Y-125907330D01*
X194740179Y-124002568D02*
X194816370Y-124154949D01*
X194816370Y-124154949D02*
X194892560Y-124231139D01*
X194892560Y-124231139D02*
X195044941Y-124307330D01*
X195044941Y-124307330D02*
X195502084Y-124307330D01*
X195502084Y-124307330D02*
X195654465Y-124231139D01*
X195654465Y-124231139D02*
X195730655Y-124154949D01*
X195730655Y-124154949D02*
X195806846Y-124002568D01*
X195806846Y-124002568D02*
X195806846Y-123773996D01*
X195806846Y-123773996D02*
X195730655Y-123621615D01*
X195730655Y-123621615D02*
X195654465Y-123545425D01*
X195654465Y-123545425D02*
X195502084Y-123469234D01*
X195502084Y-123469234D02*
X195044941Y-123469234D01*
X195044941Y-123469234D02*
X194892560Y-123545425D01*
X194892560Y-123545425D02*
X194816370Y-123621615D01*
X194816370Y-123621615D02*
X194740179Y-123773996D01*
X194740179Y-123773996D02*
X194740179Y-124002568D01*
X193688079Y-126821615D02*
X193764269Y-126973996D01*
X193764269Y-126973996D02*
X193764269Y-127202567D01*
X193764269Y-127202567D02*
X193688079Y-127431139D01*
X193688079Y-127431139D02*
X193535698Y-127583520D01*
X193535698Y-127583520D02*
X193383317Y-127659710D01*
X193383317Y-127659710D02*
X193078555Y-127735901D01*
X193078555Y-127735901D02*
X192849983Y-127735901D01*
X192849983Y-127735901D02*
X192545221Y-127659710D01*
X192545221Y-127659710D02*
X192392840Y-127583520D01*
X192392840Y-127583520D02*
X192240460Y-127431139D01*
X192240460Y-127431139D02*
X192164269Y-127202567D01*
X192164269Y-127202567D02*
X192164269Y-127050186D01*
X192164269Y-127050186D02*
X192240460Y-126821615D01*
X192240460Y-126821615D02*
X192316650Y-126745424D01*
X192316650Y-126745424D02*
X192849983Y-126745424D01*
X192849983Y-126745424D02*
X192849983Y-127050186D01*
X192164269Y-126059710D02*
X193764269Y-126059710D01*
X193764269Y-126059710D02*
X192164269Y-125145424D01*
X192164269Y-125145424D02*
X193764269Y-125145424D01*
X192164269Y-124383520D02*
X193764269Y-124383520D01*
X193764269Y-124383520D02*
X193764269Y-124002568D01*
X193764269Y-124002568D02*
X193688079Y-123773996D01*
X193688079Y-123773996D02*
X193535698Y-123621615D01*
X193535698Y-123621615D02*
X193383317Y-123545425D01*
X193383317Y-123545425D02*
X193078555Y-123469234D01*
X193078555Y-123469234D02*
X192849983Y-123469234D01*
X192849983Y-123469234D02*
X192545221Y-123545425D01*
X192545221Y-123545425D02*
X192392840Y-123621615D01*
X192392840Y-123621615D02*
X192240460Y-123773996D01*
X192240460Y-123773996D02*
X192164269Y-124002568D01*
X192164269Y-124002568D02*
X192164269Y-124383520D01*
X189664550Y-127583521D02*
X189588359Y-127354949D01*
X189588359Y-127354949D02*
X189588359Y-126973997D01*
X189588359Y-126973997D02*
X189664550Y-126821616D01*
X189664550Y-126821616D02*
X189740740Y-126745425D01*
X189740740Y-126745425D02*
X189893121Y-126669235D01*
X189893121Y-126669235D02*
X190045502Y-126669235D01*
X190045502Y-126669235D02*
X190197883Y-126745425D01*
X190197883Y-126745425D02*
X190274073Y-126821616D01*
X190274073Y-126821616D02*
X190350264Y-126973997D01*
X190350264Y-126973997D02*
X190426454Y-127278759D01*
X190426454Y-127278759D02*
X190502645Y-127431140D01*
X190502645Y-127431140D02*
X190578835Y-127507330D01*
X190578835Y-127507330D02*
X190731216Y-127583521D01*
X190731216Y-127583521D02*
X190883597Y-127583521D01*
X190883597Y-127583521D02*
X191035978Y-127507330D01*
X191035978Y-127507330D02*
X191112169Y-127431140D01*
X191112169Y-127431140D02*
X191188359Y-127278759D01*
X191188359Y-127278759D02*
X191188359Y-126897806D01*
X191188359Y-126897806D02*
X191112169Y-126669235D01*
X189740740Y-125069234D02*
X189664550Y-125145425D01*
X189664550Y-125145425D02*
X189588359Y-125373996D01*
X189588359Y-125373996D02*
X189588359Y-125526377D01*
X189588359Y-125526377D02*
X189664550Y-125754949D01*
X189664550Y-125754949D02*
X189816930Y-125907330D01*
X189816930Y-125907330D02*
X189969311Y-125983520D01*
X189969311Y-125983520D02*
X190274073Y-126059711D01*
X190274073Y-126059711D02*
X190502645Y-126059711D01*
X190502645Y-126059711D02*
X190807407Y-125983520D01*
X190807407Y-125983520D02*
X190959788Y-125907330D01*
X190959788Y-125907330D02*
X191112169Y-125754949D01*
X191112169Y-125754949D02*
X191188359Y-125526377D01*
X191188359Y-125526377D02*
X191188359Y-125373996D01*
X191188359Y-125373996D02*
X191112169Y-125145425D01*
X191112169Y-125145425D02*
X191035978Y-125069234D01*
X189588359Y-124383520D02*
X191188359Y-124383520D01*
X189588359Y-123469234D02*
X190502645Y-124154949D01*
X191188359Y-123469234D02*
X190274073Y-124383520D01*
X187088640Y-127659711D02*
X187012449Y-127431139D01*
X187012449Y-127431139D02*
X187012449Y-127050187D01*
X187012449Y-127050187D02*
X187088640Y-126897806D01*
X187088640Y-126897806D02*
X187164830Y-126821615D01*
X187164830Y-126821615D02*
X187317211Y-126745425D01*
X187317211Y-126745425D02*
X187469592Y-126745425D01*
X187469592Y-126745425D02*
X187621973Y-126821615D01*
X187621973Y-126821615D02*
X187698163Y-126897806D01*
X187698163Y-126897806D02*
X187774354Y-127050187D01*
X187774354Y-127050187D02*
X187850544Y-127354949D01*
X187850544Y-127354949D02*
X187926735Y-127507330D01*
X187926735Y-127507330D02*
X188002925Y-127583520D01*
X188002925Y-127583520D02*
X188155306Y-127659711D01*
X188155306Y-127659711D02*
X188307687Y-127659711D01*
X188307687Y-127659711D02*
X188460068Y-127583520D01*
X188460068Y-127583520D02*
X188536259Y-127507330D01*
X188536259Y-127507330D02*
X188612449Y-127354949D01*
X188612449Y-127354949D02*
X188612449Y-126973996D01*
X188612449Y-126973996D02*
X188536259Y-126745425D01*
X187012449Y-126059710D02*
X188612449Y-126059710D01*
X188612449Y-126059710D02*
X188612449Y-125678758D01*
X188612449Y-125678758D02*
X188536259Y-125450186D01*
X188536259Y-125450186D02*
X188383878Y-125297805D01*
X188383878Y-125297805D02*
X188231497Y-125221615D01*
X188231497Y-125221615D02*
X187926735Y-125145424D01*
X187926735Y-125145424D02*
X187698163Y-125145424D01*
X187698163Y-125145424D02*
X187393401Y-125221615D01*
X187393401Y-125221615D02*
X187241020Y-125297805D01*
X187241020Y-125297805D02*
X187088640Y-125450186D01*
X187088640Y-125450186D02*
X187012449Y-125678758D01*
X187012449Y-125678758D02*
X187012449Y-126059710D01*
X188612449Y-124154948D02*
X188612449Y-123850186D01*
X188612449Y-123850186D02*
X188536259Y-123697805D01*
X188536259Y-123697805D02*
X188383878Y-123545424D01*
X188383878Y-123545424D02*
X188079116Y-123469234D01*
X188079116Y-123469234D02*
X187545782Y-123469234D01*
X187545782Y-123469234D02*
X187241020Y-123545424D01*
X187241020Y-123545424D02*
X187088640Y-123697805D01*
X187088640Y-123697805D02*
X187012449Y-123850186D01*
X187012449Y-123850186D02*
X187012449Y-124154948D01*
X187012449Y-124154948D02*
X187088640Y-124307329D01*
X187088640Y-124307329D02*
X187241020Y-124459710D01*
X187241020Y-124459710D02*
X187545782Y-124535901D01*
X187545782Y-124535901D02*
X188079116Y-124535901D01*
X188079116Y-124535901D02*
X188383878Y-124459710D01*
X188383878Y-124459710D02*
X188536259Y-124307329D01*
X188536259Y-124307329D02*
X188612449Y-124154948D01*
X184512730Y-126745426D02*
X184436539Y-126516854D01*
X184436539Y-126516854D02*
X184436539Y-126135902D01*
X184436539Y-126135902D02*
X184512730Y-125983521D01*
X184512730Y-125983521D02*
X184588920Y-125907330D01*
X184588920Y-125907330D02*
X184741301Y-125831140D01*
X184741301Y-125831140D02*
X184893682Y-125831140D01*
X184893682Y-125831140D02*
X185046063Y-125907330D01*
X185046063Y-125907330D02*
X185122253Y-125983521D01*
X185122253Y-125983521D02*
X185198444Y-126135902D01*
X185198444Y-126135902D02*
X185274634Y-126440664D01*
X185274634Y-126440664D02*
X185350825Y-126593045D01*
X185350825Y-126593045D02*
X185427015Y-126669235D01*
X185427015Y-126669235D02*
X185579396Y-126745426D01*
X185579396Y-126745426D02*
X185731777Y-126745426D01*
X185731777Y-126745426D02*
X185884158Y-126669235D01*
X185884158Y-126669235D02*
X185960349Y-126593045D01*
X185960349Y-126593045D02*
X186036539Y-126440664D01*
X186036539Y-126440664D02*
X186036539Y-126059711D01*
X186036539Y-126059711D02*
X185960349Y-125831140D01*
X184436539Y-125145425D02*
X186036539Y-125145425D01*
X186036539Y-125145425D02*
X186036539Y-124764473D01*
X186036539Y-124764473D02*
X185960349Y-124535901D01*
X185960349Y-124535901D02*
X185807968Y-124383520D01*
X185807968Y-124383520D02*
X185655587Y-124307330D01*
X185655587Y-124307330D02*
X185350825Y-124231139D01*
X185350825Y-124231139D02*
X185122253Y-124231139D01*
X185122253Y-124231139D02*
X184817491Y-124307330D01*
X184817491Y-124307330D02*
X184665110Y-124383520D01*
X184665110Y-124383520D02*
X184512730Y-124535901D01*
X184512730Y-124535901D02*
X184436539Y-124764473D01*
X184436539Y-124764473D02*
X184436539Y-125145425D01*
X184436539Y-123545425D02*
X186036539Y-123545425D01*
X182013010Y-124993044D02*
X181936820Y-125069235D01*
X181936820Y-125069235D02*
X181860629Y-125297806D01*
X181860629Y-125297806D02*
X181860629Y-125450187D01*
X181860629Y-125450187D02*
X181936820Y-125678759D01*
X181936820Y-125678759D02*
X182089200Y-125831140D01*
X182089200Y-125831140D02*
X182241581Y-125907330D01*
X182241581Y-125907330D02*
X182546343Y-125983521D01*
X182546343Y-125983521D02*
X182774915Y-125983521D01*
X182774915Y-125983521D02*
X183079677Y-125907330D01*
X183079677Y-125907330D02*
X183232058Y-125831140D01*
X183232058Y-125831140D02*
X183384439Y-125678759D01*
X183384439Y-125678759D02*
X183460629Y-125450187D01*
X183460629Y-125450187D02*
X183460629Y-125297806D01*
X183460629Y-125297806D02*
X183384439Y-125069235D01*
X183384439Y-125069235D02*
X183308248Y-124993044D01*
X181936820Y-124383521D02*
X181860629Y-124154949D01*
X181860629Y-124154949D02*
X181860629Y-123773997D01*
X181860629Y-123773997D02*
X181936820Y-123621616D01*
X181936820Y-123621616D02*
X182013010Y-123545425D01*
X182013010Y-123545425D02*
X182165391Y-123469235D01*
X182165391Y-123469235D02*
X182317772Y-123469235D01*
X182317772Y-123469235D02*
X182470153Y-123545425D01*
X182470153Y-123545425D02*
X182546343Y-123621616D01*
X182546343Y-123621616D02*
X182622534Y-123773997D01*
X182622534Y-123773997D02*
X182698724Y-124078759D01*
X182698724Y-124078759D02*
X182774915Y-124231140D01*
X182774915Y-124231140D02*
X182851105Y-124307330D01*
X182851105Y-124307330D02*
X183003486Y-124383521D01*
X183003486Y-124383521D02*
X183155867Y-124383521D01*
X183155867Y-124383521D02*
X183308248Y-124307330D01*
X183308248Y-124307330D02*
X183384439Y-124231140D01*
X183384439Y-124231140D02*
X183460629Y-124078759D01*
X183460629Y-124078759D02*
X183460629Y-123697806D01*
X183460629Y-123697806D02*
X183384439Y-123469235D01*
X180122814Y-126135902D02*
X180122814Y-126669235D01*
X179284719Y-126669235D02*
X180884719Y-126669235D01*
X180884719Y-126669235D02*
X180884719Y-125907330D01*
X179284719Y-124535901D02*
X179284719Y-125297806D01*
X179284719Y-125297806D02*
X180884719Y-125297806D01*
X180884719Y-124231140D02*
X180884719Y-123316854D01*
X179284719Y-123773997D02*
X180884719Y-123773997D01*
X176708809Y-128954949D02*
X178308809Y-128954949D01*
X178308809Y-128954949D02*
X178308809Y-128573997D01*
X178308809Y-128573997D02*
X178232619Y-128345425D01*
X178232619Y-128345425D02*
X178080238Y-128193044D01*
X178080238Y-128193044D02*
X177927857Y-128116854D01*
X177927857Y-128116854D02*
X177623095Y-128040663D01*
X177623095Y-128040663D02*
X177394523Y-128040663D01*
X177394523Y-128040663D02*
X177089761Y-128116854D01*
X177089761Y-128116854D02*
X176937380Y-128193044D01*
X176937380Y-128193044D02*
X176785000Y-128345425D01*
X176785000Y-128345425D02*
X176708809Y-128573997D01*
X176708809Y-128573997D02*
X176708809Y-128954949D01*
X176708809Y-126440663D02*
X177470714Y-126973997D01*
X176708809Y-127354949D02*
X178308809Y-127354949D01*
X178308809Y-127354949D02*
X178308809Y-126745425D01*
X178308809Y-126745425D02*
X178232619Y-126593044D01*
X178232619Y-126593044D02*
X178156428Y-126516854D01*
X178156428Y-126516854D02*
X178004047Y-126440663D01*
X178004047Y-126440663D02*
X177775476Y-126440663D01*
X177775476Y-126440663D02*
X177623095Y-126516854D01*
X177623095Y-126516854D02*
X177546904Y-126593044D01*
X177546904Y-126593044D02*
X177470714Y-126745425D01*
X177470714Y-126745425D02*
X177470714Y-127354949D01*
X176708809Y-125754949D02*
X178308809Y-125754949D01*
X178308809Y-125754949D02*
X178308809Y-125373997D01*
X178308809Y-125373997D02*
X178232619Y-125145425D01*
X178232619Y-125145425D02*
X178080238Y-124993044D01*
X178080238Y-124993044D02*
X177927857Y-124916854D01*
X177927857Y-124916854D02*
X177623095Y-124840663D01*
X177623095Y-124840663D02*
X177394523Y-124840663D01*
X177394523Y-124840663D02*
X177089761Y-124916854D01*
X177089761Y-124916854D02*
X176937380Y-124993044D01*
X176937380Y-124993044D02*
X176785000Y-125145425D01*
X176785000Y-125145425D02*
X176708809Y-125373997D01*
X176708809Y-125373997D02*
X176708809Y-125754949D01*
X177470714Y-123850187D02*
X176708809Y-123850187D01*
X178308809Y-124383521D02*
X177470714Y-123850187D01*
X177470714Y-123850187D02*
X178308809Y-123316854D01*
D15*
%TO.C,Connector*%
X208362100Y-51564301D02*
G75*
G02*
X207600100Y-51564301I-381000J0D01*
G01*
X207600100Y-51564301D02*
G75*
G02*
X208362100Y-51564301I381000J0D01*
G01*
%TD*%
M02*
