%TF.GenerationSoftware,KiCad,Pcbnew,9.0.7*%
%TF.CreationDate,2026-02-05T18:36:46-04:00*%
%TF.ProjectId,TLS_Handheld_PCB,544c535f-4861-46e6-9468-656c645f5043,1*%
%TF.SameCoordinates,Original*%
%TF.FileFunction,Soldermask,Top*%
%TF.FilePolarity,Negative*%
%FSLAX46Y46*%
G04 Gerber Fmt 4.6, Leading zero omitted, Abs format (unit mm)*
G04 Created by KiCad (PCBNEW 9.0.7) date 2026-02-05 18:36:46*
%MOMM*%
%LPD*%
G01*
G04 APERTURE LIST*
G04 Aperture macros list*
%AMRoundRect*
0 Rectangle with rounded corners*
0 $1 Rounding radius*
0 $2 $3 $4 $5 $6 $7 $8 $9 X,Y pos of 4 corners*
0 Add a 4 corners polygon primitive as box body*
4,1,4,$2,$3,$4,$5,$6,$7,$8,$9,$2,$3,0*
0 Add four circle primitives for the rounded corners*
1,1,$1+$1,$2,$3*
1,1,$1+$1,$4,$5*
1,1,$1+$1,$6,$7*
1,1,$1+$1,$8,$9*
0 Add four rect primitives between the rounded corners*
20,1,$1+$1,$2,$3,$4,$5,0*
20,1,$1+$1,$4,$5,$6,$7,0*
20,1,$1+$1,$6,$7,$8,$9,0*
20,1,$1+$1,$8,$9,$2,$3,0*%
G04 Aperture macros list end*
%ADD10C,0.010000*%
%ADD11RoundRect,0.250000X0.450000X-0.350000X0.450000X0.350000X-0.450000X0.350000X-0.450000X-0.350000X0*%
%ADD12RoundRect,0.250000X-0.475000X0.337500X-0.475000X-0.337500X0.475000X-0.337500X0.475000X0.337500X0*%
%ADD13R,1.700000X1.700000*%
%ADD14C,1.700000*%
%ADD15R,1.803400X1.117600*%
%ADD16R,0.584200X1.473200*%
%ADD17R,1.168400X2.692400*%
%ADD18RoundRect,0.175500X0.526500X0.836500X-0.526500X0.836500X-0.526500X-0.836500X0.526500X-0.836500X0*%
%ADD19C,3.200000*%
%ADD20RoundRect,0.102000X0.885000X-0.525000X0.885000X0.525000X-0.885000X0.525000X-0.885000X-0.525000X0*%
%ADD21RoundRect,0.102000X-0.754000X-0.754000X0.754000X-0.754000X0.754000X0.754000X-0.754000X0.754000X0*%
%ADD22C,1.712000*%
%ADD23RoundRect,0.102000X0.525000X0.885000X-0.525000X0.885000X-0.525000X-0.885000X0.525000X-0.885000X0*%
%ADD24RoundRect,0.249999X1.425001X-0.450001X1.425001X0.450001X-1.425001X0.450001X-1.425001X-0.450001X0*%
%ADD25RoundRect,0.102000X-1.150000X0.625000X-1.150000X-0.625000X1.150000X-0.625000X1.150000X0.625000X0*%
%ADD26R,7.112000X2.463800*%
%ADD27RoundRect,0.250000X0.337500X0.475000X-0.337500X0.475000X-0.337500X-0.475000X0.337500X-0.475000X0*%
%ADD28RoundRect,0.250000X-0.350000X-0.450000X0.350000X-0.450000X0.350000X0.450000X-0.350000X0.450000X0*%
%ADD29R,0.508000X1.320800*%
%ADD30R,1.117600X1.803400*%
%ADD31RoundRect,0.175500X-0.836500X0.526500X-0.836500X-0.526500X0.836500X-0.526500X0.836500X0.526500X0*%
%ADD32RoundRect,0.170500X-0.511500X-0.816500X0.511500X-0.816500X0.511500X0.816500X-0.511500X0.816500X0*%
%ADD33RoundRect,0.102000X-0.885000X0.570000X-0.885000X-0.570000X0.885000X-0.570000X0.885000X0.570000X0*%
%ADD34R,1.650000X0.700000*%
%ADD35RoundRect,0.065500X0.456500X0.196500X-0.456500X0.196500X-0.456500X-0.196500X0.456500X-0.196500X0*%
%ADD36RoundRect,0.065500X0.196500X0.456500X-0.196500X0.456500X-0.196500X-0.456500X0.196500X-0.456500X0*%
%ADD37RoundRect,0.102000X1.625000X1.625000X-1.625000X1.625000X-1.625000X-1.625000X1.625000X-1.625000X0*%
%ADD38RoundRect,0.250000X0.475000X-0.337500X0.475000X0.337500X-0.475000X0.337500X-0.475000X-0.337500X0*%
%ADD39R,2.463800X7.112000*%
%ADD40RoundRect,0.170500X0.511500X0.816500X-0.511500X0.816500X-0.511500X-0.816500X0.511500X-0.816500X0*%
%ADD41RoundRect,0.249999X-0.450001X-1.425001X0.450001X-1.425001X0.450001X1.425001X-0.450001X1.425001X0*%
%ADD42RoundRect,0.102000X-0.350000X-0.600000X0.350000X-0.600000X0.350000X0.600000X-0.350000X0.600000X0*%
%ADD43O,1.754000X2.554000*%
%ADD44O,1.254000X2.904000*%
%ADD45RoundRect,0.102000X0.910000X-0.530000X0.910000X0.530000X-0.910000X0.530000X-0.910000X-0.530000X0*%
%ADD46RoundRect,0.250000X-0.450000X0.350000X-0.450000X-0.350000X0.450000X-0.350000X0.450000X0.350000X0*%
%ADD47RoundRect,0.102000X-0.125000X0.350000X-0.125000X-0.350000X0.125000X-0.350000X0.125000X0.350000X0*%
%ADD48RoundRect,0.102000X-0.350000X0.125000X-0.350000X-0.125000X0.350000X-0.125000X0.350000X0.125000X0*%
%ADD49RoundRect,0.102000X-0.562500X0.562500X-0.562500X-0.562500X0.562500X-0.562500X0.562500X0.562500X0*%
%ADD50RoundRect,0.102000X-0.187500X0.187500X-0.187500X-0.187500X0.187500X-0.187500X0.187500X0.187500X0*%
%ADD51R,0.254000X0.812800*%
%ADD52R,2.483491X1.558110*%
%ADD53C,1.574800*%
%ADD54RoundRect,0.175500X0.836500X-0.526500X0.836500X0.526500X-0.836500X0.526500X-0.836500X-0.526500X0*%
%ADD55RoundRect,0.102000X-0.885000X0.525000X-0.885000X-0.525000X0.885000X-0.525000X0.885000X0.525000X0*%
%ADD56RoundRect,0.076750X-0.230250X0.775250X-0.230250X-0.775250X0.230250X-0.775250X0.230250X0.775250X0*%
%ADD57RoundRect,0.175500X-0.526500X-0.836500X0.526500X-0.836500X0.526500X0.836500X-0.526500X0.836500X0*%
%ADD58R,2.590800X7.289800*%
G04 APERTURE END LIST*
D10*
%TO.C,U2*%
X133137500Y-84708000D02*
X133137500Y-85750000D01*
X131812500Y-85750000D01*
X131812500Y-84425000D01*
X132854500Y-84425000D01*
X133137500Y-84708000D01*
G36*
X133137500Y-84708000D02*
G01*
X133137500Y-85750000D01*
X131812500Y-85750000D01*
X131812500Y-84425000D01*
X132854500Y-84425000D01*
X133137500Y-84708000D01*
G37*
%TO.C,U1*%
X133184500Y-116765500D02*
X133184500Y-117807500D01*
X131859500Y-117807500D01*
X131859500Y-116482500D01*
X132901500Y-116482500D01*
X133184500Y-116765500D01*
G36*
X133184500Y-116765500D02*
G01*
X133184500Y-117807500D01*
X131859500Y-117807500D01*
X131859500Y-116482500D01*
X132901500Y-116482500D01*
X133184500Y-116765500D01*
G37*
%TD*%
D11*
%TO.C,R_1*%
X108500000Y-90500000D03*
X108500000Y-88500000D03*
%TD*%
D12*
%TO.C,C40*%
X225000000Y-99537500D03*
X225000000Y-97462500D03*
%TD*%
D13*
%TO.C,STM_CN10*%
X163862500Y-68500000D03*
D14*
X166402500Y-68500000D03*
X163862500Y-71040000D03*
X166402500Y-71040000D03*
X163862500Y-73580000D03*
X166402500Y-73580000D03*
X163862500Y-76120000D03*
X166402500Y-76120000D03*
X163862500Y-78660000D03*
X166402500Y-78660000D03*
X163862500Y-81200000D03*
X166402500Y-81200000D03*
X163862500Y-83740000D03*
X166402500Y-83740000D03*
X163862500Y-86280000D03*
X166402500Y-86280000D03*
X163862500Y-88820000D03*
X166402500Y-88820000D03*
X163862500Y-91360000D03*
X166402500Y-91360000D03*
X163862500Y-93900000D03*
X166402500Y-93900000D03*
X163862500Y-96440000D03*
X166402500Y-96440000D03*
X163862500Y-98980000D03*
X166402500Y-98980000D03*
X163862500Y-101520000D03*
X166402500Y-101520000D03*
X163862500Y-104060000D03*
X166402500Y-104060000D03*
X163862500Y-106600000D03*
X166402500Y-106600000D03*
X163862500Y-109140000D03*
X166402500Y-109140000D03*
X163862500Y-111680000D03*
X166402500Y-111680000D03*
X163862500Y-114220000D03*
X166402500Y-114220000D03*
%TD*%
D13*
%TO.C,J1*%
X168412500Y-55000000D03*
D14*
X170952500Y-55000000D03*
%TD*%
D15*
%TO.C,C26*%
X139912500Y-80001400D03*
X139912500Y-82998600D03*
%TD*%
D11*
%TO.C,RB2*%
X79337500Y-96250000D03*
X79337500Y-94250000D03*
%TD*%
D16*
%TO.C,M1*%
X177862501Y-53933200D03*
X175962499Y-53933200D03*
X176912500Y-56066800D03*
%TD*%
D17*
%TO.C,L1*%
X124932700Y-117557500D03*
X121986300Y-117557500D03*
%TD*%
D18*
%TO.C,C13*%
X133419500Y-123057500D03*
X130499500Y-123057500D03*
%TD*%
D13*
%TO.C,+ Ref_Res -*%
X202725000Y-46500000D03*
D14*
X205265000Y-46500000D03*
%TD*%
D19*
%TO.C,REF\u002A\u002A*%
X240500000Y-46000000D03*
%TD*%
D20*
%TO.C,R23*%
X142912500Y-82970000D03*
X142912500Y-80000000D03*
%TD*%
D11*
%TO.C,R_2*%
X108500000Y-98500000D03*
X108500000Y-96500000D03*
%TD*%
D21*
%TO.C,PB-5*%
X205662500Y-86750000D03*
D22*
X212162500Y-86750000D03*
X205662500Y-91250000D03*
X212162500Y-91250000D03*
%TD*%
D23*
%TO.C,R32*%
X129647500Y-62750000D03*
X126677500Y-62750000D03*
%TD*%
D24*
%TO.C,Rref*%
X206500000Y-59550000D03*
X206500000Y-53450000D03*
%TD*%
D25*
%TO.C,R11*%
X136959500Y-122057500D03*
X136959500Y-125507500D03*
%TD*%
D26*
%TO.C,C31*%
X144500000Y-58573400D03*
X144500000Y-52426600D03*
%TD*%
D13*
%TO.C,RTD*%
X223332500Y-68500000D03*
D14*
X225872500Y-68500000D03*
X228412500Y-68500000D03*
%TD*%
D15*
%TO.C,C16*%
X139959500Y-112558900D03*
X139959500Y-115556100D03*
%TD*%
D27*
%TO.C,C_bat*%
X112500000Y-102000000D03*
X110425000Y-102000000D03*
%TD*%
D28*
%TO.C,R_sink3*%
X189412500Y-48000000D03*
X191412500Y-48000000D03*
%TD*%
D21*
%TO.C,PB-4*%
X205662500Y-64500000D03*
D22*
X212162500Y-64500000D03*
X205662500Y-69000000D03*
X212162500Y-69000000D03*
%TD*%
D29*
%TO.C,D2*%
X181412500Y-56806200D03*
X181412500Y-59193800D03*
%TD*%
D13*
%TO.C,MAX31856*%
X197660000Y-121000000D03*
D14*
X195120000Y-121000000D03*
X192580000Y-121000000D03*
X190040000Y-121000000D03*
X187500000Y-121000000D03*
X184960000Y-121000000D03*
X182420000Y-121000000D03*
X179880000Y-121000000D03*
X177340000Y-121000000D03*
%TD*%
D11*
%TO.C,R_sink2*%
X159912500Y-75500000D03*
X159912500Y-73500000D03*
%TD*%
D12*
%TO.C,C35*%
X182912500Y-88462500D03*
X182912500Y-90537500D03*
%TD*%
D30*
%TO.C,C32*%
X129661100Y-66250000D03*
X126663900Y-66250000D03*
%TD*%
D21*
%TO.C,PB-6*%
X205662500Y-108750000D03*
D22*
X212162500Y-108750000D03*
X205662500Y-113250000D03*
X212162500Y-113250000D03*
%TD*%
D31*
%TO.C,C17*%
X133500000Y-110597500D03*
X133500000Y-113517500D03*
%TD*%
D32*
%TO.C,C29*%
X124547000Y-82000000D03*
X127453000Y-82000000D03*
%TD*%
D33*
%TO.C,R31*%
X126162500Y-51810000D03*
X126162500Y-54690000D03*
%TD*%
D34*
%TO.C,U4*%
X185987500Y-50690000D03*
X185987500Y-53230000D03*
X185987500Y-55770000D03*
X185987500Y-58310000D03*
X194837500Y-58310000D03*
X194837500Y-55770000D03*
X194837500Y-53230000D03*
X194837500Y-50690000D03*
%TD*%
D35*
%TO.C,U6*%
X226935000Y-93800000D03*
X226935000Y-93150000D03*
X226935000Y-92500000D03*
X226935000Y-91850000D03*
X226935000Y-91200000D03*
D36*
X225800000Y-90065000D03*
X225150000Y-90065000D03*
X224500000Y-90065000D03*
X223850000Y-90065000D03*
X223200000Y-90065000D03*
D35*
X222065000Y-91200000D03*
X222065000Y-91850000D03*
X222065000Y-92500000D03*
X222065000Y-93150000D03*
X222065000Y-93800000D03*
D36*
X223200000Y-94935000D03*
X223850000Y-94935000D03*
X224500000Y-94935000D03*
X225150000Y-94935000D03*
X225800000Y-94935000D03*
D37*
X224500000Y-92500000D03*
%TD*%
D38*
%TO.C,C39*%
X227500000Y-99537500D03*
X227500000Y-97462500D03*
%TD*%
D39*
%TO.C,C18*%
X118926600Y-124500000D03*
X125073400Y-124500000D03*
%TD*%
D40*
%TO.C,C33*%
X135615500Y-59750000D03*
X132709500Y-59750000D03*
%TD*%
D41*
%TO.C,Rh2*%
X197000000Y-58500000D03*
X203100000Y-58500000D03*
%TD*%
D20*
%TO.C,R13*%
X142959500Y-115541100D03*
X142959500Y-112571100D03*
%TD*%
D40*
%TO.C,C25*%
X139750000Y-87000000D03*
X136844000Y-87000000D03*
%TD*%
D42*
%TO.C,SD_Reader*%
X167750000Y-124500000D03*
X166650000Y-124500000D03*
X165550000Y-124500000D03*
X164450000Y-124500000D03*
X163350000Y-124500000D03*
X162250000Y-124500000D03*
X161150000Y-124500000D03*
X160050000Y-124500000D03*
X158950000Y-124500000D03*
D43*
X156500000Y-126650000D03*
X174000000Y-126000000D03*
D44*
X156500000Y-135550000D03*
X174500000Y-135550000D03*
%TD*%
D12*
%TO.C,C30*%
X183000000Y-98962500D03*
X183000000Y-101037500D03*
%TD*%
D21*
%TO.C,PB-3*%
X72837500Y-108750000D03*
D22*
X79337500Y-108750000D03*
X72837500Y-113250000D03*
X79337500Y-113250000D03*
%TD*%
D12*
%TO.C,C36*%
X187012500Y-83692500D03*
X187012500Y-85767500D03*
%TD*%
D41*
%TO.C,Rh1*%
X197000000Y-53500000D03*
X203100000Y-53500000D03*
%TD*%
D13*
%TO.C,J3*%
X85385000Y-60275000D03*
D14*
X85385000Y-57735000D03*
%TD*%
D27*
%TO.C,C37*%
X189050000Y-89230000D03*
X186975000Y-89230000D03*
%TD*%
D39*
%TO.C,C28*%
X119926600Y-96500000D03*
X126073400Y-96500000D03*
%TD*%
D19*
%TO.C,REF\u002A\u002A*%
X73500000Y-138000000D03*
%TD*%
D11*
%TO.C,RB1*%
X79337500Y-73500000D03*
X79337500Y-71500000D03*
%TD*%
D13*
%TO.C,TFT_DISPLAY_Pinout*%
X97000000Y-72960000D03*
D14*
X97000000Y-75500000D03*
X97000000Y-78040000D03*
X97000000Y-80580000D03*
X97000000Y-83120000D03*
X97000000Y-85660000D03*
X97000000Y-88200000D03*
X97000000Y-90740000D03*
X97000000Y-93280000D03*
X97000000Y-95820000D03*
X97000000Y-98360000D03*
X97000000Y-100900000D03*
X97000000Y-103440000D03*
X97000000Y-105980000D03*
%TD*%
D13*
%TO.C,MAX31865*%
X231200000Y-121000000D03*
D14*
X228660000Y-121000000D03*
X226120000Y-121000000D03*
X223580000Y-121000000D03*
X221040000Y-121000000D03*
X218500000Y-121000000D03*
X215960000Y-121000000D03*
X213420000Y-121000000D03*
%TD*%
D17*
%TO.C,L2*%
X125000000Y-85500000D03*
X122053600Y-85500000D03*
%TD*%
D13*
%TO.C,J2*%
X97912500Y-127040000D03*
D14*
X97912500Y-124500000D03*
%TD*%
D45*
%TO.C,R33*%
X126162500Y-59778000D03*
X126162500Y-56722000D03*
%TD*%
D46*
%TO.C,Rref*%
X230000000Y-92000000D03*
X230000000Y-94000000D03*
%TD*%
D21*
%TO.C,PB-1*%
X72837500Y-64500000D03*
D22*
X79337500Y-64500000D03*
X72837500Y-69000000D03*
X79337500Y-69000000D03*
%TD*%
D47*
%TO.C,U2*%
X133062500Y-83850000D03*
X132562500Y-83850000D03*
X132062500Y-83850000D03*
X131562500Y-83850000D03*
X131062500Y-83850000D03*
X130562500Y-83850000D03*
D48*
X129912500Y-84500000D03*
X129912500Y-85000000D03*
X129912500Y-85500000D03*
X129912500Y-86000000D03*
X129912500Y-86500000D03*
X129912500Y-87000000D03*
D47*
X130562500Y-87650000D03*
X131062500Y-87650000D03*
X131562500Y-87650000D03*
X132062500Y-87650000D03*
X132562500Y-87650000D03*
X133062500Y-87650000D03*
D48*
X133712500Y-87000000D03*
X133712500Y-86500000D03*
X133712500Y-86000000D03*
X133712500Y-85500000D03*
X133712500Y-85000000D03*
X133712500Y-84500000D03*
D49*
X132475000Y-86412500D03*
X131150000Y-85087500D03*
X131150000Y-86412500D03*
D50*
X133625000Y-83937500D03*
X133625000Y-87562500D03*
X130000000Y-83937500D03*
X130000000Y-87562500D03*
%TD*%
D31*
%TO.C,C*%
X130500000Y-77540000D03*
X130500000Y-80460000D03*
%TD*%
D51*
%TO.C,U3*%
X131709500Y-54250000D03*
X131209498Y-54250000D03*
X130709499Y-54250000D03*
X130209500Y-54250000D03*
X129709498Y-54250000D03*
X129709498Y-57145600D03*
X130209500Y-57145600D03*
X130709499Y-57145600D03*
X131209498Y-57145600D03*
X131709500Y-57145600D03*
D52*
X130706647Y-55677906D03*
%TD*%
D11*
%TO.C,R_bat2*%
X111500000Y-86000000D03*
X111500000Y-84000000D03*
%TD*%
D53*
%TO.C,Connector*%
X212572902Y-51564301D03*
X215572901Y-51564301D03*
X218572900Y-51564301D03*
X221572899Y-51564301D03*
X224572898Y-51564301D03*
X212572902Y-54564300D03*
X215572901Y-54564300D03*
X218572900Y-54564300D03*
X221572899Y-54564300D03*
X224572898Y-54564300D03*
%TD*%
D54*
%TO.C,C34*%
X132162500Y-65710000D03*
X132162500Y-62790000D03*
%TD*%
D18*
%TO.C,C23*%
X133460000Y-91000000D03*
X130540000Y-91000000D03*
%TD*%
D55*
%TO.C,R12*%
X136959500Y-112571100D03*
X136959500Y-115541100D03*
%TD*%
D19*
%TO.C,hole*%
X96500000Y-64500000D03*
%TD*%
%TO.C,REF\u002A\u002A*%
X73500000Y-46000000D03*
%TD*%
D31*
%TO.C,C27*%
X133500000Y-78500000D03*
X133500000Y-81420000D03*
%TD*%
D19*
%TO.C,hole*%
X188500000Y-114500000D03*
%TD*%
D13*
%TO.C,GPS_Pinout*%
X152580000Y-135000000D03*
D14*
X150040000Y-135000000D03*
X147500000Y-135000000D03*
X144960000Y-135000000D03*
X142420000Y-135000000D03*
%TD*%
D11*
%TO.C,RB3*%
X79337500Y-118000000D03*
X79337500Y-116000000D03*
%TD*%
%TO.C,RB4*%
X202162500Y-71250000D03*
X202162500Y-69250000D03*
%TD*%
D32*
%TO.C,C19*%
X124547000Y-114057500D03*
X127453000Y-114057500D03*
%TD*%
D13*
%TO.C,Thermocouple*%
X186087500Y-70000000D03*
D14*
X188627500Y-70000000D03*
%TD*%
D56*
%TO.C,U5*%
X189362500Y-92615000D03*
X188712500Y-92615000D03*
X188062500Y-92615000D03*
X187412500Y-92615000D03*
X186762500Y-92615000D03*
X186112500Y-92615000D03*
X185462500Y-92615000D03*
X185462500Y-98385000D03*
X186112500Y-98385000D03*
X186762500Y-98385000D03*
X187412500Y-98385000D03*
X188062500Y-98385000D03*
X188712500Y-98385000D03*
X189362500Y-98385000D03*
%TD*%
D25*
%TO.C,R21*%
X137000000Y-90000000D03*
X137000000Y-93450000D03*
%TD*%
D21*
%TO.C,PB-2*%
X72837500Y-86750000D03*
D22*
X79337500Y-86750000D03*
X72837500Y-91250000D03*
X79337500Y-91250000D03*
%TD*%
D13*
%TO.C,J1*%
X98412500Y-51540000D03*
D14*
X98412500Y-49000000D03*
%TD*%
D40*
%TO.C,C15*%
X139912500Y-119057500D03*
X137006500Y-119057500D03*
%TD*%
D11*
%TO.C,RB5*%
X205412500Y-96000000D03*
X205412500Y-94000000D03*
%TD*%
D31*
%TO.C,C*%
X130500000Y-109540000D03*
X130500000Y-112460000D03*
%TD*%
D19*
%TO.C,hole*%
X188500000Y-64500000D03*
%TD*%
D57*
%TO.C,C1*%
X131249500Y-50750000D03*
X134169500Y-50750000D03*
%TD*%
D16*
%TO.C,M2*%
X177862501Y-60433200D03*
X175962499Y-60433200D03*
X176912500Y-62566800D03*
%TD*%
D46*
%TO.C,RB6*%
X202162500Y-111500000D03*
X202162500Y-113500000D03*
%TD*%
D55*
%TO.C,R22*%
X136912500Y-80015000D03*
X136912500Y-82985000D03*
%TD*%
D11*
%TO.C,R_sink1*%
X171912500Y-82000000D03*
X171912500Y-80000000D03*
%TD*%
D19*
%TO.C,hole*%
X96500000Y-114500000D03*
%TD*%
%TO.C,REF\u002A\u002A*%
X240500000Y-138000000D03*
%TD*%
D27*
%TO.C,C41*%
X225450000Y-86000000D03*
X223375000Y-86000000D03*
%TD*%
D58*
%TO.C,L3*%
X137313000Y-65250000D03*
X142012000Y-65250000D03*
%TD*%
D29*
%TO.C,D1*%
X181412500Y-50306200D03*
X181412500Y-52693800D03*
%TD*%
D38*
%TO.C,C38*%
X189512500Y-85767500D03*
X189512500Y-83692500D03*
%TD*%
D13*
%TO.C,STM_CN7*%
X102862500Y-68500000D03*
D14*
X105402500Y-68500000D03*
X102862500Y-71040000D03*
X105402500Y-71040000D03*
X102862500Y-73580000D03*
X105402500Y-73580000D03*
X102862500Y-76120000D03*
X105402500Y-76120000D03*
X102862500Y-78660000D03*
X105402500Y-78660000D03*
X102862500Y-81200000D03*
X105402500Y-81200000D03*
X102862500Y-83740000D03*
X105402500Y-83740000D03*
X102862500Y-86280000D03*
X105402500Y-86280000D03*
X102862500Y-88820000D03*
X105402500Y-88820000D03*
X102862500Y-91360000D03*
X105402500Y-91360000D03*
X102862500Y-93900000D03*
X105402500Y-93900000D03*
X102862500Y-96440000D03*
X105402500Y-96440000D03*
X102862500Y-98980000D03*
X105402500Y-98980000D03*
X102862500Y-101520000D03*
X105402500Y-101520000D03*
X102862500Y-104060000D03*
X105402500Y-104060000D03*
X102862500Y-106600000D03*
X105402500Y-106600000D03*
X102862500Y-109140000D03*
X105402500Y-109140000D03*
X102862500Y-111680000D03*
X105402500Y-111680000D03*
X102862500Y-114220000D03*
X105402500Y-114220000D03*
%TD*%
D47*
%TO.C,U1*%
X133109500Y-115907500D03*
X132609500Y-115907500D03*
X132109500Y-115907500D03*
X131609500Y-115907500D03*
X131109500Y-115907500D03*
X130609500Y-115907500D03*
D48*
X129959500Y-116557500D03*
X129959500Y-117057500D03*
X129959500Y-117557500D03*
X129959500Y-118057500D03*
X129959500Y-118557500D03*
X129959500Y-119057500D03*
D47*
X130609500Y-119707500D03*
X131109500Y-119707500D03*
X131609500Y-119707500D03*
X132109500Y-119707500D03*
X132609500Y-119707500D03*
X133109500Y-119707500D03*
D48*
X133759500Y-119057500D03*
X133759500Y-118557500D03*
X133759500Y-118057500D03*
X133759500Y-117557500D03*
X133759500Y-117057500D03*
X133759500Y-116557500D03*
D49*
X132522000Y-118470000D03*
X131197000Y-117145000D03*
X131197000Y-118470000D03*
D50*
X133672000Y-115995000D03*
X133672000Y-119620000D03*
X130047000Y-115995000D03*
X130047000Y-119620000D03*
%TD*%
M02*
